<svg width="80" height="80" viewBox="0 0 80 80" fill="none" xmlns="http://www.w3.org/2000/svg">
<rect width="80" height="80" rx="40" fill="url(#paint0_linear_897_638)"/>
<g clip-path="url(#clip0_897_638)">
<path d="M46.4087 35.3576C45.9869 34.7191 44.7578 32.7982 44.7437 32.7757C44.5252 32.4417 44.229 32.1656 43.8803 31.9713L41.9678 30.9195C41.6184 30.7268 41.2158 30.6528 40.8207 30.7086C40.4256 30.7644 40.0593 30.9469 39.7769 31.2288L38.3115 32.7026L29.6125 24.0035C29.5602 23.9512 29.4982 23.9097 29.4299 23.8814C29.3616 23.8531 29.2884 23.8385 29.2145 23.8385C29.1406 23.8385 29.0674 23.8531 28.9991 23.8814C28.9308 23.9097 28.8688 23.9512 28.8165 24.0035L27.8631 24.9598L25.4528 22.5635C25.0673 22.1981 24.5526 22.0006 24.0216 22.0143C23.4906 22.0281 22.9868 22.2519 22.6206 22.6366C22.2418 23.0046 22.0232 23.507 22.0122 24.035C22.0011 24.563 22.1985 25.0741 22.5615 25.4576L24.969 27.8651L24.0128 28.8185C23.9241 28.9322 23.8759 29.0723 23.8759 29.2165C23.8759 29.3607 23.9241 29.5008 24.0128 29.6145L32.7006 38.3135L31.2269 39.7901C30.9471 40.0714 30.7658 40.4357 30.7101 40.8285C30.6543 41.2214 30.7271 41.6217 30.9175 41.9698L31.9694 43.871C32.1637 44.2125 32.4378 44.502 32.7681 44.7148C32.8469 44.7823 35.4822 46.751 36.7197 46.751C38.5 46.751 40.9384 45.446 43.1884 43.196C46.1697 40.2232 47.4915 37.0001 46.4087 35.3576ZM23.3462 24.6701C23.2662 24.5838 23.2042 24.4824 23.1638 24.3719C23.1234 24.2613 23.1054 24.1439 23.1109 24.0263C23.1164 23.9087 23.1452 23.7934 23.1958 23.6872C23.2463 23.5809 23.3176 23.4857 23.4053 23.4073C23.5616 23.2344 23.7797 23.1301 24.0124 23.1169C24.2451 23.1038 24.4736 23.1828 24.6484 23.337L27.0615 25.7557L25.7537 27.0635L23.3462 24.6701ZM29.2187 25.2045L37.5184 33.4985L33.4965 37.5204L25.194 29.2179L29.2187 25.2045ZM32.9678 43.3395L31.9159 41.4382C31.8433 41.3033 31.8155 41.1487 31.8368 40.997C31.858 40.8452 31.9271 40.7042 32.034 40.5945L40.584 32.022C40.7038 31.9337 40.8436 31.8766 40.991 31.856C41.1383 31.8353 41.2884 31.8518 41.4278 31.9038L43.3375 32.9698C43.5234 33.0733 43.6808 33.2211 43.7959 33.4001L44.7803 34.9385C44.7578 35.1804 44.4259 36.4826 40.435 40.4735C37.5015 43.407 35.3303 44.6923 34.8409 44.7766C34.1294 44.3154 33.3953 43.8232 33.3784 43.8148C33.2055 43.6915 33.0647 43.5285 32.9678 43.3395ZM42.415 42.4029C39.7515 45.0635 37.0965 46.031 36.0025 45.4798C37.5578 44.636 39.774 42.7179 41.2365 41.261C43.8409 38.6566 45.0165 37.0816 45.534 36.1113C46.0431 37.1885 45.0615 39.7535 42.4009 42.4029H42.415Z" fill="white"/>
<path d="M38.7344 57.9991C38.5852 57.9991 38.4421 57.9399 38.3366 57.8344C38.2311 57.7289 38.1719 57.5858 38.1719 57.4366C38.1719 57.2875 38.2311 57.1444 38.3366 57.0389C38.4421 56.9334 38.5852 56.8741 38.7344 56.8741C43.5432 56.8689 48.1536 54.9563 51.554 51.5559C54.9544 48.1556 56.867 43.5452 56.8722 38.7363C56.8722 38.5871 56.9315 38.4441 57.0369 38.3386C57.1424 38.2331 57.2855 38.1738 57.4347 38.1738C57.5839 38.1738 57.7269 38.2331 57.8324 38.3386C57.9379 38.4441 57.9972 38.5871 57.9972 38.7363C57.9912 43.8433 55.9599 48.7394 52.3487 52.3506C48.7375 55.9618 43.8414 57.9932 38.7344 57.9991Z" fill="white"/>
<path d="M38.7344 54.1151C38.5852 54.1151 38.4421 54.0558 38.3366 53.9503C38.2311 53.8448 38.1719 53.7018 38.1719 53.5526C38.1719 53.4034 38.2311 53.2603 38.3366 53.1548C38.4421 53.0493 38.5852 52.9901 38.7344 52.9901C42.5133 52.9856 46.1362 51.4824 48.8084 48.8103C51.4805 46.1382 52.9837 42.5153 52.9881 38.7363C52.9881 38.5871 53.0474 38.4441 53.1529 38.3386C53.2584 38.2331 53.4014 38.1738 53.5506 38.1738C53.6998 38.1738 53.8429 38.2331 53.9484 38.3386C54.0539 38.4441 54.1131 38.5871 54.1131 38.7363C54.1087 42.8137 52.487 46.7227 49.6039 49.6058C46.7208 52.4889 42.8117 54.1106 38.7344 54.1151Z" fill="white"/>
<path d="M38.7344 50.0538C38.5852 50.0538 38.4421 49.9946 38.3366 49.8891C38.2311 49.7836 38.1719 49.6405 38.1719 49.4913C38.1719 49.3421 38.2311 49.1991 38.3366 49.0936C38.4421 48.9881 38.5852 48.9288 38.7344 48.9288C41.4367 48.9258 44.0275 47.851 45.9383 45.9402C47.8491 44.0294 48.9239 41.4386 48.9269 38.7363C48.9269 38.5871 48.9861 38.4441 49.0916 38.3386C49.1971 38.2331 49.3402 38.1738 49.4894 38.1738C49.6386 38.1738 49.7816 38.2331 49.8871 38.3386C49.9926 38.4441 50.0519 38.5871 50.0519 38.7363C50.0489 41.737 48.8556 44.6139 46.7338 46.7357C44.612 48.8575 41.735 50.0508 38.7344 50.0538Z" fill="white"/>
</g>
<defs>
<linearGradient id="paint0_linear_897_638" x1="20.9639" y1="-116.596" x2="-3.0302" y2="40.4042" gradientUnits="userSpaceOnUse">
<stop stop-color="#F5ED9B"/>
<stop offset="1" stop-color="#94652A"/>
</linearGradient>
<clipPath id="clip0_897_638">
<rect width="36" height="36" fill="white" transform="translate(22 22)"/>
</clipPath>
</defs>
</svg>
