<svg width="80" height="80" viewBox="0 0 80 80" fill="none" xmlns="http://www.w3.org/2000/svg">
<rect width="80" height="80" rx="40" fill="url(#paint0_linear_897_655)"/>
<g clip-path="url(#clip0_897_655)">
<path d="M35.502 25.377C33.8983 25.377 32.6895 24.6513 32.6895 23.6895C32.6895 22.7276 33.8983 22.002 35.502 22.002C37.1056 22.002 38.3145 22.7276 38.3145 23.6895C38.3145 24.6513 37.1056 25.377 35.502 25.377ZM35.502 23.127C34.413 23.127 33.8145 23.5494 33.8145 23.6895C33.8145 23.8295 34.413 24.252 35.502 24.252C36.591 24.252 37.1895 23.8295 37.1895 23.6895C37.1895 23.5494 36.591 23.127 35.502 23.127Z" fill="white"/>
<path d="M44.502 25.377C42.8983 25.377 41.6895 24.6513 41.6895 23.6895C41.6895 22.7276 42.8983 22.002 44.502 22.002C46.1056 22.002 47.3145 22.7276 47.3145 23.6895C47.3145 24.6513 46.1056 25.377 44.502 25.377ZM44.502 23.127C43.413 23.127 42.8145 23.5494 42.8145 23.6895C42.8145 23.8295 43.413 24.252 44.502 24.252C45.591 24.252 46.1895 23.8295 46.1895 23.6895C46.1895 23.5494 45.591 23.127 44.502 23.127Z" fill="white"/>
<path d="M35.502 58.002C33.8983 58.002 32.6895 57.2763 32.6895 56.3145V45.2596C31.4118 46.2955 29.997 47.1498 28.4853 47.7982C26.8647 49.1837 25.6537 50.9858 24.9832 53.0098C24.8848 53.3164 24.6914 53.5839 24.4311 53.7735C24.1707 53.963 23.8568 54.0649 23.5348 54.0645C23.334 54.0657 23.1349 54.0273 22.949 53.9513C22.7632 53.8754 22.5941 53.7634 22.4517 53.6219C22.3092 53.4804 22.1962 53.3121 22.119 53.1267C22.0418 52.9414 22.002 52.7426 22.002 52.5418V52.377C22.002 50.2912 23.8734 48.0176 25.0996 46.752H23.127C22.8286 46.752 22.5424 46.6334 22.3315 46.4224C22.1205 46.2115 22.002 45.9253 22.002 45.627V45.0645C22.002 44.7661 22.1205 44.4799 22.3315 44.269C22.5424 44.058 22.8286 43.9395 23.127 43.9395H27.0645C29.7813 43.9395 32.2091 40.547 32.6895 39.8332V23.6895H33.8145V40.002C33.8145 40.1074 33.7848 40.2107 33.729 40.3001C33.6075 40.4947 30.7095 45.0645 27.0645 45.0645H23.127V45.627H26.502C26.6169 45.627 26.729 45.6622 26.8233 45.7278C26.9176 45.7935 26.9895 45.8864 27.0294 45.9942C27.0693 46.102 27.0752 46.2194 27.0464 46.3306C27.0176 46.4418 26.9554 46.5416 26.8681 46.6164C25.827 47.5102 23.127 50.2861 23.127 52.377V52.5418C23.1269 52.594 23.1372 52.6457 23.1572 52.694C23.1772 52.7422 23.2065 52.7861 23.2434 52.823C23.2936 52.8686 23.3542 52.9013 23.4199 52.9182C23.4856 52.9352 23.5544 52.9359 23.6205 52.9203C23.6865 52.9048 23.7478 52.8734 23.799 52.8289C23.8502 52.7844 23.8898 52.7282 23.9145 52.665C24.6629 50.4093 26.0217 48.4052 27.8401 46.8751C27.878 46.8452 27.9193 46.8201 27.9633 46.8003C30.2443 45.7845 32.6895 44.1645 32.6895 43.377C32.6895 43.2278 32.7487 43.0847 32.8542 42.9792C32.9597 42.8737 33.1028 42.8145 33.252 42.8145C33.4011 42.8145 33.5442 42.8737 33.6497 42.9792C33.7552 43.0847 33.8145 43.2278 33.8145 43.377V56.3145C33.8145 56.4545 34.413 56.877 35.502 56.877C36.591 56.877 37.1895 56.4545 37.1895 56.3145V34.377C37.1895 34.2899 37.2097 34.204 37.2486 34.1261C37.2875 34.0482 37.3439 33.9804 37.4134 33.928C37.4829 33.8756 37.5636 33.8401 37.6492 33.8242C37.7348 33.8083 37.8229 33.8124 37.9066 33.8364C41.7592 34.9372 50.1174 36.0583 50.2012 36.0695C50.2364 36.074 50.2711 36.0819 50.3047 36.0931C53.1993 37.0584 56.0203 40.8598 56.5563 41.6124C56.5791 41.6402 56.6097 41.6607 56.6441 41.6711C56.6785 41.6815 56.7153 41.6815 56.7497 41.6709C56.7841 41.6603 56.8146 41.6398 56.8372 41.6118C56.8599 41.5839 56.8737 41.5498 56.877 41.514V41.127C56.877 40.1583 54.3772 37.8465 52.602 36.5145C52.5075 36.4436 52.4377 36.3449 52.4025 36.2322C52.3673 36.1195 52.3685 35.9986 52.4058 35.8866C52.4432 35.7746 52.5148 35.6772 52.6106 35.6081C52.7063 35.5391 52.8214 35.502 52.9395 35.502C54.3 35.4461 55.6376 35.1321 56.8809 34.5766L56.877 33.5658C55.4593 34.1536 53.9906 34.6096 52.4895 34.9282C52.4525 34.936 52.4148 34.9398 52.377 34.9395H50.127C46.1613 34.9395 37.9545 32.7631 37.6068 32.6703C37.4871 32.6384 37.3813 32.5678 37.3059 32.4695C37.2304 32.3713 37.1895 32.2508 37.1895 32.127V23.6895H38.3145V31.6921C40.0582 32.1393 46.8015 33.8145 50.127 33.8145H52.3207C53.7274 33.5096 55.1045 33.0812 56.436 32.5342C56.6068 32.4614 56.793 32.432 56.9779 32.4487C57.1628 32.4654 57.3408 32.5275 57.4958 32.6297C57.6509 32.7318 57.7783 32.8708 57.8666 33.0341C57.9549 33.1975 58.0014 33.3801 58.002 33.5658V34.5783C58.0023 34.7972 57.9386 35.0113 57.8186 35.1943C57.6987 35.3774 57.5277 35.5213 57.327 35.6083C56.3848 36.0169 55.3986 36.3151 54.3879 36.497C55.8307 37.6957 58.002 39.7353 58.002 41.127V41.514C58.0025 41.7903 57.915 42.0596 57.7521 42.2829C57.5892 42.5061 57.3594 42.6716 57.0961 42.7554C56.8327 42.8391 56.5495 42.8368 56.2876 42.7487C56.0257 42.6606 55.7986 42.4913 55.6395 42.2655C54.5341 40.7146 52.1115 37.9123 49.997 37.1771C49.2478 37.077 42.3082 36.1291 38.3145 35.111V56.3145C38.3145 57.2763 37.1056 58.002 35.502 58.002Z" fill="white"/>
<path d="M42.8145 23.6895H41.6895V32.127H42.8145V23.6895Z" fill="white"/>
<path d="M42.2533 38.8781C42.2012 38.8781 42.1493 38.8707 42.0992 38.8562C41.0383 38.5535 39.5415 38.2217 37.6504 37.8695L37.8563 36.7637C39.393 37.0494 40.6783 37.3262 41.6908 37.5815V37.1906H42.8158V38.3156C42.8158 38.4648 42.7566 38.6079 42.6511 38.7134C42.5456 38.8188 42.4025 38.8781 42.2533 38.8781Z" fill="white"/>
<path d="M23.127 40.2485C22.8286 40.2485 22.5424 40.1299 22.3315 39.9189C22.1205 39.708 22.002 39.4218 22.002 39.1235V38.111C22.0016 37.8921 22.0653 37.678 22.1853 37.4949C22.3052 37.3119 22.4762 37.168 22.677 37.081C23.6191 36.6724 24.6053 36.3741 25.616 36.1923C24.1732 34.9958 22.002 32.9562 22.002 31.5646V31.1776C22.0014 30.9012 22.0889 30.6319 22.2518 30.4087C22.4147 30.1854 22.6445 30.0199 22.9078 29.9362C23.1712 29.8524 23.4544 29.8547 23.7163 29.9428C23.9782 30.0309 24.2053 30.2002 24.3645 30.4261C25.4698 31.9769 27.8925 34.7793 30.0075 35.5145C30.2887 35.5521 31.6061 35.7321 33.3391 36.0005L33.167 37.112C31.2247 36.8116 29.8066 36.6226 29.8038 36.622C29.7686 36.6175 29.734 36.6096 29.7003 36.5984C26.8046 35.6331 23.9836 31.8318 23.4476 31.0791C23.4248 31.0513 23.3942 31.0308 23.3598 31.0204C23.3254 31.01 23.2886 31.0101 23.2542 31.0206C23.2198 31.0312 23.1893 31.0518 23.1667 31.0797C23.144 31.1077 23.1302 31.1417 23.127 31.1776V31.5646C23.127 32.5332 25.6267 34.8451 27.402 36.1771C27.4964 36.2479 27.5662 36.3467 27.6014 36.4594C27.6366 36.572 27.6354 36.693 27.5981 36.805C27.5608 36.917 27.4891 37.0144 27.3934 37.0834C27.2976 37.1524 27.1825 37.1896 27.0645 37.1896C25.7039 37.2454 24.3663 37.5595 23.123 38.1149L23.127 39.1257C24.5446 38.538 26.0133 38.0819 27.5145 37.7633C27.5514 37.7555 27.5892 37.7517 27.627 37.7521H29.877C30.6523 37.7629 31.4263 37.8193 32.195 37.9208L32.0589 39.038C31.3354 38.9417 30.6068 38.8879 29.877 38.8771H27.6832C26.2765 39.182 24.8994 39.6104 23.568 40.1573C23.4286 40.2171 23.2786 40.2481 23.127 40.2485Z" fill="white"/>
<path d="M44.5007 58.002C42.897 58.002 41.6882 57.2764 41.6882 56.3145V40.9988C40.976 40.816 39.428 40.4273 37.6309 40.0352L37.871 38.9355C40.3584 39.4789 42.3755 40.0155 42.3958 40.0212C42.5155 40.0531 42.6213 40.1237 42.6968 40.222C42.7722 40.3202 42.8132 40.4407 42.8132 40.5645V56.3145C42.8132 56.4546 43.4117 56.877 44.5007 56.877C45.5897 56.877 46.1882 56.4546 46.1882 56.3145V54.0645C46.1882 53.9154 46.2475 53.7723 46.353 53.6669C46.4745 53.5454 49.3714 50.6895 52.9382 50.6895H56.8757V50.127H54.0632C53.9303 50.1268 53.8017 50.0794 53.7004 49.9934C53.599 49.9075 53.5314 49.7884 53.5095 49.6573C53.4876 49.5262 53.5128 49.3915 53.5807 49.2773C53.6486 49.163 53.7548 49.0765 53.8804 49.033C53.904 49.024 56.3689 48.1454 56.8194 46.1389L55.6438 46.1895C55.1122 47.8894 52.3087 48.8676 51.9909 48.9728C51.9692 48.9807 51.9468 48.9867 51.924 48.9908C50.1875 49.3867 48.5445 50.1165 47.0865 51.1395C47.0029 51.2017 46.9037 51.2395 46.7999 51.2486C46.6962 51.2577 46.5919 51.2379 46.4987 51.1912C46.4056 51.1446 46.3272 51.0729 46.2724 50.9844C46.2176 50.8958 46.1884 50.7937 46.1882 50.6895V39.4395H47.3132V49.6326C48.6651 48.8312 50.1336 48.2452 51.6658 47.8956C52.662 47.5581 54.3095 46.7144 54.5869 45.8633C54.6559 45.6355 54.7954 45.4354 54.9853 45.2918C55.1752 45.1483 55.4058 45.0687 55.6438 45.0645H56.8352C57.0024 45.0642 57.1676 45.1018 57.3183 45.1743C57.469 45.2469 57.6013 45.3526 57.7054 45.4836C57.8062 45.608 57.8776 45.7535 57.9144 45.9093C57.9511 46.0652 57.9521 46.2273 57.9174 46.3836C57.6559 47.4297 57.0428 48.3541 56.181 49.002H56.8757C57.174 49.002 57.4602 49.1206 57.6712 49.3316C57.8821 49.5425 58.0007 49.8287 58.0007 50.127V50.6895C58.0007 50.9879 57.8821 51.2741 57.6712 51.485C57.4602 51.696 57.174 51.8145 56.8757 51.8145H52.9382C50.2832 51.8145 47.942 53.7439 47.3132 54.3092V56.3145C47.3132 57.2764 46.1044 58.002 44.5007 58.002Z" fill="white"/>
<path d="M47.3145 37.1895H46.1895V38.3145H47.3145V37.1895Z" fill="white"/>
<path d="M53.795 34.1148C52.7438 32.4844 51.23 31.2048 49.4475 30.4395H47.3145V32.127H46.1895V29.877C46.1895 29.7278 46.2487 29.5847 46.3542 29.4792C46.4597 29.3737 46.6028 29.3145 46.752 29.3145H49.5645C49.6407 29.3143 49.7161 29.3298 49.7861 29.36C51.8217 30.2096 53.5511 31.6577 54.7451 33.5124L53.795 34.1148Z" fill="white"/>
<path d="M56.1508 33.5366C55.0685 31.6989 52.6183 29.7774 52.5935 29.7583C52.4828 29.6727 52.408 29.549 52.3836 29.4112C52.3593 29.2734 52.3871 29.1315 52.4617 29.0132C52.5364 28.8948 52.6524 28.8086 52.7872 28.7712C52.9221 28.7338 53.066 28.748 53.1909 28.811C53.8428 29.1373 55.5742 29.3139 56.8719 29.3145L56.877 28.1816L46.752 28.1895C46.6028 28.1895 46.4597 28.1302 46.3542 28.0247C46.2487 27.9192 46.1895 27.7761 46.1895 27.627V23.6895H47.3145V27.0645H56.877C57.174 27.0644 57.4589 27.1819 57.6697 27.3912C57.8804 27.6004 57.9999 27.8846 58.002 28.1816V29.3066C58.0018 29.6065 57.8828 29.8941 57.671 30.1065C57.4592 30.3188 57.1718 30.4386 56.8719 30.4395C56.2285 30.4373 55.5857 30.4025 54.9459 30.3354C55.7789 31.117 56.5096 32.001 57.1205 32.9662L56.1508 33.5366Z" fill="white"/>
</g>
<defs>
<linearGradient id="paint0_linear_897_655" x1="20.9639" y1="-116.596" x2="-3.0302" y2="40.4042" gradientUnits="userSpaceOnUse">
<stop stop-color="#F5ED9B"/>
<stop offset="1" stop-color="#94652A"/>
</linearGradient>
<clipPath id="clip0_897_655">
<rect width="36" height="36" fill="white" transform="translate(22 22)"/>
</clipPath>
</defs>
</svg>
