<svg width="80" height="80" viewBox="0 0 80 80" fill="none" xmlns="http://www.w3.org/2000/svg">
<rect width="80" height="80" rx="40" fill="url(#paint0_linear_897_675)"/>
<g clip-path="url(#clip0_897_675)">
<path d="M50.7872 55.9208C48.3336 55.9208 45.7629 55.4979 43.2407 54.6376C42.8732 54.5123 42.6768 54.1126 42.8022 53.7451C42.9275 53.3777 43.3271 53.1812 43.6947 53.3067C46.5476 54.2797 49.5427 54.6733 52.357 54.4443C55.1769 54.215 57.6897 53.3682 59.6237 51.9953C61.5378 50.6368 62.0845 47.9852 60.8685 45.9588L57.421 40.2139C57.2212 39.8809 57.3292 39.449 57.6621 39.2491C57.9951 39.0494 58.4269 39.1574 58.6268 39.4903L59.775 41.4035L60.4386 41.7324C60.8472 41.9348 61.2208 41.8771 61.4622 41.7931C61.771 41.6856 62.0312 41.474 62.1412 41.2409C62.4475 40.5916 62.5964 39.675 62.5964 38.4388C62.5964 36.5562 61.6813 35.8748 60.8249 35.8648C60.8187 35.8647 60.8125 35.8647 60.8063 35.8647C60.2195 35.8647 59.613 36.1904 59.4148 36.7587L60.1935 37.1381C60.5426 37.3081 60.6876 37.7291 60.5176 38.0781C60.3475 38.4273 59.9267 38.5724 59.5775 38.4022L56.4008 36.8544C55.3754 36.3549 54.4415 36.7383 53.9095 37.2641C53.3775 37.7897 52.9825 38.7189 53.4696 39.7502L56.5808 46.3378C56.7467 46.6889 56.5965 47.108 56.2453 47.2739C55.8943 47.4398 55.475 47.2895 55.3092 46.9383L53.5152 43.1399C51.8758 42.2653 49.899 42.052 48.4679 42.0352L41.7091 46.061C41.3755 46.26 40.9439 46.1505 40.7452 45.8168C40.5465 45.4831 40.6559 45.0516 40.9894 44.853L47.9164 40.7269C48.879 40.1535 49.2425 38.958 48.7621 37.9459C48.3723 37.1248 47.5027 36.6335 46.5981 36.7231L45.4856 36.8336C45.1693 36.8649 44.8714 36.6804 44.7587 36.3833C44.6128 35.9985 44.2365 35.4944 43.618 35.2334C43.1898 35.0526 42.7282 35.0236 42.241 35.1462C42.5074 36.3419 42.4188 37.7068 41.8248 39.1617L44.3899 37.9753C44.7424 37.8122 45.1602 37.9658 45.3233 38.3183C45.4863 38.6708 45.3328 39.0886 44.9803 39.2517L39.2541 41.9001C38.6128 42.1967 38.0666 42.6642 37.6743 43.252C37.3322 43.7647 36.9304 44.7562 36.8044 45.095C36.6692 45.459 36.2642 45.6443 35.9005 45.5092C35.5366 45.374 35.351 44.9694 35.4862 44.6054C35.5069 44.5495 36.0007 43.2266 36.5045 42.4716C37.0405 41.6682 37.7872 41.0292 38.6638 40.6238L39.7059 40.1418C41.0593 38.1296 41.2031 36.3684 40.7449 35.008C39.9941 35.5207 38.9521 35.8714 38.0062 35.8901C37.6198 35.8951 37.297 35.5892 37.2894 35.2009C37.2818 34.8126 37.5903 34.4917 37.9786 34.4841C38.8126 34.4676 39.6332 34.0957 40.0813 33.75C39.822 33.4048 39.5215 33.107 39.2005 32.8616C39.0021 32.7099 38.899 32.4643 38.9297 32.2164C39.0006 31.6445 38.8895 31.1984 38.6167 30.96C38.3357 30.7144 37.8518 30.6585 37.2895 30.807C36.9872 30.8865 36.6684 30.7572 36.5073 30.489C36.1967 29.9716 35.8378 29.4782 35.4405 29.0222C35.1854 28.7295 35.2158 28.2854 35.5086 28.0302C35.8013 27.7751 36.2454 27.8055 36.5007 28.0983C36.8434 28.4916 37.1611 28.9095 37.4487 29.3454C38.2741 29.24 39.0044 29.4312 39.5421 29.901C40.0951 30.3842 40.3775 31.1163 40.3556 31.9901C40.9309 32.4918 41.4179 33.1089 41.7704 33.8168C42.7927 33.5249 43.6205 33.708 44.165 33.9377C44.8613 34.2315 45.4563 34.7544 45.8324 35.3861L46.4595 35.3238C47.9527 35.176 49.3891 35.987 50.0327 37.343C50.5629 38.46 50.4705 39.7125 49.8764 40.703C50.7435 40.7861 51.6908 40.9497 52.622 41.2485L52.1982 40.3509C51.5384 38.9539 51.8223 37.3496 52.9213 36.2638C54.0204 35.178 55.6279 34.9136 57.0169 35.5904L58.1448 36.1399C58.3045 35.7594 58.5552 35.4194 58.8861 35.1426C59.4235 34.6932 60.1156 34.45 60.8415 34.4588C62.415 34.4772 64.0027 35.715 64.0027 38.439C64.0027 39.8872 63.8099 41 63.4131 41.841C63.1438 42.4121 62.5873 42.8907 61.9247 43.1214C61.5882 43.2385 61.2407 43.289 60.8971 43.2734L62.0745 45.2353C63.6663 47.8878 62.9474 51.3609 60.4379 53.1421C57.8504 54.9785 54.4494 55.9208 50.7872 55.9208ZM40.8896 53.6223C40.7876 53.6223 40.6841 53.6 40.5859 53.553C37.5306 52.0871 34.8421 49.9839 32.7899 47.4576H27.6882C21.2447 47.4577 16.0026 42.2156 16.0026 35.7721C16.0026 29.3287 21.2447 24.0867 27.6882 24.0867C30.1202 24.0867 32.4516 24.8268 34.4304 26.2271C34.7474 26.4514 34.8226 26.8902 34.5982 27.2071C34.374 27.5242 33.935 27.5992 33.6182 27.375C31.8782 26.1437 29.8276 25.4929 27.6882 25.4929C22.0202 25.4929 17.4089 30.1041 17.4089 35.7721C17.4089 41.4402 22.0202 46.0515 27.6882 46.0515H33.1281C33.3439 46.0515 33.5478 46.1505 33.6812 46.3203C35.6265 48.7977 38.2245 50.8603 41.1943 52.2851C41.5444 52.4531 41.6921 52.8731 41.5241 53.2231C41.4031 53.4752 41.1516 53.6222 40.8896 53.6223ZM29.4531 43.5196C27.5031 43.5196 25.9167 41.9332 25.9167 39.9832C25.9167 38.3721 27.2274 37.0614 28.8385 37.0614C29.2268 37.0614 29.5416 37.3762 29.5416 37.7645C29.5416 38.1528 29.2268 38.4676 28.8385 38.4676C28.0028 38.4676 27.3229 39.1475 27.3229 39.9832C27.3229 41.1578 28.2785 42.1134 29.4531 42.1134C30.2888 42.1134 30.9687 41.4335 30.9687 40.5978C30.9687 40.2095 31.2835 39.8947 31.6718 39.8947C32.0601 39.8947 32.3749 40.2095 32.3749 40.5978C32.3748 42.2089 31.0641 43.5196 29.4531 43.5196ZM33.4175 34.7093C33.2769 34.7093 33.1353 34.696 32.9942 34.6692C32.6128 34.5966 32.3624 34.2285 32.4349 33.847C32.5075 33.4655 32.8757 33.215 33.2571 33.2877C33.4757 33.3291 33.6975 33.2833 33.8815 33.158C34.0655 33.0329 34.1898 32.8435 34.2314 32.6249C34.3038 32.2434 34.6716 31.9927 35.0536 32.0655C35.435 32.1381 35.6854 32.5062 35.6129 32.8877C35.5011 33.4754 35.1672 33.9843 34.6726 34.3208C34.2967 34.5765 33.8623 34.7093 33.4175 34.7093Z" fill="white"/>
</g>
<defs>
<linearGradient id="paint0_linear_897_675" x1="20.9639" y1="-116.596" x2="-3.0302" y2="40.4042" gradientUnits="userSpaceOnUse">
<stop stop-color="#F5ED9B"/>
<stop offset="1" stop-color="#94652A"/>
</linearGradient>
<clipPath id="clip0_897_675">
<rect width="48" height="48" fill="white" transform="translate(16 16)"/>
</clipPath>
</defs>
</svg>
