<svg width="80" height="80" viewBox="0 0 80 80" fill="none" xmlns="http://www.w3.org/2000/svg">
<rect width="80" height="80" rx="40" fill="url(#paint0_linear_897_686)"/>
<path d="M53.9151 26.493C52.9789 25.4797 51.8397 24.6751 50.5717 24.1317C49.3036 23.5883 47.9353 23.3182 46.5559 23.3391C45.3131 23.388 44.0926 23.6854 42.9665 24.2137C41.8404 24.7419 40.8316 25.4904 39.9994 26.4148C39.1673 25.4903 38.1584 24.7419 37.0323 24.2136C35.9063 23.6854 34.6858 23.388 33.4429 23.3391C32.0635 23.3177 30.695 23.5876 29.427 24.131C28.1589 24.6744 27.0197 25.4792 26.0837 26.4927C22.1645 30.6212 22.4573 38.6101 26.7244 43.9381C31.8024 50.2758 39.6169 56.4948 39.6951 56.5569C39.7821 56.6258 39.8898 56.6632 40.0008 56.6632C40.1118 56.6632 40.2195 56.6258 40.3065 56.5569C40.3847 56.4948 48.1993 50.2758 53.2769 43.9381C57.5415 38.6101 57.8343 30.6212 53.9151 26.493ZM52.5089 43.3227C48.0674 48.8642 41.4872 54.3289 39.9994 55.5388C38.5116 54.3294 31.9312 48.8642 27.4914 43.3227C23.5851 38.4439 23.2608 30.8963 26.7975 27.1705C27.613 26.2879 28.5992 25.5802 29.6963 25.0901C30.7935 24.6 31.9787 24.3378 33.1802 24.3195C33.2582 24.3195 33.3361 24.3206 33.4139 24.3229C35.7641 24.3921 37.9702 25.5106 39.6231 27.4729C39.6708 27.5253 39.7289 27.5672 39.7937 27.5959C39.8585 27.6246 39.9285 27.6394 39.9994 27.6394C40.0703 27.6394 40.1404 27.6246 40.2052 27.5959C40.27 27.5672 40.3281 27.5253 40.3757 27.4729C42.0298 25.5112 44.235 24.3926 46.5849 24.3229C47.8258 24.3063 49.0564 24.5514 50.1963 25.0421C51.3363 25.5328 52.36 26.2581 53.201 27.1708C56.738 30.896 56.4134 38.4439 52.5077 43.3227H52.5089Z" fill="white"/>
<path d="M26.5611 29.5184C26.4422 29.4646 26.3068 29.4602 26.1846 29.5062C26.0625 29.5522 25.9636 29.6448 25.9097 29.7637C25.6692 30.2993 25.4786 30.856 25.3405 31.4267C25.3227 31.4903 25.3179 31.5569 25.3263 31.6224C25.3347 31.6879 25.3563 31.751 25.3896 31.808C25.423 31.865 25.4674 31.9147 25.5204 31.9542C25.5733 31.9937 25.6337 32.0221 25.6978 32.0378C25.762 32.0535 25.8286 32.0561 25.8938 32.0455C25.959 32.0349 26.0214 32.0113 26.0773 31.9761C26.1331 31.9409 26.1814 31.8948 26.2191 31.8406C26.2568 31.7863 26.2832 31.7251 26.2967 31.6604C26.4202 31.1489 26.5907 30.6499 26.8061 30.1698C26.8328 30.111 26.8476 30.0474 26.8498 29.9828C26.8519 29.9182 26.8413 29.8539 26.8186 29.7934C26.7958 29.7329 26.7614 29.6775 26.7172 29.6303C26.673 29.5831 26.62 29.5451 26.5611 29.5184Z" fill="white"/>
<path d="M50.7578 38.0057H44.2657C44.1568 38.0057 44.0509 38.0418 43.9647 38.1084C43.8785 38.1751 43.8169 38.2684 43.7896 38.3739L43.4107 39.8296L42.0272 33.6556C42.0036 33.5504 41.946 33.4558 41.8634 33.3865C41.7808 33.3171 41.6777 33.2768 41.5699 33.2717C41.4626 33.2683 41.3569 33.2994 41.2685 33.3604C41.1801 33.4215 41.1137 33.5093 41.0789 33.6109L38.5409 41.4046L37.1065 34.9995C37.0824 34.8918 37.0227 34.7954 36.9372 34.7257C36.8516 34.656 36.7452 34.6171 36.6348 34.6153C36.5241 34.6114 36.4153 34.6459 36.327 34.7129C36.2387 34.7799 36.1763 34.8754 36.1502 34.9831L35.3537 38.0372H29.2422C29.1117 38.0372 28.9865 38.0891 28.8942 38.1814C28.8019 38.2737 28.75 38.3989 28.75 38.5294C28.75 38.66 28.8019 38.7852 28.8942 38.8775C28.9865 38.9698 29.1117 39.0216 29.2422 39.0216H35.7343C35.8432 39.0216 35.9491 38.9855 36.0354 38.9189C36.1216 38.8523 36.1833 38.7589 36.2107 38.6535L36.5893 37.1988L37.9727 43.3714C37.9964 43.4766 38.0539 43.5712 38.1364 43.6406C38.219 43.7099 38.3221 43.7502 38.4298 43.7553H38.4531C38.557 43.7554 38.6583 43.7226 38.7424 43.6616C38.8264 43.6005 38.889 43.5144 38.9211 43.4156L41.4591 35.6219L42.8935 42.0268C42.9177 42.1345 42.9774 42.2309 43.063 42.3007C43.1485 42.3704 43.2551 42.4093 43.3654 42.4112H43.375C43.4839 42.4113 43.5898 42.3751 43.676 42.3085C43.7621 42.2419 43.8238 42.1485 43.8512 42.0431L44.646 38.9896H50.7578C50.8883 38.9896 51.0135 38.9377 51.1058 38.8454C51.1981 38.7531 51.25 38.6279 51.25 38.4974C51.25 38.3668 51.1981 38.2416 51.1058 38.1493C51.0135 38.057 50.8883 38.0052 50.7578 38.0052V38.0057Z" fill="white"/>
<defs>
<linearGradient id="paint0_linear_897_686" x1="20.9639" y1="-116.596" x2="-3.0302" y2="40.4042" gradientUnits="userSpaceOnUse">
<stop stop-color="#F5ED9B"/>
<stop offset="1" stop-color="#94652A"/>
</linearGradient>
</defs>
</svg>
