<svg width="21" height="20" viewBox="0 0 21 20" fill="none" xmlns="http://www.w3.org/2000/svg">
<g clip-path="url(#clip0_897_585)">
<path d="M10.8381 20.0001C5.32402 20.0001 0.838135 15.5142 0.838135 10.0001C0.838135 4.48601 5.32402 0.00012207 10.8381 0.00012207C12.7061 0.00012207 14.5281 0.518525 16.1075 1.49952C16.3835 1.6708 16.4681 2.03352 16.2968 2.30959C16.1252 2.58561 15.7625 2.67081 15.4867 2.49892C14.0939 1.6337 12.4864 1.17663 10.8381 1.17663C5.9728 1.17663 2.0146 5.13496 2.0146 10.0002C2.0146 14.8654 5.9728 18.8237 10.8381 18.8237C15.7033 18.8237 19.6617 14.8653 19.6617 10.0001C19.6617 9.02219 19.503 8.062 19.1899 7.14628C19.0848 6.83898 19.249 6.50443 19.5563 6.39934C19.8642 6.29486 20.1982 6.45848 20.3033 6.76578C20.658 7.80438 20.8382 8.89261 20.8382 10.0002C20.8381 15.5142 16.3522 20.0001 10.8381 20.0001Z" fill="#F5F5F5"/>
<path d="M10.8386 13.3929C10.6894 13.3929 10.5451 13.3362 10.4359 13.2333L5.73002 8.81264C5.4932 8.59024 5.48155 8.21798 5.704 7.98116C5.92645 7.74465 6.29867 7.73238 6.53548 7.95544L10.7887 11.9508L18.5172 2.77619C18.7262 2.52772 19.0975 2.49587 19.346 2.7054C19.5944 2.91466 19.6263 3.28566 19.4168 3.53413L11.2884 13.1837C11.1845 13.3071 11.0341 13.3825 10.8729 13.392C10.8616 13.3926 10.85 13.3929 10.8386 13.3929Z" fill="#F5F5F5"/>
</g>
<defs>
<clipPath id="clip0_897_585">
<rect width="20" height="20" fill="white" transform="translate(0.839111)"/>
</clipPath>
</defs>
</svg>
