<svg width="20" height="21" viewBox="0 0 20 21" fill="none" xmlns="http://www.w3.org/2000/svg">
<g opacity="0.8" clip-path="url(#clip0_897_1262)">
<path d="M13.5662 12.2654L10.7777 10.174V5.91377C10.7777 5.48541 10.4314 5.13916 10.0031 5.13916C9.57472 5.13916 9.22847 5.48541 9.22847 5.91377V10.5613C9.22847 10.8053 9.34312 11.0354 9.53831 11.181L12.6367 13.5048C12.7761 13.6094 12.9388 13.6597 13.1007 13.6597C13.3369 13.6597 13.5693 13.5536 13.7211 13.3491C13.9784 13.0075 13.9086 12.5218 13.5662 12.2654Z" fill="#F5F5F5"/>
<path d="M10 0.5C4.48566 0.5 0 4.98566 0 10.5C0 16.0143 4.48566 20.5 10 20.5C15.5143 20.5 20 16.0143 20 10.5C20 4.98566 15.5143 0.5 10 0.5ZM10 18.9508C5.34082 18.9508 1.54918 15.1592 1.54918 10.5C1.54918 5.84082 5.34082 2.04918 10 2.04918C14.66 2.04918 18.4508 5.84082 18.4508 10.5C18.4508 15.1592 14.6592 18.9508 10 18.9508Z" fill="#F5F5F5"/>
</g>
<defs>
<clipPath id="clip0_897_1262">
<rect width="20" height="20" fill="white" transform="translate(0 0.5)"/>
</clipPath>
</defs>
</svg>
