<svg width="249" height="243" viewBox="0 0 249 243" fill="none" xmlns="http://www.w3.org/2000/svg">
<path opacity="0.3" d="M244.244 88.1289C245.143 91.2067 245.919 94.3346 246.57 97.5068L246.083 97.6074C246.724 100.729 247.242 103.894 247.631 107.097L248.125 107.036C248.511 110.21 248.772 113.42 248.902 116.664L248.403 116.685C248.467 118.282 248.5 119.887 248.5 121.5C248.5 123.113 248.467 124.718 248.403 126.315L248.902 126.335C248.772 129.579 248.511 132.789 248.125 135.963L247.631 135.904C247.242 139.107 246.724 142.272 246.083 145.393L246.57 145.492C245.919 148.664 245.143 151.792 244.244 154.87L243.766 154.73C242.863 157.82 241.838 160.86 240.695 163.844L241.159 164.021C240.004 167.038 238.732 169.997 237.344 172.895L236.895 172.68C235.506 175.578 234.004 178.413 232.393 181.181L232.822 181.43C231.2 184.216 229.47 186.934 227.635 189.577L227.226 189.293C225.396 191.928 223.461 194.489 221.43 196.971L221.814 197.286C219.775 199.777 217.638 202.188 215.407 204.514L215.048 204.169C212.829 206.482 210.519 208.71 208.122 210.847L208.453 211.219C206.053 213.359 203.567 215.408 201 217.361L200.699 216.965C198.152 218.904 195.524 220.748 192.823 222.491L193.094 222.91C190.395 224.652 187.622 226.294 184.781 227.831L184.545 227.394C181.733 228.915 178.854 230.333 175.914 231.642L176.116 232.096C173.185 233.401 170.193 234.599 167.145 235.684L166.978 235.214C163.971 236.284 160.91 237.243 157.8 238.087L157.93 238.567C154.839 239.406 151.699 240.131 148.517 240.738L148.424 240.25C145.294 240.847 142.121 241.329 138.912 241.691L138.968 242.188C135.792 242.546 132.58 242.788 129.336 242.909L129.318 242.41C127.72 242.47 126.113 242.5 124.5 242.5C122.887 242.5 121.28 242.47 119.682 242.41L119.663 242.909C116.419 242.788 113.207 242.546 110.031 242.188L110.088 241.691C106.879 241.329 103.706 240.847 100.576 240.25L100.482 240.738C97.2996 240.131 94.1603 239.406 91.0693 238.567L91.2002 238.087C88.0901 237.243 85.029 236.284 82.0225 235.214L81.8545 235.684C78.8064 234.599 75.8143 233.401 72.8828 232.096L73.0859 231.642C70.1458 230.333 67.2667 228.915 64.4551 227.394L64.2178 227.831C61.3771 226.294 58.6042 224.652 55.9053 222.91L56.1768 222.491C53.4757 220.748 50.8482 218.904 48.3008 216.965L47.999 217.361C45.4324 215.408 42.9459 213.359 40.5459 211.219L40.8779 210.847C38.4812 208.71 36.1706 206.482 33.9521 204.169L33.5918 204.514C31.3614 202.188 29.2241 199.777 27.1846 197.286L27.5703 196.971C25.5386 194.489 23.6044 191.928 21.7744 189.293L21.3643 189.577C19.5288 186.934 17.7987 184.216 16.1768 181.43L16.6074 181.181C14.9964 178.413 13.4937 175.578 12.1055 172.68L11.6553 172.895C10.2675 169.997 8.99466 167.038 7.83984 164.021L8.30469 163.844C7.16233 160.86 6.13678 157.82 5.23438 154.73L4.75488 154.87C3.85601 151.792 3.07977 148.664 2.42871 145.492L2.91699 145.393C2.2764 142.271 1.75846 139.106 1.36914 135.903L0.874023 135.963C0.488323 132.789 0.22675 129.579 0.0966797 126.335L0.59668 126.315C0.532618 124.718 0.5 123.113 0.5 121.5C0.5 119.887 0.532618 118.282 0.59668 116.685L0.0966797 116.664C0.226776 113.42 0.488297 110.21 0.874023 107.036L1.36914 107.096C1.75846 103.893 2.27643 100.728 2.91699 97.6074L2.42871 97.5068C3.07207 94.3722 3.83726 91.2807 4.72266 88.2383L4.75488 88.1289L5.23438 88.2695C6.13678 85.1797 7.16233 82.1399 8.30469 79.1562L7.83984 78.9775C8.99468 75.9614 10.2674 73.0016 11.6553 70.1045L12.1055 70.3203C13.4937 67.4225 14.9964 64.5866 16.6074 61.8193L16.1768 61.5693C17.7987 58.7832 19.5288 56.065 21.3643 53.4219L21.7744 53.707C23.6044 51.0718 25.5386 48.5107 27.5703 46.0293L27.1846 45.7129C29.2241 43.222 31.3614 40.8106 33.5918 38.4854L33.9521 38.8311C36.1706 36.5183 38.4812 34.2905 40.8779 32.1533L40.5459 31.7803C42.9459 29.6402 45.4324 27.5912 47.999 25.6377L48.3008 26.0352C50.8482 24.0963 53.4757 22.2523 56.1768 20.5088L55.9053 20.0889C58.6042 18.3467 61.3771 16.705 64.2178 15.168L64.4551 15.6064C67.2667 14.0851 70.1458 12.6674 73.0859 11.3584L72.8828 10.9033C75.8143 9.59818 78.8064 8.39991 81.8545 7.31543L82.0225 7.78613C85.029 6.71646 88.0901 5.75714 91.2002 4.91309L91.0693 4.43164C94.1603 3.59279 97.2996 2.86779 100.482 2.26074L100.576 2.75C103.706 2.15308 106.879 1.67107 110.088 1.30859L110.031 0.811523C113.207 0.452838 116.419 0.210781 119.663 0.0898438L119.682 0.589844C121.28 0.530258 122.887 0.5 124.5 0.5C126.113 0.5 127.72 0.530257 129.318 0.589844L129.336 0.0898438C132.58 0.210757 135.792 0.452862 138.968 0.811523L138.913 1.30859C142.122 1.67107 145.294 2.15311 148.424 2.75L148.517 2.26074C151.699 2.86777 154.839 3.59281 157.93 4.43164L157.8 4.91309C160.91 5.75714 163.971 6.71646 166.978 7.78613L167.145 7.31543C170.193 8.39989 173.185 9.59819 176.116 10.9033L175.914 11.3584C178.854 12.6674 181.733 14.0851 184.545 15.6064L184.781 15.168C187.622 16.705 190.395 18.3467 193.094 20.0889L192.823 20.5088C195.524 22.2523 198.152 24.0963 200.699 26.0352L201 25.6377C203.567 27.5912 206.053 29.6402 208.453 31.7803L208.122 32.1533C210.519 34.2905 212.829 36.5183 215.048 38.8311L215.407 38.4854C217.638 40.8106 219.775 43.222 221.814 45.7129L221.43 46.0293C223.461 48.5108 225.396 51.0718 227.226 53.707L227.635 53.4219C229.47 56.065 231.2 58.7832 232.822 61.5693L232.393 61.8193C234.004 64.5866 235.506 67.4225 236.895 70.3203L237.344 70.1045C238.732 73.0016 240.004 75.9614 241.159 78.9775L240.695 79.1562C241.838 82.1399 242.863 85.1797 243.766 88.2695L244.244 88.1289Z" stroke="url(#paint0_linear_897_551)" stroke-linejoin="round" stroke-dasharray="10 10"/>
<defs>
<linearGradient id="paint0_linear_897_551" x1="38.3733" y1="-422.489" x2="494.989" y2="395.912" gradientUnits="userSpaceOnUse">
<stop stop-color="#EAC035"/>
<stop offset="1" stop-color="#BE8936"/>
</linearGradient>
</defs>
</svg>
