<svg width="18" height="19" viewBox="0 0 18 19" fill="none" xmlns="http://www.w3.org/2000/svg">
<g clip-path="url(#clip0_897_1881)">
<path d="M10.2152 18.3369H7.32705C6.84463 18.3369 6.4522 17.9453 6.4522 17.4638V10.9621H4.76718C4.28476 10.9621 3.89233 10.5703 3.89233 10.0889V7.30293C3.89233 6.82146 4.28476 6.42979 4.76718 6.42979H6.4522V5.03467C6.4522 3.65135 6.88743 2.47444 7.71067 1.63138C8.53764 0.78447 9.69332 0.336914 11.0528 0.336914L13.2555 0.340485C13.737 0.341309 14.1288 0.732971 14.1288 1.21362V3.80035C14.1288 4.28183 13.7365 4.67349 13.2542 4.67349L11.7712 4.67404C11.3189 4.67404 11.2037 4.76454 11.1791 4.79228C11.1385 4.83829 11.0902 4.96834 11.0902 5.32745V6.42966H13.1428C13.2973 6.42966 13.447 6.4677 13.5756 6.53938C13.8532 6.69415 14.0257 6.9868 14.0257 7.30307L14.0246 10.0891C14.0246 10.5703 13.6322 10.9619 13.1498 10.9619H11.0902V17.4638C11.0902 17.9453 10.6976 18.3369 10.2152 18.3369ZM7.50951 17.2817H10.0328V10.4897C10.0328 10.1682 10.2949 9.90669 10.6169 9.90669H12.9673L12.9683 7.48503H10.6167C10.2948 7.48503 10.0328 7.22356 10.0328 6.90207V5.32745C10.0328 4.91519 10.0747 4.44635 10.3865 4.09396C10.7633 3.66797 11.357 3.6188 11.7709 3.6188L13.0715 3.61826V1.39545L11.052 1.39215C8.86718 1.39215 7.50951 2.78796 7.50951 5.03467V6.90207C7.50951 7.22342 7.24752 7.48503 6.92554 7.48503H4.94964V9.90669H6.92554C7.24752 9.90669 7.50951 10.1682 7.50951 10.4897V17.2817Z" fill="#F8F8F8"/>
</g>
<defs>
<clipPath id="clip0_897_1881">
<rect width="18" height="18" fill="white" transform="translate(0 0.37207)"/>
</clipPath>
</defs>
</svg>
