<svg width="36" height="37" viewBox="0 0 36 37" fill="none" xmlns="http://www.w3.org/2000/svg">
<g clip-path="url(#clip0_897_1967)">
<path d="M22.128 10.373H13.8729C11.1862 10.373 9.00049 12.5588 9.00049 15.2455V23.5007C9.00049 26.1873 11.1862 28.373 13.8729 28.373H22.1282C24.8147 28.373 27.0005 26.1873 27.0005 23.5007V15.2455C27.0005 12.5588 24.8147 10.373 22.128 10.373ZM25.9452 23.5007C25.9452 25.6054 24.2329 27.3178 22.128 27.3178H13.8729C11.7681 27.3178 10.0557 25.6054 10.0557 23.5007V15.2455C10.0557 13.1406 11.7681 11.4283 13.8729 11.4283H22.1282C24.2329 11.4283 25.9452 13.1406 25.9452 15.2455V23.5007Z" fill="url(#paint0_linear_897_1967)"/>
<path d="M18.0005 14.4512C15.2866 14.4512 13.0787 16.659 13.0787 19.3729C13.0787 22.0868 15.2866 24.2946 18.0005 24.2946C20.7144 24.2946 22.9222 22.0868 22.9222 19.3729C22.9222 16.659 20.7144 14.4512 18.0005 14.4512ZM18.0005 23.2394C15.8686 23.2394 14.134 21.5049 14.134 19.3729C14.134 17.241 15.8686 15.5064 18.0005 15.5064C20.1325 15.5064 21.867 17.241 21.867 19.3729C21.867 21.5049 20.1325 23.2394 18.0005 23.2394Z" fill="url(#paint1_linear_897_1967)"/>
<path d="M23.0399 12.7031C22.2379 12.7031 21.5856 13.3556 21.5856 14.1574C21.5856 14.9594 22.2379 15.6119 23.0399 15.6119C23.8419 15.6119 24.4943 14.9594 24.4943 14.1574C24.4943 13.3554 23.8419 12.7031 23.0399 12.7031ZM23.0399 14.5565C22.8199 14.5565 22.6408 14.3774 22.6408 14.1574C22.6408 13.9373 22.8199 13.7584 23.0399 13.7584C23.26 13.7584 23.4391 13.9373 23.4391 14.1574C23.4391 14.3774 23.26 14.5565 23.0399 14.5565Z" fill="url(#paint2_linear_897_1967)"/>
</g>
<defs>
<linearGradient id="paint0_linear_897_1967" x1="13.7173" y1="-15.8609" x2="8.31869" y2="19.464" gradientUnits="userSpaceOnUse">
<stop stop-color="#94652A"/>
<stop offset="1" stop-color="#F5ED9B"/>
</linearGradient>
<linearGradient id="paint1_linear_897_1967" x1="15.6582" y1="0.104858" x2="12.7059" y2="19.4226" gradientUnits="userSpaceOnUse">
<stop stop-color="#94652A"/>
<stop offset="1" stop-color="#F5ED9B"/>
</linearGradient>
<linearGradient id="paint2_linear_897_1967" x1="22.3478" y1="8.46376" x2="21.4754" y2="14.1722" gradientUnits="userSpaceOnUse">
<stop stop-color="#94652A"/>
<stop offset="1" stop-color="#F5ED9B"/>
</linearGradient>
<clipPath id="clip0_897_1967">
<rect width="18" height="18" fill="white" transform="translate(9 10.3721)"/>
</clipPath>
</defs>
</svg>
