<svg width="36" height="37" viewBox="0 0 36 37" fill="none" xmlns="http://www.w3.org/2000/svg">
<g clip-path="url(#clip0_897_1972)">
<path d="M23.9206 11.2598H13.0794C11.1057 11.2598 9.5 12.8706 9.5 14.8502V20.8934C9.5 22.8734 11.1057 24.4839 13.0794 24.4839H23.9206C25.8943 24.4839 27.5 22.8731 27.5 20.8934V14.8502C27.5 12.8706 25.8943 11.2598 23.9206 11.2598ZM26.7653 20.8938C26.7653 22.4686 25.4891 23.7496 23.9206 23.7496H13.0794C11.5109 23.7496 10.2347 22.4683 10.2347 20.8938V14.8502C10.2347 13.2758 11.5109 11.9945 13.0794 11.9945H23.9206C25.4891 11.9945 26.7653 13.2758 26.7653 14.8502V20.8938Z" fill="url(#paint0_linear_897_1972)"/>
<path d="M21.7548 17.7393L16.6652 14.7582C16.552 14.6921 16.4113 14.691 16.2971 14.7564C16.1828 14.8218 16.1123 14.9434 16.1123 15.0753V21.0369C16.1123 21.1685 16.1828 21.2904 16.2967 21.3558C16.3533 21.3881 16.4165 21.4043 16.4797 21.4043C16.5439 21.4043 16.6079 21.3874 16.6652 21.354L21.7548 18.3737C21.8672 18.3079 21.9366 18.1871 21.9366 18.0567C21.9366 17.9262 21.8675 17.805 21.7548 17.7393ZM16.847 20.3959V15.7159L20.8423 18.0563L16.847 20.3959Z" fill="url(#paint1_linear_897_1972)"/>
</g>
<defs>
<linearGradient id="paint0_linear_897_1972" x1="14.2169" y1="-8.01369" x2="11.272" y2="18.2142" gradientUnits="userSpaceOnUse">
<stop stop-color="#94652A"/>
<stop offset="1" stop-color="#F5ED9B"/>
</linearGradient>
<linearGradient id="paint1_linear_897_1972" x1="17.6385" y1="4.94853" x2="15.3463" y2="17.9942" gradientUnits="userSpaceOnUse">
<stop stop-color="#94652A"/>
<stop offset="1" stop-color="#F5ED9B"/>
</linearGradient>
<clipPath id="clip0_897_1972">
<rect width="18" height="18" fill="white" transform="translate(9.5 8.87207)"/>
</clipPath>
</defs>
</svg>
