<svg width="24" height="25" viewBox="0 0 24 25" fill="none" xmlns="http://www.w3.org/2000/svg">
<g clip-path="url(#clip0_897_1865)">
<path d="M4.89041 16.5258C7.25759 19.3555 10.1072 21.5835 13.3595 23.1599C14.5978 23.7467 16.2539 24.443 18.0989 24.5623C18.2132 24.5673 18.3227 24.5723 18.437 24.5723C19.6753 24.5723 20.6699 24.1446 21.4806 23.2643C21.4855 23.2594 21.4955 23.2494 21.5004 23.2395C21.7889 22.8914 22.1171 22.5781 22.4602 22.2449C22.694 22.0211 22.9327 21.7873 23.1614 21.5486C24.2207 20.4446 24.2207 19.0422 23.1515 17.973L20.1627 14.9842C19.6554 14.4571 19.0487 14.1786 18.4122 14.1786C17.7756 14.1786 17.1639 14.4571 16.6418 14.9792L14.8614 16.7596C14.6973 16.6651 14.5282 16.5806 14.3691 16.501C14.1701 16.4015 13.9861 16.307 13.822 16.2026C12.2008 15.1732 10.7288 13.8305 9.32141 12.1048C8.61026 11.2047 8.13285 10.4488 7.79966 9.67794C8.26712 9.25523 8.70475 8.81263 9.12746 8.37997C9.27666 8.22581 9.43082 8.07164 9.58498 7.91748C10.1221 7.38039 10.4105 6.75876 10.4105 6.12718C10.4105 5.4956 10.127 4.87396 9.58498 4.33687L8.10301 2.8549C7.92895 2.68084 7.76484 2.51176 7.59576 2.3377C7.26754 1.99953 6.9244 1.65142 6.58623 1.33812C6.074 0.835838 5.47226 0.572266 4.83571 0.572266C4.20413 0.572266 3.59742 0.835838 3.0653 1.34309L1.20537 3.20302C0.529037 3.87935 0.146112 4.69991 0.0665425 5.64976C-0.0279457 6.83832 0.190869 8.10148 0.757798 9.62821C1.62808 11.9904 2.94097 14.1835 4.89041 16.5258ZM1.27997 5.7542C1.33965 5.09278 1.59327 4.54077 2.07069 4.06336L3.92067 2.21338C4.2091 1.93488 4.52738 1.79067 4.83571 1.79067C5.13907 1.79067 5.4474 1.93488 5.73086 2.22332C6.06406 2.53165 6.37736 2.8549 6.71553 3.19804C6.88461 3.3721 7.05867 3.54616 7.23273 3.72519L8.7147 5.20716C9.02303 5.51549 9.18217 5.82879 9.18217 6.13712C9.18217 6.44545 9.02303 6.75876 8.7147 7.06709C8.56053 7.22125 8.40637 7.38039 8.2522 7.53455C7.78971 8.00202 7.35705 8.44462 6.87964 8.86733C6.86969 8.87728 6.86472 8.88225 6.85477 8.8922C6.44201 9.30496 6.50666 9.69783 6.60612 9.99622C6.61109 10.0111 6.61607 10.0211 6.62104 10.036C7.00397 10.956 7.53608 11.8313 8.36658 12.8756C9.8585 14.7157 11.43 16.1429 13.1606 17.242C13.3745 17.3812 13.6032 17.4906 13.8171 17.6C14.016 17.6995 14.2 17.794 14.3641 17.8984C14.384 17.9084 14.3989 17.9183 14.4188 17.9283C14.5829 18.0128 14.7421 18.0526 14.9012 18.0526C15.299 18.0526 15.5576 17.799 15.6422 17.7144L17.5021 15.8545C17.7905 15.566 18.1038 15.4119 18.4122 15.4119C18.7901 15.4119 19.0985 15.6456 19.2924 15.8545L22.2912 18.8483C22.8879 19.445 22.883 20.0915 22.2762 20.7231C22.0674 20.9469 21.8486 21.1607 21.6148 21.3845C21.2667 21.7227 20.9037 22.0708 20.5755 22.4637C20.0036 23.0803 19.3222 23.3688 18.442 23.3688C18.3575 23.3688 18.268 23.3638 18.1834 23.3588C16.5522 23.2544 15.0355 22.6179 13.8966 22.0758C10.8034 20.5789 8.08809 18.4554 5.8353 15.76C3.98034 13.5271 2.7321 11.4484 1.90658 9.22042C1.39435 7.85283 1.2004 6.75378 1.27997 5.7542Z" fill="#F8F8F8"/>
</g>
<defs>
<clipPath id="clip0_897_1865">
<rect width="24" height="24" fill="white" transform="translate(0 0.572266)"/>
</clipPath>
</defs>
</svg>
