<svg width="18" height="19" viewBox="0 0 18 19" fill="none" xmlns="http://www.w3.org/2000/svg">
<g clip-path="url(#clip0_897_1968)">
<path d="M13.128 0.373047H4.87292C2.18621 0.373047 0.000488281 2.55877 0.000488281 5.24547V13.5007C0.000488281 16.1873 2.18621 18.373 4.87292 18.373H13.1282C15.8147 18.373 18.0005 16.1873 18.0005 13.5007V5.24547C18.0005 2.55877 15.8147 0.373047 13.128 0.373047ZM16.9452 13.5007C16.9452 15.6054 15.2329 17.3178 13.128 17.3178H4.87292C2.76808 17.3178 1.05572 15.6054 1.05572 13.5007V5.24547C1.05572 3.14064 2.76808 1.42828 4.87292 1.42828H13.1282C15.2329 1.42828 16.9452 3.14064 16.9452 5.24547V13.5007Z" fill="url(#paint0_linear_897_1968)"/>
<path d="M9.00046 4.45117C6.28657 4.45117 4.07874 6.65901 4.07874 9.3729C4.07874 12.0868 6.28657 14.2946 9.00046 14.2946C11.7144 14.2946 13.9222 12.0868 13.9222 9.3729C13.9222 6.65901 11.7144 4.45117 9.00046 4.45117ZM9.00046 13.2394C6.86857 13.2394 5.13397 11.5049 5.13397 9.3729C5.13397 7.24101 6.86857 5.50641 9.00046 5.50641C11.1325 5.50641 12.867 7.24101 12.867 9.3729C12.867 11.5049 11.1325 13.2394 9.00046 13.2394Z" fill="url(#paint1_linear_897_1968)"/>
<path d="M14.0399 2.70312C13.2379 2.70312 12.5856 3.35557 12.5856 4.15744C12.5856 4.95944 13.2379 5.61189 14.0399 5.61189C14.8419 5.61189 15.4943 4.95944 15.4943 4.15744C15.4943 3.35544 14.8419 2.70312 14.0399 2.70312ZM14.0399 4.55651C13.8199 4.55651 13.6408 4.37744 13.6408 4.15744C13.6408 3.9373 13.8199 3.75836 14.0399 3.75836C14.26 3.75836 14.4391 3.9373 14.4391 4.15744C14.4391 4.37744 14.26 4.55651 14.0399 4.55651Z" fill="url(#paint2_linear_897_1968)"/>
</g>
<defs>
<linearGradient id="paint0_linear_897_1968" x1="4.71735" y1="-25.8609" x2="-0.681306" y2="9.46398" gradientUnits="userSpaceOnUse">
<stop stop-color="#94652A"/>
<stop offset="1" stop-color="#F5ED9B"/>
</linearGradient>
<linearGradient id="paint1_linear_897_1968" x1="6.6582" y1="-9.89514" x2="3.70589" y2="9.42264" gradientUnits="userSpaceOnUse">
<stop stop-color="#94652A"/>
<stop offset="1" stop-color="#F5ED9B"/>
</linearGradient>
<linearGradient id="paint2_linear_897_1968" x1="13.3478" y1="-1.53624" x2="12.4754" y2="4.1722" gradientUnits="userSpaceOnUse">
<stop stop-color="#94652A"/>
<stop offset="1" stop-color="#F5ED9B"/>
</linearGradient>
<clipPath id="clip0_897_1968">
<rect width="18" height="18" fill="white" transform="translate(0 0.37207)"/>
</clipPath>
</defs>
</svg>
