<svg width="20" height="21" viewBox="0 0 20 21" fill="none" xmlns="http://www.w3.org/2000/svg">
<g opacity="0.8" clip-path="url(#clip0_897_1213)">
<path d="M17.6562 2.0625H16.7188V0.5H15.1562V2.0625H4.84375V0.5H3.28125V2.0625H2.34375C1.05141 2.0625 0 3.11391 0 4.40625V18.1562C0 19.4486 1.05141 20.5 2.34375 20.5H17.6562C18.9486 20.5 20 19.4486 20 18.1562V4.40625C20 3.11391 18.9486 2.0625 17.6562 2.0625ZM18.4375 18.1562C18.4375 18.587 18.087 18.9375 17.6562 18.9375H2.34375C1.91297 18.9375 1.5625 18.587 1.5625 18.1562V7.84375H18.4375V18.1562ZM18.4375 6.28125H1.5625V4.40625C1.5625 3.97547 1.91297 3.625 2.34375 3.625H3.28125V5.1875H4.84375V3.625H15.1562V5.1875H16.7188V3.625H17.6562C18.087 3.625 18.4375 3.97547 18.4375 4.40625V6.28125Z" fill="#F5F5F5"/>
<path d="M4.53121 9.48438H2.96871V11.0469H4.53121V9.48438Z" fill="#F5F5F5"/>
<path d="M7.65621 9.48438H6.09371V11.0469H7.65621V9.48438Z" fill="#F5F5F5"/>
<path d="M10.7812 9.48438H9.21871V11.0469H10.7812V9.48438Z" fill="#F5F5F5"/>
<path d="M13.9062 9.48438H12.3437V11.0469H13.9062V9.48438Z" fill="#F5F5F5"/>
<path d="M17.0312 9.48438H15.4687V11.0469H17.0312V9.48438Z" fill="#F5F5F5"/>
<path d="M4.53121 12.6094H2.96871V14.1719H4.53121V12.6094Z" fill="#F5F5F5"/>
<path d="M7.65621 12.6094H6.09371V14.1719H7.65621V12.6094Z" fill="#F5F5F5"/>
<path d="M10.7812 12.6094H9.21871V14.1719H10.7812V12.6094Z" fill="#F5F5F5"/>
<path d="M13.9062 12.6094H12.3437V14.1719H13.9062V12.6094Z" fill="#F5F5F5"/>
<path d="M4.53121 15.7344H2.96871V17.2969H4.53121V15.7344Z" fill="#F5F5F5"/>
<path d="M7.65621 15.7344H6.09371V17.2969H7.65621V15.7344Z" fill="#F5F5F5"/>
<path d="M10.7812 15.7344H9.21871V17.2969H10.7812V15.7344Z" fill="#F5F5F5"/>
<path d="M13.9062 15.7344H12.3437V17.2969H13.9062V15.7344Z" fill="#F5F5F5"/>
<path d="M17.0312 12.6094H15.4687V14.1719H17.0312V12.6094Z" fill="#F5F5F5"/>
</g>
<defs>
<clipPath id="clip0_897_1213">
<rect width="20" height="20" fill="white" transform="translate(0 0.5)"/>
</clipPath>
</defs>
</svg>
