<svg width="300" height="344" viewBox="0 0 300 344" fill="none" xmlns="http://www.w3.org/2000/svg">
<g filter="url(#filter0_d_897_638)">
<rect x="110" y="116" width="80" height="80" rx="40" fill="url(#paint0_linear_897_638)"/>
<g clip-path="url(#clip0_897_638)">
<path d="M156.409 151.358C155.987 150.719 154.758 148.798 154.744 148.776C154.525 148.442 154.229 148.166 153.88 147.971L151.968 146.919C151.618 146.727 151.216 146.653 150.821 146.709C150.426 146.764 150.059 146.947 149.777 147.229L148.312 148.703L139.612 140.004C139.56 139.951 139.498 139.91 139.43 139.881C139.362 139.853 139.288 139.839 139.215 139.839C139.141 139.839 139.067 139.853 138.999 139.881C138.931 139.91 138.869 139.951 138.817 140.004L137.863 140.96L135.453 138.564C135.067 138.198 134.553 138.001 134.022 138.014C133.491 138.028 132.987 138.252 132.621 138.637C132.242 139.005 132.023 139.507 132.012 140.035C132.001 140.563 132.198 141.074 132.562 141.458L134.969 143.865L134.013 144.819C133.924 144.932 133.876 145.072 133.876 145.216C133.876 145.361 133.924 145.501 134.013 145.614L142.701 154.314L141.227 155.79C140.947 156.071 140.766 156.436 140.71 156.829C140.654 157.221 140.727 157.622 140.917 157.97L141.969 159.871C142.164 160.213 142.438 160.502 142.768 160.715C142.847 160.782 145.482 162.751 146.72 162.751C148.5 162.751 150.938 161.446 153.188 159.196C156.17 156.223 157.492 153 156.409 151.358ZM133.346 140.67C133.266 140.584 133.204 140.482 133.164 140.372C133.123 140.261 133.105 140.144 133.111 140.026C133.116 139.909 133.145 139.793 133.196 139.687C133.246 139.581 133.318 139.486 133.405 139.407C133.562 139.234 133.78 139.13 134.012 139.117C134.245 139.104 134.474 139.183 134.648 139.337L137.062 141.756L135.754 143.064L133.346 140.67ZM139.219 141.204L147.518 149.499L143.497 153.52L135.194 145.218L139.219 141.204ZM142.968 159.339L141.916 157.438C141.843 157.303 141.816 157.149 141.837 156.997C141.858 156.845 141.927 156.704 142.034 156.594L150.584 148.022C150.704 147.934 150.844 147.877 150.991 147.856C151.138 147.835 151.288 147.852 151.428 147.904L153.337 148.97C153.523 149.073 153.681 149.221 153.796 149.4L154.78 150.939C154.758 151.18 154.426 152.483 150.435 156.474C147.502 159.407 145.33 160.692 144.841 160.777C144.129 160.315 143.395 159.823 143.378 159.815C143.205 159.691 143.065 159.528 142.968 159.339ZM152.415 158.403C149.752 161.064 147.097 162.031 146.002 161.48C147.558 160.636 149.774 158.718 151.237 157.261C153.841 154.657 155.017 153.082 155.534 152.111C156.043 153.189 155.062 155.754 152.401 158.403H152.415Z" fill="white"/>
<path d="M148.734 173.999C148.585 173.999 148.442 173.94 148.337 173.834C148.231 173.729 148.172 173.586 148.172 173.437C148.172 173.287 148.231 173.144 148.337 173.039C148.442 172.933 148.585 172.874 148.734 172.874C153.543 172.869 158.154 170.956 161.554 167.556C164.954 164.156 166.867 159.545 166.872 154.736C166.872 154.587 166.931 154.444 167.037 154.339C167.142 154.233 167.286 154.174 167.435 154.174C167.584 154.174 167.727 154.233 167.832 154.339C167.938 154.444 167.997 154.587 167.997 154.736C167.991 159.843 165.96 164.739 162.349 168.351C158.737 171.962 153.841 173.993 148.734 173.999Z" fill="white"/>
<path d="M148.734 170.115C148.585 170.115 148.442 170.056 148.337 169.95C148.231 169.845 148.172 169.702 148.172 169.553C148.172 169.403 148.231 169.26 148.337 169.155C148.442 169.049 148.585 168.99 148.734 168.99C152.513 168.986 156.136 167.482 158.808 164.81C161.48 162.138 162.984 158.515 162.988 154.736C162.988 154.587 163.047 154.444 163.153 154.339C163.258 154.233 163.401 154.174 163.551 154.174C163.7 154.174 163.843 154.233 163.948 154.339C164.054 154.444 164.113 154.587 164.113 154.736C164.109 158.814 162.487 162.723 159.604 165.606C156.721 168.489 152.812 170.111 148.734 170.115Z" fill="white"/>
<path d="M148.734 166.054C148.585 166.054 148.442 165.995 148.337 165.889C148.231 165.784 148.172 165.641 148.172 165.491C148.172 165.342 148.231 165.199 148.337 165.094C148.442 164.988 148.585 164.929 148.734 164.929C151.437 164.926 154.027 163.851 155.938 161.94C157.849 160.029 158.924 157.439 158.927 154.736C158.927 154.587 158.986 154.444 159.092 154.339C159.197 154.233 159.34 154.174 159.489 154.174C159.639 154.174 159.782 154.233 159.887 154.339C159.993 154.444 160.052 154.587 160.052 154.736C160.049 157.737 158.856 160.614 156.734 162.736C154.612 164.858 151.735 166.051 148.734 166.054Z" fill="white"/>
</g>
</g>
<defs>
<filter id="filter0_d_897_638" x="-36.6667" y="-29.7778" width="373.333" height="373.333" filterUnits="userSpaceOnUse" color-interpolation-filters="sRGB">
<feFlood flood-opacity="0" result="BackgroundImageFix"/>
<feColorMatrix in="SourceAlpha" type="matrix" values="0 0 0 0 0 0 0 0 0 0 0 0 0 0 0 0 0 0 127 0" result="hardAlpha"/>
<feOffset dy="0.888889"/>
<feGaussianBlur stdDeviation="73.3333"/>
<feComposite in2="hardAlpha" operator="out"/>
<feColorMatrix type="matrix" values="0 0 0 0 1 0 0 0 0 0.914377 0 0 0 0 0.220833 0 0 0 0.1 0"/>
<feBlend mode="normal" in2="BackgroundImageFix" result="effect1_dropShadow_897_638"/>
<feBlend mode="normal" in="SourceGraphic" in2="effect1_dropShadow_897_638" result="shape"/>
</filter>
<linearGradient id="paint0_linear_897_638" x1="130.964" y1="-0.595743" x2="106.97" y2="156.404" gradientUnits="userSpaceOnUse">
<stop stop-color="#F5ED9B"/>
<stop offset="1" stop-color="#94652A"/>
</linearGradient>
<clipPath id="clip0_897_638">
<rect width="36" height="36" fill="white" transform="translate(132 138)"/>
</clipPath>
</defs>
</svg>
