<svg width="300" height="344" viewBox="0 0 300 344" fill="none" xmlns="http://www.w3.org/2000/svg">
<g filter="url(#filter0_d_897_655)">
<rect x="110" y="116" width="80" height="80" rx="40" fill="url(#paint0_linear_897_655)"/>
<g clip-path="url(#clip0_897_655)">
<path d="M145.502 141.377C143.898 141.377 142.689 140.651 142.689 139.689C142.689 138.728 143.898 138.002 145.502 138.002C147.106 138.002 148.314 138.728 148.314 139.689C148.314 140.651 147.106 141.377 145.502 141.377ZM145.502 139.127C144.413 139.127 143.814 139.549 143.814 139.689C143.814 139.83 144.413 140.252 145.502 140.252C146.591 140.252 147.189 139.83 147.189 139.689C147.189 139.549 146.591 139.127 145.502 139.127Z" fill="white"/>
<path d="M154.502 141.377C152.898 141.377 151.689 140.651 151.689 139.689C151.689 138.728 152.898 138.002 154.502 138.002C156.106 138.002 157.314 138.728 157.314 139.689C157.314 140.651 156.106 141.377 154.502 141.377ZM154.502 139.127C153.413 139.127 152.814 139.549 152.814 139.689C152.814 139.83 153.413 140.252 154.502 140.252C155.591 140.252 156.189 139.83 156.189 139.689C156.189 139.549 155.591 139.127 154.502 139.127Z" fill="white"/>
<path d="M145.502 174.002C143.898 174.002 142.689 173.276 142.689 172.314V161.26C141.412 162.296 139.997 163.15 138.485 163.798C136.865 165.184 135.654 166.986 134.983 169.01C134.885 169.316 134.691 169.584 134.431 169.773C134.171 169.963 133.857 170.065 133.535 170.064C133.334 170.066 133.135 170.027 132.949 169.951C132.763 169.875 132.594 169.763 132.452 169.622C132.309 169.48 132.196 169.312 132.119 169.127C132.042 168.941 132.002 168.743 132.002 168.542V168.377C132.002 166.291 133.873 164.018 135.1 162.752H133.127C132.829 162.752 132.542 162.633 132.331 162.422C132.12 162.211 132.002 161.925 132.002 161.627V161.064C132.002 160.766 132.12 160.48 132.331 160.269C132.542 160.058 132.829 159.939 133.127 159.939H137.064C139.781 159.939 142.209 156.547 142.689 155.833V139.689H143.814V156.002C143.814 156.107 143.785 156.211 143.729 156.3C143.607 156.495 140.709 161.064 137.064 161.064H133.127V161.627H136.502C136.617 161.627 136.729 161.662 136.823 161.728C136.918 161.793 136.99 161.886 137.029 161.994C137.069 162.102 137.075 162.219 137.046 162.331C137.018 162.442 136.955 162.542 136.868 162.616C135.827 163.51 133.127 166.286 133.127 168.377V168.542C133.127 168.594 133.137 168.646 133.157 168.694C133.177 168.742 133.206 168.786 133.243 168.823C133.294 168.869 133.354 168.901 133.42 168.918C133.486 168.935 133.554 168.936 133.62 168.92C133.686 168.905 133.748 168.873 133.799 168.829C133.85 168.784 133.89 168.728 133.914 168.665C134.663 166.409 136.022 164.405 137.84 162.875C137.878 162.845 137.919 162.82 137.963 162.8C140.244 161.784 142.689 160.164 142.689 159.377C142.689 159.228 142.749 159.085 142.854 158.979C142.96 158.874 143.103 158.814 143.252 158.814C143.401 158.814 143.544 158.874 143.65 158.979C143.755 159.085 143.814 159.228 143.814 159.377V172.314C143.814 172.455 144.413 172.877 145.502 172.877C146.591 172.877 147.189 172.455 147.189 172.314V150.377C147.189 150.29 147.21 150.204 147.249 150.126C147.287 150.048 147.344 149.98 147.413 149.928C147.483 149.876 147.564 149.84 147.649 149.824C147.735 149.808 147.823 149.812 147.907 149.836C151.759 150.937 160.117 152.058 160.201 152.07C160.236 152.074 160.271 152.082 160.305 152.093C163.199 153.058 166.02 156.86 166.556 157.612C166.579 157.64 166.61 157.661 166.644 157.671C166.679 157.682 166.715 157.681 166.75 157.671C166.784 157.66 166.815 157.64 166.837 157.612C166.86 157.584 166.874 157.55 166.877 157.514V157.127C166.877 156.158 164.377 153.846 162.602 152.514C162.508 152.444 162.438 152.345 162.403 152.232C162.367 152.119 162.368 151.999 162.406 151.887C162.443 151.775 162.515 151.677 162.611 151.608C162.706 151.539 162.821 151.502 162.939 151.502C164.3 151.446 165.638 151.132 166.881 150.577L166.877 149.566C165.459 150.154 163.991 150.61 162.489 150.928C162.452 150.936 162.415 150.94 162.377 150.939H160.127C156.161 150.939 147.954 148.763 147.607 148.67C147.487 148.638 147.381 148.568 147.306 148.47C147.23 148.371 147.189 148.251 147.189 148.127V139.689H148.314V147.692C150.058 148.139 156.801 149.814 160.127 149.814H162.321C163.727 149.51 165.105 149.081 166.436 148.534C166.607 148.461 166.793 148.432 166.978 148.449C167.163 148.465 167.341 148.528 167.496 148.63C167.651 148.732 167.778 148.871 167.867 149.034C167.955 149.197 168.001 149.38 168.002 149.566V150.578C168.002 150.797 167.939 151.011 167.819 151.194C167.699 151.377 167.528 151.521 167.327 151.608C166.385 152.017 165.399 152.315 164.388 152.497C165.831 153.696 168.002 155.735 168.002 157.127V157.514C168.003 157.79 167.915 158.06 167.752 158.283C167.589 158.506 167.359 158.672 167.096 158.755C166.833 158.839 166.55 158.837 166.288 158.749C166.026 158.661 165.799 158.491 165.639 158.265C164.534 156.715 162.111 153.912 159.997 153.177C159.248 153.077 152.308 152.129 148.314 151.111V172.314C148.314 173.276 147.106 174.002 145.502 174.002Z" fill="white"/>
<path d="M152.814 139.689H151.689V148.127H152.814V139.689Z" fill="white"/>
<path d="M152.253 154.878C152.201 154.878 152.149 154.871 152.099 154.856C151.038 154.554 149.542 154.222 147.65 153.87L147.856 152.764C149.393 153.049 150.678 153.326 151.691 153.582V153.191H152.816V154.316C152.816 154.465 152.757 154.608 152.651 154.713C152.546 154.819 152.403 154.878 152.253 154.878Z" fill="white"/>
<path d="M133.127 156.248C132.829 156.248 132.542 156.13 132.331 155.919C132.12 155.708 132.002 155.422 132.002 155.123V154.111C132.002 153.892 132.065 153.678 132.185 153.495C132.305 153.312 132.476 153.168 132.677 153.081C133.619 152.672 134.605 152.374 135.616 152.192C134.173 150.996 132.002 148.956 132.002 147.565V147.178C132.001 146.901 132.089 146.632 132.252 146.409C132.415 146.185 132.644 146.02 132.908 145.936C133.171 145.852 133.454 145.855 133.716 145.943C133.978 146.031 134.205 146.2 134.364 146.426C135.47 147.977 137.892 150.779 140.007 151.514C140.289 151.552 141.606 151.732 143.339 152L143.167 153.112C141.225 152.812 139.807 152.623 139.804 152.622C139.769 152.618 139.734 152.61 139.7 152.598C136.805 151.633 133.984 147.832 133.448 147.079C133.425 147.051 133.394 147.031 133.36 147.02C133.325 147.01 133.289 147.01 133.254 147.021C133.22 147.031 133.189 147.052 133.167 147.08C133.144 147.108 133.13 147.142 133.127 147.178V147.565C133.127 148.533 135.627 150.845 137.402 152.177C137.496 152.248 137.566 152.347 137.601 152.459C137.637 152.572 137.635 152.693 137.598 152.805C137.561 152.917 137.489 153.014 137.393 153.083C137.298 153.152 137.183 153.19 137.064 153.19C135.704 153.245 134.366 153.559 133.123 154.115L133.127 155.126C134.545 154.538 136.013 154.082 137.514 153.763C137.551 153.756 137.589 153.752 137.627 153.752H139.877C140.652 153.763 141.426 153.819 142.195 153.921L142.059 155.038C141.335 154.942 140.607 154.888 139.877 154.877H137.683C136.276 155.182 134.899 155.61 133.568 156.157C133.429 156.217 133.279 156.248 133.127 156.248Z" fill="white"/>
<path d="M154.501 174.002C152.897 174.002 151.688 173.276 151.688 172.315V156.999C150.976 156.816 149.428 156.427 147.631 156.035L147.871 154.936C150.358 155.479 152.376 156.016 152.396 156.021C152.515 156.053 152.621 156.124 152.697 156.222C152.772 156.32 152.813 156.441 152.813 156.565V172.315C152.813 172.455 153.412 172.877 154.501 172.877C155.59 172.877 156.188 172.455 156.188 172.315V170.065C156.188 169.915 156.247 169.772 156.353 169.667C156.474 169.545 159.371 166.69 162.938 166.69H166.876V166.127H164.063C163.93 166.127 163.802 166.079 163.7 165.993C163.599 165.907 163.531 165.788 163.51 165.657C163.488 165.526 163.513 165.392 163.581 165.277C163.649 165.163 163.755 165.076 163.88 165.033C163.904 165.024 166.369 164.145 166.819 162.139L165.644 162.19C165.112 163.889 162.309 164.868 161.991 164.973C161.969 164.981 161.947 164.987 161.924 164.991C160.187 165.387 158.544 166.117 157.086 167.14C157.003 167.202 156.904 167.24 156.8 167.249C156.696 167.258 156.592 167.238 156.499 167.191C156.406 167.145 156.327 167.073 156.272 166.984C156.218 166.896 156.188 166.794 156.188 166.69V155.44H157.313V165.633C158.665 164.831 160.134 164.245 161.666 163.896C162.662 163.558 164.31 162.714 164.587 161.863C164.656 161.635 164.795 161.435 164.985 161.292C165.175 161.148 165.406 161.069 165.644 161.065H166.835C167.002 161.064 167.168 161.102 167.318 161.174C167.469 161.247 167.601 161.353 167.705 161.484C167.806 161.608 167.878 161.754 167.914 161.909C167.951 162.065 167.952 162.227 167.917 162.384C167.656 163.43 167.043 164.354 166.181 165.002H166.876C167.174 165.002 167.46 165.121 167.671 165.332C167.882 165.543 168.001 165.829 168.001 166.127V166.69C168.001 166.988 167.882 167.274 167.671 167.485C167.46 167.696 167.174 167.815 166.876 167.815H162.938C160.283 167.815 157.942 169.744 157.313 170.309V172.315C157.313 173.276 156.104 174.002 154.501 174.002Z" fill="white"/>
<path d="M157.314 153.189H156.189V154.314H157.314V153.189Z" fill="white"/>
<path d="M163.795 150.115C162.744 148.484 161.23 147.205 159.447 146.439H157.314V148.127H156.189V145.877C156.189 145.728 156.249 145.585 156.354 145.479C156.46 145.374 156.603 145.314 156.752 145.314H159.564C159.641 145.314 159.716 145.33 159.786 145.36C161.822 146.21 163.551 147.658 164.745 149.512L163.795 150.115Z" fill="white"/>
<path d="M166.151 149.537C165.069 147.699 162.618 145.777 162.594 145.758C162.483 145.673 162.408 145.549 162.384 145.411C162.359 145.273 162.387 145.132 162.462 145.013C162.536 144.895 162.652 144.809 162.787 144.771C162.922 144.734 163.066 144.748 163.191 144.811C163.843 145.137 165.574 145.314 166.872 145.314L166.877 144.182L156.752 144.189C156.603 144.189 156.46 144.13 156.354 144.025C156.249 143.919 156.189 143.776 156.189 143.627V139.689H157.314V143.064H166.877C167.174 143.064 167.459 143.182 167.67 143.391C167.88 143.6 168 143.885 168.002 144.182V145.307C168.002 145.607 167.883 145.894 167.671 146.106C167.459 146.319 167.172 146.439 166.872 146.439C166.229 146.437 165.586 146.403 164.946 146.335C165.779 147.117 166.51 148.001 167.121 148.966L166.151 149.537Z" fill="white"/>
</g>
</g>
<defs>
<filter id="filter0_d_897_655" x="-36.6667" y="-29.7778" width="373.333" height="373.333" filterUnits="userSpaceOnUse" color-interpolation-filters="sRGB">
<feFlood flood-opacity="0" result="BackgroundImageFix"/>
<feColorMatrix in="SourceAlpha" type="matrix" values="0 0 0 0 0 0 0 0 0 0 0 0 0 0 0 0 0 0 127 0" result="hardAlpha"/>
<feOffset dy="0.888889"/>
<feGaussianBlur stdDeviation="73.3333"/>
<feComposite in2="hardAlpha" operator="out"/>
<feColorMatrix type="matrix" values="0 0 0 0 1 0 0 0 0 0.914377 0 0 0 0 0.220833 0 0 0 0.1 0"/>
<feBlend mode="normal" in2="BackgroundImageFix" result="effect1_dropShadow_897_655"/>
<feBlend mode="normal" in="SourceGraphic" in2="effect1_dropShadow_897_655" result="shape"/>
</filter>
<linearGradient id="paint0_linear_897_655" x1="130.964" y1="-0.595743" x2="106.97" y2="156.404" gradientUnits="userSpaceOnUse">
<stop stop-color="#F5ED9B"/>
<stop offset="1" stop-color="#94652A"/>
</linearGradient>
<clipPath id="clip0_897_655">
<rect width="36" height="36" fill="white" transform="translate(132 138)"/>
</clipPath>
</defs>
</svg>
