<svg width="41" height="40" viewBox="0 0 41 40" fill="none" xmlns="http://www.w3.org/2000/svg">
<g clip-path="url(#clip0_897_1158)">
<path d="M23.7144 28.3743C23.4019 28.3743 23.0894 28.1243 23.0894 27.8118C23.0894 27.4368 23.3394 27.1868 23.6519 27.1243C27.4019 26.8743 30.3394 23.7493 30.3394 19.9993C30.3394 16.2493 27.4019 13.1243 23.7144 12.8743C23.3394 12.8743 23.0894 12.5618 23.1519 12.1868C23.1519 11.8118 23.4644 11.5618 23.8394 11.6243C28.2144 11.9368 31.6519 15.6243 31.6519 19.9993C31.5894 24.3743 28.1519 28.0618 23.7144 28.3743C23.7769 28.3743 23.7769 28.3743 23.7144 28.3743Z" fill="#F8F8F8"/>
<path d="M26.9019 37.625C26.7144 37.625 26.5269 37.5625 26.4644 37.4375C26.4019 37.375 26.3394 37.25 26.2769 37.125C25.8394 35.3125 24.7769 34 23.5894 33.75C23.2769 33.6875 23.0269 33.375 23.0894 33C23.1519 32.6875 23.4644 32.4375 23.8394 32.5C25.3394 32.8125 26.6519 34.25 27.2769 36.1875C28.8394 35.8125 30.3394 35.1875 31.7144 34.375C30.5894 32.1875 30.7144 30.0625 31.9644 28.75C33.2144 27.5 35.4019 27.375 37.5894 28.5C38.4019 27.125 39.0269 25.625 39.4644 24.0625C37.1519 23.3125 35.6519 21.75 35.6519 19.9375C35.6519 18.1875 37.0894 16.5625 39.4644 15.8125C39.0894 14.25 38.4644 12.75 37.5894 11.375C35.4019 12.5 33.2769 12.375 31.9644 11.125C30.7144 9.87501 30.6519 7.68751 31.7144 5.50001C30.3394 4.68751 28.8394 4.06251 27.2769 3.62501C26.5894 5.62501 25.3394 7.00001 23.8394 7.31251C23.5269 7.37501 23.1519 7.18751 23.0894 6.81251C23.0269 6.50001 23.2144 6.12501 23.5894 6.06251C24.7769 5.81251 25.7769 4.50001 26.2769 2.68751C26.3394 2.50001 26.4019 2.37501 26.5894 2.31251C26.7144 2.25001 26.9019 2.18751 27.0894 2.25001C29.2144 2.68751 31.2144 3.56251 32.9644 4.68751C33.0269 4.68751 33.0269 4.75001 33.0894 4.75001C33.2769 4.93751 33.3394 5.31251 33.1519 5.50001C32.0894 7.50001 31.9644 9.37501 32.9019 10.3125C33.8394 11.25 35.7144 11.125 37.5269 10.0625C37.7144 9.93751 37.9644 9.93751 38.2144 10.0625C38.2769 10.125 38.3394 10.1875 38.4019 10.25C39.5269 12.0625 40.4019 14 40.8394 16.125V16.25C40.8394 16.4375 40.7769 16.625 40.6519 16.75C40.5894 16.8125 40.4644 16.875 40.4019 16.875C38.3394 17.4375 36.9644 18.625 36.9644 19.9375C36.9644 21.25 38.3394 22.5 40.4019 23C40.5894 23.0625 40.7144 23.125 40.7769 23.25C40.8394 23.375 40.9019 23.5625 40.8394 23.75C40.4019 25.875 39.5269 27.875 38.4019 29.625L38.3394 29.6875C38.2144 29.8125 38.0269 29.875 37.9019 29.875C37.7769 29.875 37.6519 29.875 37.5894 29.8125C35.7769 28.75 33.9019 28.625 32.9644 29.5625C31.9644 30.625 32.0894 32.5 33.1519 34.3125C33.2769 34.5 33.2769 34.8125 33.1519 35C33.0894 35.0625 33.0269 35.125 32.9644 35.1875C31.1519 36.375 29.1519 37.1875 27.0894 37.625C27.0269 37.625 26.9644 37.625 26.9019 37.625Z" fill="#F8F8F8"/>
<path d="M15.4644 39.874C12.4019 39.874 9.77686 37.6865 9.15186 34.6865C5.96436 33.874 3.71436 30.9365 3.71436 27.624C3.71436 26.749 3.83936 25.874 4.15186 25.0615C2.08936 23.8115 0.839355 21.499 0.839355 18.999C0.839355 16.5615 2.02686 14.3115 4.02686 12.9365C3.83936 12.249 3.71436 11.5615 3.71436 10.8115C3.71436 7.31152 6.27686 4.24902 9.65186 3.62402C10.7144 1.43652 12.9644 0.0615234 15.4019 0.0615234C18.9644 0.0615234 21.8394 2.93652 21.8394 6.49902V33.249C21.8394 36.8115 19.0269 39.8115 15.5894 39.874H15.4644ZM10.3394 34.124C10.6519 36.6865 12.9019 38.624 15.4644 38.624H15.5894C18.3394 38.5615 20.5894 36.124 20.5894 33.249V6.49902C20.5894 3.62402 18.2769 1.31152 15.4019 1.31152C13.3394 1.31152 11.4644 2.56152 10.6519 4.43652C10.5894 4.62402 10.4019 4.81152 10.1519 4.81152C7.15185 5.24902 4.96436 7.81152 4.96436 10.8115C4.96436 11.5615 5.08936 12.249 5.33936 12.9365C5.40186 13.1865 5.33936 13.4365 5.21436 13.624C5.21436 13.6865 5.15186 13.749 5.08936 13.749C3.21436 14.8115 2.08936 16.874 2.08936 18.999C2.08936 21.249 3.27686 23.249 5.27686 24.3115C5.33936 24.374 5.40186 24.374 5.46436 24.4365C5.65186 24.624 5.65186 24.9365 5.58936 25.124C5.21436 25.9365 5.02686 26.749 5.02686 27.624C5.02686 30.499 7.08935 32.999 9.83936 33.5615C9.96436 33.5615 10.0894 33.624 10.1519 33.749C10.2144 33.874 10.2769 33.999 10.3394 34.124Z" fill="#F8F8F8"/>
<path d="M8.15186 26.312C4.08936 26.312 0.839355 22.9995 0.839355 18.9995C0.839355 14.9995 4.08936 11.687 8.15186 11.687C8.52686 11.687 8.77686 11.937 8.77686 12.312C8.77686 12.687 8.52686 12.937 8.15186 12.937C4.83936 12.937 2.08936 15.6245 2.08936 18.9995C2.08936 22.3745 4.77686 25.062 8.15186 25.062C8.52686 25.062 8.77686 25.312 8.77686 25.687C8.77686 26.062 8.46436 26.312 8.15186 26.312Z" fill="#F8F8F8"/>
<path d="M14.7768 9.56129C14.4018 9.56129 14.1518 9.31129 14.1518 8.93629C14.1518 6.06129 10.0268 4.81129 9.96431 4.81129C9.65181 4.68629 9.46431 4.37379 9.52681 4.06129C9.58931 3.74879 9.96431 3.56129 10.2768 3.62379C10.4643 3.68629 15.3393 5.12379 15.3393 8.93629C15.4018 9.31129 15.0893 9.56129 14.7768 9.56129Z" fill="#F8F8F8"/>
<path d="M11.6518 12.5614C11.5893 12.5614 11.5268 12.5614 11.4018 12.4989C11.0893 12.3739 10.9018 11.9989 11.0268 11.6864C11.6518 10.0614 13.8393 7.31139 17.5893 8.37389C17.9018 8.43639 18.0893 8.81139 18.0268 9.12389C17.9643 9.43639 17.5893 9.62389 17.2768 9.56139C13.6518 8.56139 12.2768 11.9989 12.2143 12.1239C12.1518 12.3739 11.9018 12.5614 11.6518 12.5614Z" fill="#F8F8F8"/>
<path d="M15.9019 15.624C15.8394 15.624 15.7769 15.624 15.7769 15.624C15.4019 15.624 15.1519 15.3115 15.1519 14.999C15.1519 14.624 15.4644 14.374 15.7769 14.374C15.8394 14.374 19.0894 14.4365 20.7144 11.9365C20.9019 11.624 21.2769 11.5615 21.5894 11.749C21.9019 11.9365 21.9644 12.3115 21.7769 12.624C19.9019 15.499 16.5894 15.624 15.9019 15.624Z" fill="#F8F8F8"/>
<path d="M11.2144 22.5621C10.8394 22.5621 10.5269 22.4996 10.1519 22.4371C8.4019 21.9371 7.5894 20.3746 7.5269 20.3121C7.4019 19.9996 7.5269 19.6246 7.8394 19.4996C8.1519 19.3746 8.5269 19.4996 8.6519 19.8121C8.6519 19.8121 9.2769 20.9996 10.4644 21.3121C11.4019 21.5621 12.5894 21.2496 13.8394 20.4371C14.1519 20.2496 14.5269 20.3121 14.7144 20.6246C14.9019 20.9371 14.8394 21.3121 14.5269 21.4996C13.4019 22.1246 12.2769 22.5621 11.2144 22.5621Z" fill="#F8F8F8"/>
<path d="M18.5893 22.3746C13.4643 22.3746 11.9018 18.9371 11.8393 18.7496C11.7143 18.4371 11.8393 18.0621 12.1518 17.9371C12.4643 17.8121 12.8393 17.9371 12.9643 18.2496C13.0268 18.4371 14.7143 22.1246 21.0893 20.8121C21.4018 20.7496 21.7768 20.9371 21.8393 21.3121C21.9018 21.6871 21.7143 21.9996 21.3393 22.0621C20.3393 22.2496 19.4018 22.3746 18.5893 22.3746Z" fill="#F8F8F8"/>
<path d="M15.7768 27.9988C15.6518 27.9988 15.5893 27.9988 15.4643 27.9363C15.1518 27.7488 15.0268 27.4363 15.2143 27.1238C15.2143 27.0613 17.0893 23.5613 21.4643 25.3738C21.7768 25.4988 21.9643 25.8738 21.7768 26.1863C21.6518 26.4988 21.2768 26.6238 20.9643 26.4988C17.7143 25.1238 16.4018 27.3738 16.2768 27.6238C16.2143 27.8738 16.0268 27.9988 15.7768 27.9988Z" fill="#F8F8F8"/>
<path d="M9.71435 34.8118C9.40185 34.8118 9.08935 34.5618 9.08935 34.2493C9.02685 32.9368 9.65185 30.3743 12.3393 29.9993C12.6518 29.9368 12.9643 30.1868 13.0268 30.5618C13.0893 30.9368 12.8393 31.1868 12.4643 31.2493C10.2143 31.5618 10.2768 34.0618 10.2768 34.1868C10.3393 34.5618 10.0893 34.8118 9.71435 34.8118Z" fill="#F8F8F8"/>
<path d="M16.0268 32.6243C14.4018 32.6243 13.0893 32.1243 12.1518 31.1868C10.3393 29.3743 10.4643 26.4993 10.4643 26.3743C10.4643 25.9993 10.7768 25.7493 11.1518 25.8118C11.5268 25.8118 11.7768 26.1243 11.7143 26.4993C11.6518 26.8743 11.5893 28.9368 13.0268 30.3118C13.8393 31.1243 14.9643 31.4368 16.4643 31.3743C16.8393 31.3743 17.0893 31.6243 17.1518 31.9368C17.1518 32.3118 16.9018 32.5618 16.5893 32.6243C16.4018 32.5618 16.2143 32.6243 16.0268 32.6243Z" fill="#F8F8F8"/>
</g>
<defs>
<clipPath id="clip0_897_1158">
<rect width="40" height="40" fill="white" transform="translate(0.839355)"/>
</clipPath>
</defs>
</svg>
