<svg width="19" height="19" viewBox="0 0 19 19" fill="none" xmlns="http://www.w3.org/2000/svg">
<g clip-path="url(#clip0_897_1973)">
<path d="M14.9206 3.25977H4.07943C2.10567 3.25977 0.5 4.87058 0.5 6.85021V12.8934C0.5 14.8734 2.10567 16.4839 4.07943 16.4839H14.9206C16.8943 16.4839 18.5 14.8731 18.5 12.8934V6.85021C18.5 4.87058 16.8943 3.25977 14.9206 3.25977ZM17.7653 12.8938C17.7653 14.4686 16.4891 15.7496 14.9206 15.7496H4.07943C2.51086 15.7496 1.23469 14.4683 1.23469 12.8938V6.85021C1.23469 5.27577 2.51086 3.99446 4.07943 3.99446H14.9206C16.4891 3.99446 17.7653 5.27577 17.7653 6.85021V12.8938Z" fill="url(#paint0_linear_897_1973)"/>
<path d="M12.7548 9.73927L7.66516 6.75825C7.55202 6.69213 7.41133 6.69102 7.29708 6.75641C7.18284 6.8218 7.1123 6.94339 7.1123 7.07527V13.0369C7.1123 13.1685 7.18284 13.2904 7.29671 13.3558C7.35328 13.3881 7.41647 13.4043 7.47965 13.4043C7.54394 13.4043 7.60786 13.3874 7.66516 13.354L12.7548 10.3737C12.8672 10.3079 12.9366 10.1871 12.9366 10.0567C12.9366 9.92625 12.8675 9.80502 12.7548 9.73927ZM7.847 12.3959V7.71592L11.8423 10.0563L7.847 12.3959Z" fill="url(#paint1_linear_897_1973)"/>
</g>
<defs>
<linearGradient id="paint0_linear_897_1973" x1="5.21687" y1="-16.0137" x2="2.27203" y2="10.2142" gradientUnits="userSpaceOnUse">
<stop stop-color="#94652A"/>
<stop offset="1" stop-color="#F5ED9B"/>
</linearGradient>
<linearGradient id="paint1_linear_897_1973" x1="8.63855" y1="-3.05147" x2="6.34631" y2="9.99415" gradientUnits="userSpaceOnUse">
<stop stop-color="#94652A"/>
<stop offset="1" stop-color="#F5ED9B"/>
</linearGradient>
<clipPath id="clip0_897_1973">
<rect width="18" height="18" fill="white" transform="translate(0.5 0.87207)"/>
</clipPath>
</defs>
</svg>
