<svg width="19" height="19" viewBox="0 0 19 19" fill="none" xmlns="http://www.w3.org/2000/svg">
<g clip-path="url(#clip0_897_1961)">
<path d="M3.09226 0.545898C1.86874 0.545898 0.980469 1.38991 0.980469 2.55195C0.980469 3.71359 1.85111 4.55682 3.04997 4.55682C3.67191 4.55682 4.20769 4.35512 4.59974 3.97365C4.97573 3.60745 5.18291 3.10261 5.18252 2.54294C5.1551 1.3672 4.29542 0.545898 3.09226 0.545898ZM4.05377 3.41241C3.81095 3.64858 3.46355 3.77351 3.04997 3.77351C2.2929 3.77351 1.76378 3.27141 1.76378 2.55195C1.76378 1.82073 2.2976 1.32921 3.09226 1.32921C3.86891 1.32921 4.38198 1.8129 4.3996 2.55234C4.39921 2.88994 4.27662 3.19504 4.05377 3.41241Z" fill="url(#paint0_linear_897_1961)"/>
<path d="M1.35608 18.1609H4.87626V5.21875H1.35608V18.1609ZM2.13939 6.00206H4.09295V17.3772H2.13939V6.00206Z" fill="url(#paint1_linear_897_1961)"/>
<path d="M14.1588 5.21875C12.5264 5.21875 11.5269 5.78234 10.948 6.31225L10.8379 5.21875H6.85522V18.1605H10.7557V11.3587C10.7557 11.0657 10.8744 10.4575 10.9488 10.2969C11.4199 9.28215 12.0556 9.28215 13.0183 9.28215C14.1271 9.28215 15.0639 10.322 15.0639 11.5526V18.1613H18.9804V10.8492C18.9804 6.98041 16.4809 5.21875 14.1588 5.21875ZM18.1971 17.3776H15.8472V11.5522C15.8472 9.89666 14.5516 8.49846 13.0183 8.49846C12.0344 8.49846 10.9198 8.49846 10.2379 9.96716C10.0973 10.2707 9.972 10.998 9.972 11.3587V17.3776H7.63853V6.00206H10.1294L10.2892 7.5859H10.9312L11.0459 7.40065C11.3071 6.98002 12.1331 6.00166 14.1588 6.00166C16.1037 6.00166 18.1971 7.51815 18.1971 10.848V17.3776Z" fill="url(#paint2_linear_897_1961)"/>
</g>
<defs>
<linearGradient id="paint0_linear_897_1961" x1="2.08161" y1="-5.29981" x2="0.931012" y2="2.58763" gradientUnits="userSpaceOnUse">
<stop stop-color="#94652A"/>
<stop offset="1" stop-color="#F5ED9B"/>
</linearGradient>
<linearGradient id="paint1_linear_897_1961" x1="2.27854" y1="-13.6438" x2="-8.82163" y2="6.11146" gradientUnits="userSpaceOnUse">
<stop stop-color="#94652A"/>
<stop offset="1" stop-color="#F5ED9B"/>
</linearGradient>
<linearGradient id="paint2_linear_897_1961" x1="10.0326" y1="-13.6444" x2="5.90226" y2="11.6749" gradientUnits="userSpaceOnUse">
<stop stop-color="#94652A"/>
<stop offset="1" stop-color="#F5ED9B"/>
</linearGradient>
<clipPath id="clip0_897_1961">
<rect width="18" height="18" fill="white" transform="translate(0.980469 0.352539)"/>
</clipPath>
</defs>
</svg>
