<svg width="24" height="24" viewBox="0 0 24 24" fill="none" xmlns="http://www.w3.org/2000/svg">
<path d="M2.70375 11.9693C3.0375 13.608 4.3875 14.838 6 14.838C7.6125 14.838 8.9625 13.608 9.29625 11.9693C9.96375 11.8305 10.5 11.238 10.5 10.5705V9.51677C10.5 7.70927 9.1875 5.98427 7.57125 5.67677C7.36875 5.63927 7.17 5.77052 7.1325 5.97302C7.095 6.17552 7.22625 6.37427 7.42875 6.41177C8.685 6.65177 9.75 8.07302 9.75 9.51677V10.5705C9.75 10.7993 9.5925 11.0168 9.375 11.1443V10.458C9.375 10.2518 9.20625 10.083 9 10.083C5.89875 10.083 4.62 8.75927 4.60875 8.74802C4.51875 8.64677 4.38 8.60552 4.24875 8.63552C4.1175 8.66552 4.0125 8.76302 3.97125 8.89052C3.6975 9.78302 2.89875 10.0943 2.86875 10.1055C2.71875 10.158 2.62125 10.3005 2.62125 10.458V11.1443C2.40375 11.0205 2.24625 10.7993 2.24625 10.5705V8.81177C2.24625 8.24177 2.69625 7.78052 3.2475 7.78052C3.39 7.78052 3.52125 7.69802 3.585 7.57052C3.945 6.83177 4.66875 6.37427 5.47125 6.37427H5.99625C6.2025 6.37427 6.37125 6.20552 6.37125 5.99927C6.37125 5.79302 6.2025 5.62427 5.99625 5.62427H5.47125C4.45125 5.62427 3.52875 6.16427 3.015 7.04552C2.16 7.16177 1.49625 7.90802 1.49625 8.81177V10.5705C1.49625 11.2343 2.0325 11.8305 2.7 11.9693H2.70375ZM3.375 10.6943C3.6675 10.5368 4.155 10.203 4.48125 9.61052C5.09625 10.053 6.4125 10.7543 8.625 10.8255V11.1855C8.625 12.7868 7.4475 14.088 6 14.088C4.5525 14.088 3.375 12.7868 3.375 11.1855V10.6943Z" fill="white"/>
<path d="M9.5475 16.5292L8.01 16.143L7.50375 15.888V15.7192C7.50375 15.513 7.335 15.3442 7.12875 15.3442C6.9225 15.3442 6.75375 15.513 6.75375 15.7192V15.9667L6.00375 16.7167L5.25375 15.9667V15.7192C5.25375 15.513 5.085 15.3442 4.87875 15.3442C4.6725 15.3442 4.50375 15.513 4.50375 15.7192V15.888L3.9975 16.1392L2.45625 16.5217C1.45125 16.773 0.75 17.673 0.75 18.7042V18.7417C0.75 18.948 0.91875 19.098 1.125 19.098C1.33125 19.098 1.5 18.9105 1.5 18.7042C1.5 18.0142 1.96875 17.418 2.63625 17.2492L3.89625 16.9342L4.52625 18.5055C4.57125 18.6217 4.67625 18.708 4.8 18.7342C4.82625 18.738 4.84875 18.7417 4.875 18.7417C4.9725 18.7417 5.07 18.7042 5.14125 18.633L6 17.7742L6.85875 18.633C6.93 18.7042 7.02375 18.7417 7.125 18.7417C7.15125 18.7417 7.17375 18.7417 7.2 18.7342C7.32375 18.708 7.425 18.6217 7.47375 18.5055L8.10375 16.9342L9.3675 17.2492C10.035 17.418 10.5037 18.0142 10.5037 18.7042V21.7417C10.5037 21.948 10.6725 22.1167 10.8787 22.1167C11.085 22.1167 11.2537 21.948 11.2537 21.7417V18.7042C11.2537 17.6692 10.5525 16.773 9.55125 16.5217L9.5475 16.5292ZM5.01375 17.7067L4.60125 16.6792L4.8 16.578L5.4675 17.2455L5.01 17.703L5.01375 17.7067ZM6.99 17.7067L6.5325 17.2492L7.2 16.5817L7.39875 16.683L6.98625 17.7105L6.99 17.7067Z" fill="white"/>
<path d="M1.125 19.8743C0.91875 19.8743 0.75 20.043 0.75 20.2493V21.7493C0.75 21.9555 0.91875 22.1243 1.125 22.1243C1.33125 22.1243 1.5 21.9555 1.5 21.7493V20.2493C1.5 20.043 1.33125 19.8743 1.125 19.8743Z" fill="white"/>
<path d="M22.5 1.87427H11.25C11.0437 1.87427 10.875 2.04302 10.875 2.24927C10.875 2.45552 11.0437 2.62427 11.25 2.62427H22.5V3.37427H6.75V2.62427H9.75C9.95625 2.62427 10.125 2.45552 10.125 2.24927C10.125 2.04302 9.95625 1.87427 9.75 1.87427H6.75C6.3375 1.87427 6 2.21177 6 2.62427V3.37427C6 3.78677 6.3375 4.12427 6.75 4.12427H22.5C22.9125 4.12427 23.25 3.78677 23.25 3.37427V2.62427C23.25 2.21177 22.9125 1.87427 22.5 1.87427Z" fill="white"/>
<path d="M22.125 4.87427C21.9187 4.87427 21.75 5.04302 21.75 5.24927V11.6243C21.75 11.8305 21.9187 11.9993 22.125 11.9993C22.3313 11.9993 22.5 11.8305 22.5 11.6243V5.24927C22.5 5.04302 22.3313 4.87427 22.125 4.87427Z" fill="white"/>
<path d="M22.1248 12.7493C21.9186 12.7493 21.7498 12.918 21.7498 13.1243V15.7493C21.7498 16.1618 21.4123 16.4993 20.9998 16.4993H12.1948C11.9886 16.4993 11.8198 16.668 11.8198 16.8743C11.8198 17.0805 11.9886 17.2493 12.1948 17.2493H20.9998C21.8286 17.2493 22.4998 16.578 22.4998 15.7493V13.1243C22.4998 12.918 22.3311 12.7493 22.1248 12.7493Z" fill="white"/>
<path d="M13.5 11.6243H12.75C12.5429 11.6243 12.375 11.7922 12.375 11.9993V12.7493C12.375 12.9564 12.5429 13.1243 12.75 13.1243H13.5C13.7071 13.1243 13.875 12.9564 13.875 12.7493V11.9993C13.875 11.7922 13.7071 11.6243 13.5 11.6243Z" fill="white"/>
<path d="M15 12.7498H18.75C18.9563 12.7498 19.125 12.581 19.125 12.3748C19.125 12.1685 18.9563 11.9998 18.75 11.9998H15C14.7937 11.9998 14.625 12.1685 14.625 12.3748C14.625 12.581 14.7937 12.7498 15 12.7498Z" fill="white"/>
<path d="M13.5 13.8748H12.75C12.5429 13.8748 12.375 14.0426 12.375 14.2498V14.9998C12.375 15.2069 12.5429 15.3748 12.75 15.3748H13.5C13.7071 15.3748 13.875 15.2069 13.875 14.9998V14.2498C13.875 14.0426 13.7071 13.8748 13.5 13.8748Z" fill="white"/>
<path d="M15 14.9998H18.75C18.9563 14.9998 19.125 14.831 19.125 14.6248C19.125 14.4185 18.9563 14.2498 18.75 14.2498H15C14.7937 14.2498 14.625 14.4185 14.625 14.6248C14.625 14.831 14.7937 14.9998 15 14.9998Z" fill="white"/>
<path d="M15 19.1923V18.3748C15 18.1685 14.8312 17.9998 14.625 17.9998C14.4187 17.9998 14.25 18.1685 14.25 18.3748V19.1923C13.815 19.346 13.5 19.7585 13.5 20.2498C13.5 20.8685 14.0063 21.3748 14.625 21.3748C15.2437 21.3748 15.75 20.8685 15.75 20.2498C15.75 19.7623 15.435 19.3498 15 19.1923ZM14.625 20.6248C14.4187 20.6248 14.25 20.456 14.25 20.2498C14.25 20.0435 14.4187 19.8748 14.625 19.8748C14.8312 19.8748 15 20.0435 15 20.2498C15 20.456 14.8312 20.6248 14.625 20.6248Z" fill="white"/>
<path d="M13.5 10.4998C13.7062 10.4998 13.875 10.331 13.875 10.1248V7.12476C13.875 6.91851 13.7062 6.74976 13.5 6.74976H12C11.7937 6.74976 11.625 6.91851 11.625 7.12476V10.1248C11.625 10.331 11.7937 10.4998 12 10.4998H13.5ZM12.375 7.49976H13.125V9.74976H12.375V7.49976Z" fill="white"/>
<path d="M15 10.4998H16.5C16.7062 10.4998 16.875 10.331 16.875 10.1248V5.62476C16.875 5.41851 16.7062 5.24976 16.5 5.24976H15C14.7937 5.24976 14.625 5.41851 14.625 5.62476V10.1248C14.625 10.331 14.7937 10.4998 15 10.4998ZM15.375 5.99976H16.125V9.74976H15.375V5.99976Z" fill="white"/>
<path d="M19.5 10.4998C19.7062 10.4998 19.875 10.331 19.875 10.1248V8.24976C19.875 8.04351 19.7062 7.87476 19.5 7.87476H18C17.7937 7.87476 17.625 8.04351 17.625 8.24976V10.1248C17.625 10.331 17.7937 10.4998 18 10.4998H19.5ZM18.375 8.62476H19.125V9.74976H18.375V8.62476Z" fill="white"/>
</svg>
