<svg width="50" height="51" viewBox="0 0 50 51" fill="none" xmlns="http://www.w3.org/2000/svg">
<g clip-path="url(#clip0_897_1611)">
<path d="M25 50.2898C18.3865 50.2898 12.1687 47.6785 7.49222 42.937C2.81578 38.1956 0.240295 31.8913 0.240295 25.1859C0.240295 18.4805 2.81578 12.1762 7.49222 7.43477C12.1687 2.69332 18.3865 0.0820312 25 0.0820312C31.6134 0.0820312 37.8313 2.69332 42.5077 7.43477C47.1842 12.1762 49.7596 18.4805 49.7596 25.1859C49.7596 30.1411 48.3093 34.9603 45.5645 39.1222C44.971 40.0228 43.7696 40.2645 42.8814 39.6627C41.9935 39.0605 41.7548 37.8424 42.3487 36.9422C44.6661 33.4273 45.8909 29.3624 45.8909 25.1859C45.8909 13.5066 36.5192 4.00451 25 4.00451C13.4808 4.00451 4.10899 13.5066 4.10899 25.1859C4.10899 36.8652 13.4808 46.3673 25 46.3673C28.8207 46.3673 32.5579 45.3124 35.807 43.317C36.7205 42.7559 37.9099 43.052 38.4637 43.9786C39.0172 44.9048 38.7252 46.111 37.8113 46.6718C33.9577 49.0387 29.5276 50.2898 25 50.2898ZM22.8971 34.4325L32.5402 28.7682C33.8141 28.0197 34.575 26.6806 34.575 25.1859C34.575 23.6912 33.8141 22.3521 32.5398 21.6036L22.8971 15.9393C21.622 15.1905 20.0984 15.1886 18.8218 15.9348C17.5425 16.6821 16.779 18.0232 16.779 19.5217V30.8501C16.779 32.3486 17.5425 33.6897 18.8218 34.4371C19.4591 34.8094 20.1573 34.9952 20.8555 34.9952C21.5567 34.9956 22.2583 34.8079 22.8971 34.4325ZM20.9579 19.3332L30.6005 24.9974C30.6296 25.0147 30.7063 25.0595 30.7063 25.1859C30.7063 25.3123 30.6296 25.3571 30.6005 25.3744L20.9579 31.0386C20.9273 31.0562 20.8559 31.0984 20.7538 31.0386C20.6477 30.9765 20.6477 30.8881 20.6477 30.8501V19.5217C20.6477 19.4838 20.6477 19.3953 20.7538 19.3332C20.7931 19.3102 20.8279 19.3026 20.8574 19.3026C20.9046 19.3022 20.939 19.3225 20.9579 19.3332Z" fill="white"/>
</g>
<defs>
<clipPath id="clip0_897_1611">
<rect width="49.5193" height="50.2077" fill="white" transform="translate(0.240295 0.0820312)"/>
</clipPath>
</defs>
</svg>
