<svg width="24" height="24" viewBox="0 0 24 24" fill="none" xmlns="http://www.w3.org/2000/svg">
<path d="M5.46967 4.25466H2.37799C2.17089 4.25466 2.00299 4.42256 2.00299 4.62966V7.7213C2.00299 7.92839 2.17089 8.0963 2.37799 8.0963H5.46963C5.67672 8.0963 5.84463 7.92839 5.84463 7.7213V4.62966C5.84467 4.42256 5.67672 4.25466 5.46967 4.25466ZM5.09467 7.3463H2.75299V5.00466H5.09463L5.09467 7.3463ZM5.46967 9.29278H2.37799C2.17089 9.29278 2.00299 9.46069 2.00299 9.66778V12.7594C2.00299 12.9665 2.17089 13.1344 2.37799 13.1344H5.46963C5.67672 13.1344 5.84463 12.9665 5.84463 12.7594V9.66778C5.84467 9.46069 5.67672 9.29278 5.46967 9.29278ZM5.09467 12.3844H2.75299V10.0428H5.09463L5.09467 12.3844ZM5.46967 14.331H2.37799C2.17089 14.331 2.00299 14.4989 2.00299 14.706V17.7976C2.00299 18.0047 2.17089 18.1726 2.37799 18.1726H5.46963C5.67672 18.1726 5.84463 18.0047 5.84463 17.7976V14.706C5.84467 14.4989 5.67672 14.331 5.46967 14.331ZM5.09467 17.4226H2.75299V15.081H5.09463L5.09467 17.4226ZM6.74767 5.33578C6.74767 5.12869 6.91558 4.96078 7.12267 4.96078H13.7363C13.9434 4.96078 14.1113 5.12869 14.1113 5.33578C14.1113 5.54288 13.9434 5.71078 13.7363 5.71078H7.12267C6.91558 5.71078 6.74767 5.54288 6.74767 5.33578ZM6.74767 7.01513C6.74767 6.80803 6.91558 6.64013 7.12267 6.64013H11.2487C11.4558 6.64013 11.6237 6.80803 11.6237 7.01513C11.6237 7.22222 11.4558 7.39013 11.2487 7.39013H7.12267C6.91558 7.39013 6.74767 7.22222 6.74767 7.01513ZM6.74767 10.374C6.74767 10.1669 6.91558 9.99895 7.12267 9.99895H10.6422C10.8493 9.99895 11.0172 10.1669 11.0172 10.374C11.0172 10.581 10.8493 10.749 10.6422 10.749H7.12267C6.91558 10.749 6.74767 10.581 6.74767 10.374ZM6.74767 12.0533C6.74767 11.8462 6.91558 11.6783 7.12267 11.6783H10.676C10.8831 11.6783 11.051 11.8462 11.051 12.0533C11.051 12.2604 10.8831 12.4283 10.676 12.4283H7.12267C6.91558 12.4283 6.74767 12.2604 6.74767 12.0533ZM14.1113 17.0915C14.1113 17.2986 13.9434 17.4665 13.7363 17.4665H7.12267C6.91558 17.4665 6.74767 17.2986 6.74767 17.0915C6.74767 16.8844 6.91558 16.7165 7.12267 16.7165H13.7363C13.9434 16.7165 14.1113 16.8844 14.1113 17.0915ZM14.1113 15.4121C14.1113 15.6192 13.9434 15.7871 13.7363 15.7871H7.12267C6.91558 15.7871 6.74767 15.6192 6.74767 15.4121C6.74767 15.205 6.91558 15.0371 7.12267 15.0371H13.7363C13.9434 15.0371 14.1113 15.205 14.1113 15.4121ZM23.4375 12.0726L22.8627 11.7408V8.92884L22.9851 8.89631C23.1495 8.85267 23.2638 8.70394 23.2638 8.53392C23.2638 8.36391 23.1495 8.21513 22.9851 8.17153L16.6732 6.49486V3.43739C16.6732 3.3255 16.6505 3.21961 16.6075 3.1223C16.6062 3.11934 16.6054 3.1162 16.604 3.11325C16.6007 3.10608 16.5967 3.09923 16.5932 3.0922C16.5878 3.08133 16.5825 3.07045 16.5766 3.05986C16.5707 3.04917 16.5641 3.03886 16.5577 3.02845C16.5513 3.01828 16.5453 3.00802 16.5384 2.99813C16.5307 2.98692 16.5222 2.97619 16.5139 2.96531C16.5074 2.95678 16.5012 2.94811 16.4943 2.93981C16.4786 2.92097 16.462 2.90264 16.4444 2.88497L14.1632 0.603844C14.1455 0.586078 14.127 0.569438 14.108 0.553594C14.1007 0.5475 14.093 0.542109 14.0855 0.536297C14.0737 0.527109 14.0619 0.517875 14.0496 0.509484C14.0404 0.503109 14.0308 0.497437 14.0214 0.491531C14.0103 0.484641 13.9993 0.477656 13.9879 0.471328C13.9777 0.465656 13.9673 0.460594 13.9569 0.455391C13.9495 0.451734 13.9424 0.447516 13.9349 0.444094C13.9319 0.442687 13.9286 0.441844 13.9255 0.440484C13.8283 0.397688 13.7226 0.375 13.6108 0.375H1.15624C0.725454 0.375 0.374969 0.725484 0.374969 1.15627V20.4956C0.374969 20.9264 0.725454 21.2769 1.15624 21.2769H8.79724C8.92863 21.5616 9.076 21.8467 9.23927 22.1295C9.5245 22.6235 9.83922 23.0807 10.1747 23.4883C10.2391 23.5665 10.3324 23.6153 10.4335 23.6237C10.4438 23.6246 10.454 23.625 10.4643 23.625C10.5546 23.625 10.6423 23.5923 10.7109 23.5325C10.8571 23.4049 11.0086 23.2761 11.163 23.1476C11.2368 23.2288 11.3383 23.2705 11.4406 23.2705C11.5245 23.2705 11.6088 23.2425 11.6783 23.1854C12.4141 22.5817 13.2121 21.9914 14.0558 21.4241C14.0654 21.5472 14.135 21.659 14.2442 21.7211C14.368 21.7914 14.521 21.7856 14.6392 21.706L15.107 21.3905L15.565 21.7203C15.6299 21.7671 15.7068 21.791 15.7841 21.791C15.8389 21.791 15.894 21.779 15.9453 21.7546C16.0688 21.6958 16.1505 21.5744 16.1585 21.4378L16.171 21.2245C16.4423 21.1203 16.6413 20.8696 16.6695 20.5693L17.2008 20.836C17.254 20.8627 17.3115 20.8759 17.369 20.8759C17.4437 20.8759 17.518 20.8536 17.5817 20.8098C17.6943 20.7323 17.7558 20.5995 17.7422 20.4633L17.6855 19.9019L18.1927 19.6544C18.3207 19.592 18.4023 19.4624 18.4032 19.3199C18.4041 19.1944 18.3421 19.0781 18.2403 19.0083C19.1534 18.5612 20.0636 18.1653 20.9543 17.83C21.1413 17.7595 21.24 17.5549 21.1792 17.3648C21.3678 17.2953 21.5551 17.2284 21.7386 17.1657C21.8345 17.1329 21.913 17.0627 21.9563 16.971C21.9996 16.8794 22.004 16.7742 21.9684 16.6793C21.7832 16.1849 21.5446 15.6838 21.2594 15.1898C20.9741 14.6956 20.6593 14.2385 20.324 13.831C20.2596 13.7528 20.1663 13.704 20.0652 13.6956C19.9641 13.6871 19.8642 13.7201 19.7878 13.7868C19.6416 13.9144 19.4901 14.0431 19.3357 14.1717C19.2015 14.024 18.9748 14.0071 18.8204 14.1339C18.1472 14.6863 17.4295 15.2229 16.6732 15.7403V13.8145C17.2346 13.7731 17.8798 13.65 18.9402 13.445C19.4515 13.3462 20.0879 13.2232 20.8595 13.0821C21.0377 13.0495 21.1671 12.8943 21.1671 12.7132V9.37927L22.1127 9.12806V11.7408L21.538 12.0726C21.4219 12.1396 21.3505 12.2633 21.3505 12.3974V14.7222C21.3505 14.8643 21.4308 14.9943 21.558 15.0577C21.6851 15.1212 21.8373 15.1073 21.9509 15.0219L22.4877 14.6182L23.0246 15.0219C23.0909 15.0717 23.1702 15.0972 23.2501 15.0972C23.3072 15.0972 23.3645 15.0841 23.4175 15.0577C23.5447 14.9942 23.625 14.8643 23.625 14.7222V12.3973C23.625 12.2633 23.5535 12.1396 23.4375 12.0726ZM14.1541 1.65534L15.3929 2.89411H14.1541V1.65534ZM9.88881 21.7545C9.69269 21.4149 9.5207 21.0725 9.37534 20.7326C9.44561 20.7074 9.51639 20.6813 9.58722 20.6551C9.73009 20.985 9.89711 21.318 10.084 21.6418C10.271 21.9656 10.4759 22.2768 10.6901 22.5654C10.6321 22.6137 10.5741 22.6619 10.5171 22.7102C10.2954 22.4143 10.0849 22.0942 9.88881 21.7545ZM11.489 22.3738C11.221 22.0419 10.9634 21.6649 10.7336 21.2669C10.5039 20.8689 10.3061 20.4573 10.1527 20.0593C11.3278 19.5999 12.5179 19.0483 13.7059 18.4132C13.6931 18.4936 13.6863 18.5759 13.6863 18.6597C13.6863 19.0912 13.862 19.4823 14.1456 19.7654L14.1047 20.4929C14.0575 20.5236 14.0102 20.5541 13.9632 20.5849C13.9583 20.588 13.9535 20.591 13.9488 20.5943C13.0792 21.1655 12.254 21.7621 11.489 22.3738ZM15.2493 19.4727C14.801 19.4727 14.4363 19.108 14.4363 18.6597C14.4363 18.2114 14.801 17.8466 15.2493 17.8466C15.6976 17.8466 16.0623 18.2113 16.0623 18.6597C16.0623 19.108 15.6976 19.4727 15.2493 19.4727ZM14.9044 20.6226L14.8464 20.6617L14.8737 20.1768C14.9941 20.2066 15.1198 20.2227 15.2493 20.2227C15.3274 20.2227 15.4041 20.2168 15.4791 20.2057L15.4495 20.7129L15.3333 20.6292C15.2057 20.5374 15.0346 20.5348 14.9044 20.6226ZM17.1217 19.3425C16.9806 19.4113 16.8973 19.5608 16.913 19.7171L16.9274 19.8596L16.4725 19.6312C16.5206 19.5707 16.5643 19.5066 16.6032 19.4393C16.6217 19.4134 16.6372 19.3851 16.6488 19.3549C16.6903 19.2714 16.7246 19.1838 16.7509 19.0928L17.1847 19.3118L17.1217 19.3425ZM20.6098 15.5648C20.8059 15.9043 20.9778 16.2467 21.1233 16.5868C21.053 16.612 20.9822 16.6381 20.9114 16.6642C20.7685 16.3343 20.6015 16.0013 20.4145 15.6775C20.2276 15.3537 20.0227 15.0426 19.8085 14.7539C19.8664 14.7056 19.9244 14.6573 19.9814 14.6091C20.2032 14.905 20.4137 15.2251 20.6098 15.5648ZM19.0097 14.9456C19.2777 15.2775 19.5353 15.6545 19.765 16.0525C19.9948 16.4505 20.1925 16.8621 20.346 17.2601C19.3795 17.6381 18.394 18.0832 17.4092 18.585L16.7596 18.2571C16.6299 17.7712 16.2716 17.378 15.8074 17.1999C16.9514 16.4887 18.0242 15.7338 19.0097 14.9456ZM14.3917 17.1744C12.7729 18.109 11.142 18.8879 9.54438 19.4894C9.35725 19.5598 9.25858 19.7645 9.31942 19.9546C9.13061 20.0242 8.94334 20.091 8.76002 20.1537C8.66416 20.1865 8.58564 20.2567 8.54233 20.3483C8.51575 20.4046 8.50399 20.466 8.50698 20.5269H1.15624C1.13959 20.5269 1.12497 20.5123 1.12497 20.4957V1.15627C1.12497 1.13963 1.13959 1.125 1.15624 1.125H13.4041V3.06595C13.4041 3.38475 13.6634 3.64411 13.9822 3.64411H15.9232V6.4733L9.53027 8.17148C9.36592 8.21513 9.25155 8.36386 9.25155 8.53387C9.25155 8.70389 9.36592 8.85267 9.53027 8.89627L11.3484 9.37922V12.7132C11.3484 12.8942 11.4778 13.0495 11.656 13.082C12.4276 13.2232 13.0639 13.3462 13.5753 13.445C14.6869 13.6599 15.3423 13.7848 15.9232 13.8199V16.2387C15.4271 16.5592 14.9163 16.8715 14.3917 17.1744ZM20.417 12.4009C19.7786 12.5191 19.2414 12.6229 18.7978 12.7087C16.2577 13.1998 16.2577 13.1998 13.7176 12.7087C13.2741 12.6229 12.7368 12.519 12.0984 12.4009V9.57848L16.1614 10.6577C16.193 10.6661 16.2253 10.6703 16.2577 10.6703C16.2901 10.6703 16.3225 10.6661 16.354 10.6577L20.4171 9.57848V12.4009H20.417ZM16.2577 9.90731L11.0872 8.53387L16.2577 7.16039L21.4282 8.53387L16.2577 9.90731ZM22.875 13.971L22.7131 13.8493C22.6463 13.7991 22.567 13.774 22.4877 13.774C22.4083 13.774 22.3291 13.7991 22.2623 13.8493L22.1005 13.971V12.6138L22.4877 12.3902L22.875 12.6139V13.971Z" fill="white"/>
</svg>
