<svg width="238" height="245" viewBox="0 0 238 245" fill="none" xmlns="http://www.w3.org/2000/svg">
<path opacity="0.3" d="M233.042 0V0.5H237.5V5.10449H238V15.3125H237.5V25.5205H238V35.7295H237.5V45.9375H238V56.1455H237.5V66.3545H238V76.5625H237.5V86.7705H238V96.9795H237.5V107.188H238V117.396H237.5V127.604H238V137.812H237.5V148.021H238V158.229H237.5V168.438H238V178.646H237.5V188.854H238V199.062H237.5V209.271H238V219.479H237.5V229.688H238V239.896H237.5V244.5H232.714V245H222.143V244.5H211.571V245H201V244.5H190.429V245H179.857V244.5H169.286V245H158.714V244.5H148.143V245H137.571V244.5H127V245H116.429V244.5H105.857V245H95.2861V244.5H90C88.3148 244.5 86.6406 244.453 84.9785 244.361L84.9512 244.858C81.5527 244.67 78.2046 244.295 74.917 243.74L75 243.249C71.6715 242.687 68.4056 241.942 65.2129 241.023L65.0752 241.502C61.8203 240.566 58.6411 239.451 55.5488 238.169L55.7402 237.709C52.6349 236.421 49.6176 234.963 46.7002 233.348L46.458 233.783C43.5052 232.148 40.6536 230.352 37.916 228.406L38.2061 227.999C35.4739 226.057 32.8552 223.966 30.3623 221.736L30.0283 222.107C27.5187 219.863 25.1358 217.48 22.8916 214.971L23.2637 214.638C21.0344 212.145 18.943 209.526 17.001 206.794L16.5928 207.083C14.6469 204.345 12.8512 201.494 11.2158 198.541L11.6523 198.3C10.0365 195.382 8.57877 192.365 7.29102 189.26L6.83008 189.45C5.5479 186.358 4.43315 183.179 3.49707 179.925L3.97656 179.787C3.05827 176.594 2.3126 173.328 1.75098 170L1.25879 170.082C0.704096 166.794 0.328514 163.446 0.140625 160.048L0.638672 160.021C0.546758 158.359 0.5 156.685 0.5 155V150.156H0V140.469H0.5V130.781H0V121.094H0.5V111.406H0V101.719H0.5V92.0312H0V82.3438H0.5V72.6562H0V62.9688H0.5V53.2812H0V43.5938H0.5V33.9062H0V24.2188H0.5V14.5312H0V4.84375H0.5V0.5H4.95801V0H14.875V0.5H24.792V0H34.708V0.5H44.625V0H54.542V0.5H64.458V0H74.375V0.5H84.292V0H94.208V0.5H104.125V0H114.042V0.5H123.958V0H133.875V0.5H143.792V0H153.708V0.5H163.625V0H173.542V0.5H183.458V0H193.375V0.5H203.292V0H213.208V0.5H223.125V0H233.042Z" stroke="url(#paint0_linear_897_552)" stroke-dasharray="10 10"/>
<defs>
<linearGradient id="paint0_linear_897_552" x1="36.6781" y1="-425.966" x2="509.644" y2="377.676" gradientUnits="userSpaceOnUse">
<stop stop-color="#EAC035"/>
<stop offset="1" stop-color="#BE8936"/>
</linearGradient>
</defs>
</svg>
