<svg width="216" height="40" viewBox="0 0 216 40" fill="none" xmlns="http://www.w3.org/2000/svg">
<path d="M42.6456 0C32.7316 0 29.9568 6.29671 29.9568 14.865C29.9568 24.7325 34.4046 31.7727 43.6652 31.7727C47.0934 31.7727 49.687 31.3554 51.9562 30.5195V28.5281C50.7543 28.9919 49.086 29.6883 45.9857 29.6883C35.8403 29.6883 34.5406 20.4719 34.5406 14.4966C34.5406 9.72499 35.1463 1.80298 42.5991 1.80298C48.3479 1.80322 50.195 5.97153 50.802 8.56665H51.9562L51.5425 1.29321C49.4998 0.740151 46.3529 0 42.6456 0ZM70.4845 0C64.6546 0 60.0661 2.26863 60.0661 7.82543C60.0661 10.7934 61.0403 12.4557 63.0758 14.0297C67.3829 17.3197 75.0742 18.8496 75.0742 23.8483C75.0742 27.0477 72.4329 29.6853 68.3571 29.6853C63.4001 29.6853 61.2239 26.8151 60.8555 24.3587H59.694L60.0196 30.8921C61.1798 31.0781 64.8359 31.7721 67.9851 31.7721C74.3253 31.7721 79.4254 28.9913 79.4254 23.1102C79.4254 18.7089 76.9726 16.8129 73.3141 14.682C69.2849 12.3209 63.7698 10.9759 63.7698 6.85418C63.7698 3.79556 66.5029 1.80501 69.608 1.80501C74.5614 1.80501 76.4169 4.6794 76.8354 7.13142H77.9921L77.6713 0.784868C75.5834 0.370493 73.5932 0 70.4845 0ZM0.679871 0.463504V1.38574C3.23171 1.38574 4.71141 1.71068 4.71141 5.18666V20.6121C4.71141 27.142 6.19684 31.7722 15.7816 31.7722C25.4166 31.7722 26.3431 26.956 26.3431 20.6121V5.18666C26.3431 1.7108 27.8253 1.38586 30.3724 1.38586V0.463623H19.6749V1.38586C22.1743 1.38586 23.6994 1.7108 23.6994 5.18678V20.6123C23.6994 26.1226 22.6394 29.9622 15.9629 29.9622C9.94685 29.9622 8.8337 25.3355 8.8337 20.6123V5.18678C8.8337 1.71092 10.3632 1.38598 12.8625 1.38598V0.463742L0.679871 0.463504ZM124.825 0.463504V1.38801C127.33 1.38801 128.856 1.71068 128.856 5.18666V26.5827C128.856 30.0551 127.33 30.3795 124.825 30.3795V31.3108H135.665C142.939 31.3108 151.512 29.6878 151.512 15.933C151.512 2.13042 143.356 0.463384 135.665 0.463384L124.825 0.463504ZM135.665 2.26839C144.465 2.26839 146.921 7.40819 146.921 15.9326C146.921 25.2409 143.63 29.5015 135.665 29.5015C133.351 29.5015 132.982 28.9923 132.982 25.6117V6.16053C132.982 2.54683 133.351 2.26839 135.665 2.26839ZM157.808 3.45619C156.497 3.45619 155.459 4.48467 155.459 5.80387C155.459 7.12296 156.497 8.15144 157.808 8.15144C159.132 8.15144 160.158 7.12296 160.158 5.80387C160.158 4.48467 159.132 3.45619 157.808 3.45619ZM196.742 8.56367C194.226 8.56367 193.248 11.4099 192.592 12.972C191.269 12.2732 190.231 11.9453 188.335 11.9453C184.424 11.9453 180.56 13.0972 180.56 18.4108C180.56 21.913 181.991 23.1495 182.945 23.9306C182.492 24.4279 181.169 25.9923 181.169 27.5175C181.169 29.2501 182.242 30.0312 182.945 30.4402C181.622 31.102 179.738 32.2121 179.738 34.7675C179.738 38.4737 183.935 40 187.965 40C193.451 40 198.065 37.3659 198.065 32.6688C198.065 28.097 193.486 28.0135 191.519 28.0135H186.654C185.33 28.0135 183.279 28.0135 183.279 26.362C183.279 25.4569 183.768 24.8381 184.018 24.5101C184.913 24.9203 186.117 25.1302 187.763 25.1302C192.711 25.1302 195.299 22.7787 195.299 18.6183C195.299 15.7325 193.94 14.2062 193.451 13.6708C193.653 13.0138 194.023 11.8177 194.929 11.8177C195.466 11.8177 195.716 12.3973 196.79 12.3973C198.018 12.3973 198.721 11.6556 198.721 10.5387C198.721 9.30454 197.899 8.56367 196.742 8.56367ZM88.8016 11.9453C85.9565 11.9453 81.9641 13.3035 81.9641 15.9818C81.9641 17.0931 82.8251 17.8372 83.9388 17.8372C84.6424 17.8372 85.8766 17.3817 85.8766 15.6932C85.8766 14.3731 86.2069 13.3035 88.7623 13.3035C92.2204 13.3035 92.2645 16.349 92.2645 19.2347V20.798C89.1343 21.0902 81.3858 21.089 81.3858 27.0632C81.3858 29.7402 83.4845 31.7185 86.3261 31.7185C89.1331 31.7185 90.9063 30.5689 92.1763 28.7147H92.2645C92.2645 30.4867 92.9657 31.7185 95.3577 31.7185C96.8363 31.7185 97.8666 31.4716 98.3603 31.3488V30.4867C97.9918 30.5689 97.6174 30.65 97.2489 30.65C95.967 30.65 95.4769 30.1552 95.4769 28.7147V18.4919C95.4769 14.6617 94.4467 11.9453 88.8016 11.9453ZM105.613 11.9453L99.2677 12.9327V13.6338C100.459 13.7161 102.398 13.8389 102.398 16.3121V27.5616C102.398 30.2398 100.994 30.6071 99.2677 30.6071V31.3106H108.743V30.6071C107.008 30.6071 105.613 30.2398 105.613 27.5616V22.4889C105.613 18.5729 108.58 13.92 111.006 13.92C113.731 13.92 113.769 15.5274 113.769 19.0726V27.5616C113.769 30.2398 112.366 30.6071 110.638 30.6071V31.3106H120.115V30.6071C118.385 30.6071 116.985 30.2398 116.985 27.5616V18.1663C116.985 14.3326 116.574 11.9453 112.203 11.9453C108.122 11.9453 106.271 15.8565 105.696 17.3817H105.613V11.9453ZM159.538 11.9453L153.194 12.9327V13.6338C154.434 13.7161 156.33 13.8389 156.33 16.3121V27.5616C156.33 30.2398 154.923 30.6071 153.194 30.6071V31.3106H162.674V30.6071C160.945 30.6071 159.538 30.2398 159.538 27.5616V11.9453ZM171.08 11.9453C165.142 11.9453 162.709 15.277 162.709 21.2941C162.709 28.2151 166.299 31.7185 172.678 31.7185C175.194 31.7185 176.601 31.3488 177.591 30.9756V29.6603C176.756 30.0717 175.647 30.1957 174.705 30.1957C167.813 30.1957 166.132 23.1507 166.132 19.6891H178.128V18.7804C178.128 14.0023 174.777 11.9453 171.08 11.9453ZM206.711 11.9453C201.44 11.9453 198.101 15.6491 198.101 21.8319C198.101 28.0123 201.44 31.7185 206.711 31.7185C211.993 31.7185 215.32 28.0123 215.32 21.8319C215.32 15.6491 211.993 11.9453 206.711 11.9453ZM170.544 13.3035C173.716 13.3035 174.455 16.1451 174.455 18.3297H166.132C166.132 16.8045 167.408 13.3035 170.544 13.3035ZM187.846 13.3035C190.815 13.3035 191.889 15.7755 191.889 18.8627C191.889 21.0508 191.435 23.7672 187.965 23.7672C184.996 23.7672 183.971 21.2154 183.971 18.084C183.971 15.6944 184.591 13.3035 187.846 13.3035ZM206.711 13.3035C210.837 13.3035 211.659 18.4108 211.659 21.8319C211.659 25.253 210.837 30.3579 206.711 30.3579C202.597 30.3579 201.774 25.253 201.774 21.8319C201.774 18.4108 202.597 13.3035 206.711 13.3035ZM92.2645 22.1598V24.5924C92.2645 27.3923 90.5343 29.9906 87.856 29.9906C86.4549 29.9906 85.0514 28.5489 85.0514 26.4085C85.0514 22.5748 90.3268 22.2039 92.2645 22.1598ZM184.388 30.9386H191.59C193.665 30.9386 195.382 31.6386 195.382 33.7397C195.382 36.7065 191.924 38.643 188.18 38.643C184.591 38.643 182.409 36.5419 182.409 34.1105C182.409 32.2563 183.565 31.5551 184.388 30.9386Z" fill="#182B49"/>
</svg>
