<svg width="210" height="40" viewBox="0 0 210 40" fill="none" xmlns="http://www.w3.org/2000/svg">
<g clip-path="url(#clip0_897_924)">
<path d="M74.2101 31.9802C74.2101 31.2754 74.1911 29.9612 74.0014 29.6183C73.9256 29.485 73.7169 29.4088 73.4323 29.3707L73.1478 29.3516C73.0719 29.2754 73.1098 29.1231 73.1667 29.085C73.6031 29.104 74.0204 29.1231 74.4567 29.1231C74.931 29.1231 75.2345 29.104 75.6519 29.085C75.7467 29.1421 75.7278 29.2945 75.6709 29.3516L75.4053 29.3707C75.1207 29.3897 74.912 29.504 74.8361 29.6373C74.6844 30.0183 74.6844 31.3326 74.6844 31.9612V33.2564C74.6844 34.2469 74.5326 35.2945 73.8876 35.9802C73.3944 36.5135 72.5597 36.8183 71.706 36.8183C70.9282 36.8183 70.1314 36.6659 69.5813 36.1897C68.9742 35.6945 68.6896 34.8564 68.6896 33.485V30.7802C68.6896 29.5993 68.6707 29.3897 68.0067 29.3326L67.7221 29.3135C67.6462 29.2754 67.6842 29.0659 67.7411 29.0469C68.3102 29.0659 68.6896 29.085 69.1449 29.085C69.6192 29.085 69.9796 29.0659 70.5488 29.0469C70.6246 29.085 70.6436 29.2754 70.5677 29.3135L70.3021 29.3326C69.6382 29.3897 69.6192 29.5802 69.6192 30.7802V33.2564C69.6192 35.104 70.1883 36.304 71.9336 36.304C73.5841 36.304 74.2101 35.0088 74.2101 33.2564V31.9802Z" fill="#002D72"/>
<path d="M89.083 34.705C89.083 35.0478 89.083 36.4002 89.1209 36.705C89.102 36.7812 89.0261 36.8383 88.9123 36.8383C88.7795 36.6478 88.438 36.2478 87.4515 35.105L84.8146 32.0955C84.511 31.7336 83.7332 30.8002 83.4866 30.5526H83.4677C83.4297 30.6859 83.4107 30.9526 83.4107 31.2955V33.7907C83.4107 34.324 83.4297 35.8097 83.6194 36.1526C83.6953 36.2859 83.923 36.3431 84.2075 36.3621L84.568 36.4002C84.6438 36.4955 84.6249 36.6288 84.549 36.6859C84.0368 36.6669 83.6384 36.6478 83.221 36.6478C82.7468 36.6478 82.4432 36.6669 82.0448 36.6859C81.969 36.6288 81.95 36.4764 82.0259 36.4002L82.3294 36.3621C82.595 36.324 82.7657 36.2669 82.8226 36.1336C82.9744 35.7336 82.9744 34.324 82.9744 33.7717V30.4764C82.9744 30.1526 82.9554 29.924 82.7278 29.6574C82.576 29.505 82.2915 29.4097 82.0259 29.3907L81.8362 29.3717C81.7603 29.2955 81.7603 29.124 81.8551 29.0859C82.3294 29.124 82.9365 29.124 83.1451 29.124C83.3349 29.124 83.5246 29.105 83.6763 29.0859C83.904 29.6764 85.2509 31.1812 85.6303 31.6002L86.7306 32.8383C87.5084 33.7145 88.0775 34.3621 88.6087 34.9145H88.6277C88.6656 34.8574 88.6656 34.6669 88.6656 34.4383V32.0002C88.6656 31.4669 88.6467 29.9812 88.438 29.6383C88.3621 29.524 88.1914 29.4669 87.7361 29.4097L87.5464 29.3907C87.4705 29.3145 87.4705 29.1431 87.5653 29.105C88.0965 29.124 88.4759 29.1431 88.9123 29.1431C89.4055 29.1431 89.6901 29.124 90.0884 29.105C90.1833 29.1621 90.1833 29.3145 90.1074 29.3907L89.9556 29.4097C89.5952 29.4669 89.3676 29.5621 89.3106 29.6574C89.1209 30.0764 89.1399 31.4859 89.1399 32.0193V34.705H89.083Z" fill="#002D72"/>
<path d="M97.5635 30.8378C97.5635 29.6188 97.5446 29.4283 96.8616 29.3712L96.5771 29.3521C96.5012 29.314 96.5391 29.1045 96.596 29.0664C97.1652 29.0855 97.5446 29.1045 98.0378 29.1045C98.4931 29.1045 98.8725 29.0855 99.4416 29.0664C99.5175 29.1045 99.5365 29.314 99.4606 29.3521L99.176 29.3712C98.5121 29.4283 98.4741 29.6188 98.4741 30.8378V34.914C98.4741 36.1331 98.4931 36.2855 99.176 36.3616L99.4606 36.3997C99.5365 36.4378 99.4986 36.6474 99.4416 36.6855C98.8725 36.6664 98.4931 36.6474 98.0378 36.6474C97.5635 36.6474 97.1652 36.6664 96.596 36.6855C96.5201 36.6474 96.5012 36.4759 96.5771 36.3997L96.8616 36.3616C97.5256 36.2855 97.5635 36.114 97.5635 34.914V30.8378Z" fill="#002D72"/>
<path d="M106.783 30.324C106.518 29.6764 106.347 29.4478 105.854 29.3907L105.645 29.3717C105.569 29.2955 105.569 29.1431 105.664 29.0859C105.986 29.105 106.366 29.124 106.84 29.124C107.333 29.124 107.732 29.105 108.225 29.0859C108.301 29.124 108.32 29.2955 108.244 29.3717L108.073 29.3907C107.637 29.4478 107.542 29.524 107.542 29.6002C107.561 29.7145 107.751 30.324 108.111 31.2002C108.642 32.5336 109.155 33.8478 109.724 35.1431C110.065 34.3812 110.558 33.2193 110.824 32.6097C111.147 31.8288 111.697 30.5336 111.886 30.0574C111.981 29.8097 111.981 29.6955 111.981 29.6193C111.981 29.5431 111.867 29.4478 111.469 29.4097L111.26 29.3907C111.184 29.3145 111.203 29.1431 111.279 29.105C111.602 29.124 112.038 29.1431 112.456 29.1431C112.835 29.1431 113.176 29.124 113.556 29.105C113.632 29.1431 113.632 29.3336 113.575 29.3907L113.233 29.4097C112.968 29.4288 112.797 29.5621 112.645 29.8097C112.323 30.3431 111.886 31.2764 111.374 32.4383L110.767 33.8478C110.312 34.8955 109.781 36.2288 109.591 36.8383C109.553 36.8574 109.515 36.8764 109.477 36.8764C109.42 36.8764 109.363 36.8574 109.306 36.8383C109.174 36.3621 108.984 35.7907 108.775 35.3145L106.783 30.324Z" fill="#002D72"/>
<path d="M120.498 30.8188C120.498 29.6188 120.479 29.4474 119.796 29.3712L119.607 29.3521C119.531 29.314 119.569 29.1045 119.626 29.0664C120.119 29.0855 120.498 29.1045 120.973 29.1045H123.116C123.837 29.1045 124.52 29.1045 124.653 29.0664C124.729 29.2569 124.786 30.0759 124.843 30.5902C124.805 30.6664 124.615 30.6855 124.558 30.6093C124.387 30.0759 124.292 29.6759 123.685 29.5236C123.439 29.4664 123.078 29.4474 122.585 29.4474H121.769C121.428 29.4474 121.428 29.4664 121.428 29.9045V32.1902C121.428 32.514 121.466 32.514 121.807 32.514H122.471C122.945 32.514 123.306 32.495 123.439 32.4378C123.571 32.3997 123.647 32.3236 123.704 32.0378L123.799 31.5616C123.856 31.4855 124.046 31.4855 124.084 31.5807C124.084 31.8474 124.046 32.3045 124.046 32.7426C124.046 33.1616 124.084 33.5807 124.084 33.8283C124.046 33.9045 123.837 33.9045 123.799 33.8474L123.685 33.4093C123.647 33.1997 123.571 33.0283 123.344 32.9712C123.192 32.9331 122.908 32.914 122.471 32.914H121.807C121.466 32.914 121.428 32.9331 121.428 33.2188V34.8378C121.428 35.4474 121.466 35.8283 121.636 36.0188C121.769 36.1521 122.016 36.2855 123.021 36.2855C123.894 36.2855 124.235 36.2474 124.482 36.114C124.691 35.9997 124.994 35.5997 125.298 35.0093C125.374 34.9521 125.544 34.9902 125.582 35.0855C125.507 35.4855 125.222 36.3616 125.07 36.6664C124.046 36.6474 123.04 36.6283 122.016 36.6283H120.991C120.498 36.6283 120.119 36.6474 119.436 36.6664C119.36 36.6283 119.341 36.4569 119.417 36.3807L119.796 36.3426C120.441 36.2855 120.498 36.114 120.498 34.914V30.8188Z" fill="#002D72"/>
<path d="M132.83 30.8383C132.83 29.7526 132.792 29.5621 132.337 29.505L131.976 29.4669C131.9 29.4097 131.9 29.2193 131.995 29.1812C132.621 29.124 133.418 29.0859 134.537 29.0859C135.239 29.0859 135.922 29.1431 136.434 29.4288C136.984 29.7145 137.383 30.2288 137.383 31.0288C137.383 32.1145 136.529 32.705 135.96 32.9336C135.903 33.0097 135.96 33.124 136.017 33.2002C136.928 34.6669 137.535 35.5812 138.312 36.2478C138.502 36.4193 138.787 36.5526 139.09 36.5717C139.147 36.5907 139.166 36.6859 139.109 36.724C139.014 36.7621 138.825 36.7812 138.616 36.7812C137.648 36.7812 137.06 36.4955 136.264 35.3336C135.96 34.9145 135.505 34.1145 135.144 33.6002C134.974 33.3526 134.784 33.2383 134.329 33.2383C133.816 33.2383 133.797 33.2574 133.797 33.4859V34.9336C133.797 36.1336 133.816 36.2669 134.48 36.3621L134.708 36.4002C134.784 36.4574 134.746 36.6478 134.689 36.6859C134.177 36.6669 133.797 36.6478 133.342 36.6478C132.868 36.6478 132.45 36.6669 131.919 36.6859C131.843 36.6478 131.824 36.4764 131.9 36.4002L132.185 36.3621C132.849 36.2859 132.868 36.1336 132.868 34.9336V30.8383H132.83ZM133.759 32.4764C133.759 32.6859 133.759 32.8002 133.797 32.8574C133.835 32.8955 134.006 32.9145 134.575 32.9145C134.993 32.9145 135.41 32.8764 135.751 32.6097C136.055 32.3621 136.32 31.9621 136.32 31.2002C136.32 30.305 135.77 29.4478 134.499 29.4478C133.797 29.4478 133.759 29.4859 133.759 29.8097V32.4764Z" fill="#002D72"/>
<path d="M146.583 36.8403C145.634 36.8403 145.027 36.5355 144.8 36.4213C144.667 36.1736 144.515 35.3546 144.496 34.8213C144.553 34.7451 144.724 34.726 144.762 34.7832C144.932 35.3736 145.407 36.4784 146.716 36.4784C147.664 36.4784 148.139 35.8498 148.139 35.1641C148.139 34.6689 148.044 34.0975 147.209 33.5641L146.128 32.8594C145.559 32.4784 144.895 31.8308 144.895 30.8975C144.895 29.8117 145.729 28.9355 147.209 28.9355C147.569 28.9355 147.968 29.0117 148.271 29.0879C148.423 29.126 148.575 29.1641 148.67 29.1641C148.765 29.4308 148.878 30.0784 148.878 30.5546C148.84 30.6308 148.651 30.6498 148.594 30.5927C148.442 30.0403 148.139 29.2975 147.038 29.2975C145.919 29.2975 145.691 30.0403 145.691 30.5736C145.691 31.2403 146.241 31.7165 146.659 31.9832L147.569 32.5546C148.29 32.9927 148.992 33.6594 148.992 34.7451C149.011 35.9832 148.063 36.8403 146.583 36.8403Z" fill="#002D72"/>
<path d="M156.752 30.8378C156.752 29.6188 156.733 29.4283 156.05 29.3712L155.765 29.3521C155.689 29.314 155.727 29.1045 155.784 29.0664C156.353 29.0855 156.733 29.1045 157.226 29.1045C157.681 29.1045 158.061 29.0855 158.63 29.0664C158.706 29.1045 158.724 29.314 158.649 29.3521L158.364 29.3712C157.7 29.4283 157.662 29.6188 157.662 30.8378V34.914C157.662 36.1331 157.681 36.2855 158.364 36.3616L158.649 36.3997C158.724 36.4378 158.687 36.6474 158.63 36.6855C158.061 36.6664 157.681 36.6474 157.226 36.6474C156.752 36.6474 156.353 36.6664 155.784 36.6855C155.708 36.6474 155.689 36.4759 155.765 36.3997L156.05 36.3616C156.714 36.2855 156.752 36.114 156.752 34.914V30.8378Z" fill="#002D72"/>
<path d="M169.386 34.9337C169.386 36.1337 169.405 36.3051 170.069 36.3622L170.429 36.4003C170.505 36.4384 170.467 36.6479 170.41 36.686C169.765 36.667 169.367 36.6479 168.912 36.6479C168.456 36.6479 168.058 36.667 167.337 36.686C167.261 36.6479 167.242 36.4575 167.337 36.4003L167.755 36.3622C168.4 36.3051 168.456 36.1337 168.456 34.9337V29.8289C168.456 29.467 168.456 29.467 168.115 29.467H167.489C166.996 29.467 166.37 29.486 166.085 29.7527C165.82 30.0003 165.706 30.2479 165.573 30.5337C165.478 30.6098 165.326 30.5527 165.269 30.4575C165.459 29.9432 165.63 29.2003 165.706 28.7622C165.744 28.7432 165.895 28.7241 165.914 28.7622C165.99 29.1241 166.351 29.1241 166.882 29.1241H171.492C172.099 29.1241 172.213 29.1051 172.383 28.8003C172.44 28.7813 172.573 28.7813 172.592 28.8384C172.459 29.3146 172.383 30.2289 172.421 30.5718C172.383 30.667 172.175 30.667 172.118 30.5908C172.08 30.3051 172.004 29.886 171.833 29.7527C171.568 29.5622 171.131 29.467 170.505 29.467H169.69C169.348 29.467 169.367 29.486 169.367 29.8479V34.9337H169.386Z" fill="#002D72"/>
<path d="M182.363 34.914C182.363 36.1331 182.439 36.3236 183.046 36.3616L183.482 36.3997C183.539 36.4759 183.52 36.6474 183.463 36.6855C182.761 36.6664 182.363 36.6474 181.907 36.6474C181.433 36.6474 181.016 36.6664 180.409 36.6855C180.333 36.6474 180.314 36.4759 180.39 36.3997L180.75 36.3616C181.414 36.2855 181.433 36.1331 181.433 34.914V34.3236C181.433 33.695 181.395 33.5426 181.073 32.914L179.726 30.2855C179.346 29.5236 179.176 29.4664 178.834 29.4093L178.512 29.3521C178.436 29.2759 178.455 29.1045 178.531 29.0664C178.891 29.0855 179.308 29.1045 179.859 29.1045C180.39 29.1045 180.788 29.0855 181.073 29.0664C181.168 29.1045 181.168 29.2759 181.111 29.3521L180.959 29.3712C180.56 29.4283 180.485 29.4855 180.485 29.5807C180.485 29.695 180.788 30.3426 180.845 30.4569C181.262 31.295 181.68 32.2093 182.135 32.9902C182.477 32.3807 182.856 31.714 183.197 31.0664C183.52 30.4759 183.937 29.695 183.937 29.5616C183.937 29.4855 183.729 29.4093 183.463 29.3712L183.254 29.3521C183.178 29.2759 183.178 29.1045 183.273 29.0664C183.691 29.0855 184.013 29.1045 184.374 29.1045C184.734 29.1045 185.038 29.0855 185.436 29.0664C185.531 29.1235 185.531 29.2759 185.455 29.3521L185.132 29.4093C184.544 29.5045 184.203 30.2283 183.634 31.2188L182.913 32.4569C182.42 33.3331 182.382 33.4283 182.382 34.3045V34.914H182.363Z" fill="#002D72"/>
<mask id="mask0_897_924" style="mask-type:luminance" maskUnits="userSpaceOnUse" x="0" y="-1" width="38" height="41">
<path d="M37.7111 -0.00390625H0.737122V39.9961H37.7111V-0.00390625Z" fill="white"/>
</mask>
<g mask="url(#mask0_897_924)">
<path d="M20.0306 39.6734C20.9981 39.14 22.1743 38.3972 23.4453 37.4257V25.8638L20.0306 23.5781V39.6734Z" fill="#002D72"/>
</g>
<mask id="mask1_897_924" style="mask-type:luminance" maskUnits="userSpaceOnUse" x="0" y="-1" width="38" height="41">
<path d="M37.7111 -0.00390625H0.737122V39.9961H37.7111V-0.00390625Z" fill="white"/>
</mask>
<g mask="url(#mask1_897_924)">
<path d="M20.0306 15.579L23.4453 17.8647V12.0171C22.3071 11.96 21.1688 11.9409 20.0306 11.9219V15.579Z" fill="#002D72"/>
</g>
<mask id="mask2_897_924" style="mask-type:luminance" maskUnits="userSpaceOnUse" x="0" y="-1" width="38" height="41">
<path d="M37.7111 -0.00390625H0.737122V39.9961H37.7111V-0.00390625Z" fill="white"/>
</mask>
<g mask="url(#mask2_897_924)">
<path d="M30.2936 12.6275C29.1553 12.4752 28.0171 12.3609 26.8788 12.2656V20.1513L30.2936 22.4371V12.6275Z" fill="#002D72"/>
</g>
<mask id="mask3_897_924" style="mask-type:luminance" maskUnits="userSpaceOnUse" x="0" y="-1" width="38" height="41">
<path d="M37.7111 -0.00390625H0.737122V39.9961H37.7111V-0.00390625Z" fill="white"/>
</mask>
<g mask="url(#mask3_897_924)">
<path d="M26.8786 28.1504V34.4361C28.0358 33.2932 29.193 31.9599 30.2933 30.4552V30.4361L26.8786 28.1504Z" fill="#002D72"/>
</g>
<mask id="mask4_897_924" style="mask-type:luminance" maskUnits="userSpaceOnUse" x="0" y="-1" width="38" height="41">
<path d="M37.7111 -0.00390625H0.737122V39.9961H37.7111V-0.00390625Z" fill="white"/>
</mask>
<g mask="url(#mask4_897_924)">
<path d="M33.7084 13.1387V24.7196H33.7274C35.2261 21.6149 36.4212 17.9958 37.1042 13.7863L36.9904 13.7672C35.909 13.5387 34.8087 13.3291 33.7084 13.1387Z" fill="#002D72"/>
</g>
<mask id="mask5_897_924" style="mask-type:luminance" maskUnits="userSpaceOnUse" x="0" y="-1" width="38" height="41">
<path d="M37.7111 -0.00390625H0.737122V39.9961H37.7111V-0.00390625Z" fill="white"/>
</mask>
<g mask="url(#mask5_897_924)">
<path d="M23.445 17.8633V25.8633L26.8787 28.149V20.149L23.445 17.8633Z" fill="#002D72"/>
</g>
<mask id="mask6_897_924" style="mask-type:luminance" maskUnits="userSpaceOnUse" x="0" y="-1" width="38" height="41">
<path d="M37.7111 -0.00390625H0.737122V39.9961H37.7111V-0.00390625Z" fill="white"/>
</mask>
<g mask="url(#mask6_897_924)">
<path d="M30.2936 22.4355V30.4355C31.5267 28.7784 32.684 26.8736 33.7084 24.7403V24.7213L30.2936 22.4355Z" fill="#002D72"/>
</g>
<mask id="mask7_897_924" style="mask-type:luminance" maskUnits="userSpaceOnUse" x="0" y="-1" width="38" height="41">
<path d="M37.7111 -0.00390625H0.737122V39.9961H37.7111V-0.00390625Z" fill="white"/>
</mask>
<g mask="url(#mask7_897_924)">
<path d="M33.7084 24.7417C33.7274 24.7227 33.7274 24.7417 33.7084 24.7417V24.7417Z" fill="#044C7D"/>
</g>
<mask id="mask8_897_924" style="mask-type:luminance" maskUnits="userSpaceOnUse" x="0" y="-1" width="38" height="41">
<path d="M37.7111 -0.00390625H0.737122V39.9961H37.7111V-0.00390625Z" fill="white"/>
</mask>
<g mask="url(#mask8_897_924)">
<path d="M12.5182 26.3789C13.5237 26.0932 14.4153 25.5408 15.0983 24.7599C14.7189 24.6265 14.2825 24.4932 13.7893 24.3789C13.4099 25.217 12.9546 25.8837 12.5182 26.3789Z" fill="#002D72"/>
</g>
<mask id="mask9_897_924" style="mask-type:luminance" maskUnits="userSpaceOnUse" x="0" y="-1" width="38" height="41">
<path d="M37.7111 -0.00390625H0.737122V39.9961H37.7111V-0.00390625Z" fill="white"/>
</mask>
<g mask="url(#mask9_897_924)">
<path d="M7.09271 24.7774C7.77566 25.5393 8.66728 26.1108 9.67273 26.3965C9.25538 25.9012 8.78111 25.2346 8.40169 24.3965C7.90845 24.4917 7.47213 24.6441 7.09271 24.7774Z" fill="#002D72"/>
</g>
<mask id="mask10_897_924" style="mask-type:luminance" maskUnits="userSpaceOnUse" x="0" y="-1" width="38" height="41">
<path d="M37.7111 -0.00390625H0.737122V39.9961H37.7111V-0.00390625Z" fill="white"/>
</mask>
<g mask="url(#mask10_897_924)">
<path d="M10.6019 16.4336C10.2225 16.8526 9.78616 17.4241 9.42572 18.1479C9.78616 18.205 10.1845 18.2241 10.6019 18.2431V16.4336Z" fill="#002D72"/>
</g>
<mask id="mask11_897_924" style="mask-type:luminance" maskUnits="userSpaceOnUse" x="0" y="-1" width="38" height="41">
<path d="M37.7111 -0.00390625H0.737122V39.9961H37.7111V-0.00390625Z" fill="white"/>
</mask>
<g mask="url(#mask11_897_924)">
<path d="M14.1301 23.4453C14.7561 23.5976 15.2683 23.7691 15.7046 23.9405C16.103 23.2738 16.3686 22.4929 16.4445 21.6738H14.4526C14.4146 22.3214 14.3008 22.9119 14.1301 23.4453Z" fill="#002D72"/>
</g>
<mask id="mask12_897_924" style="mask-type:luminance" maskUnits="userSpaceOnUse" x="0" y="-1" width="38" height="41">
<path d="M37.7111 -0.00390625H0.737122V39.9961H37.7111V-0.00390625Z" fill="white"/>
</mask>
<g mask="url(#mask12_897_924)">
<path d="M9.67249 15.9805C8.66704 16.2662 7.77541 16.8376 7.09247 17.5995C7.47188 17.7328 7.90821 17.8662 8.40145 17.9805C8.78086 17.1424 9.25513 16.4948 9.67249 15.9805Z" fill="#002D72"/>
</g>
<mask id="mask13_897_924" style="mask-type:luminance" maskUnits="userSpaceOnUse" x="0" y="-1" width="38" height="41">
<path d="M37.7111 -0.00390625H0.737122V39.9961H37.7111V-0.00390625Z" fill="white"/>
</mask>
<g mask="url(#mask13_897_924)">
<path d="M15.098 17.598C14.4151 16.8361 13.5235 16.2647 12.518 15.998C12.9354 16.4933 13.4096 17.16 13.789 17.998C14.2823 17.8647 14.7186 17.7314 15.098 17.598Z" fill="#002D72"/>
</g>
<mask id="mask14_897_924" style="mask-type:luminance" maskUnits="userSpaceOnUse" x="0" y="-1" width="38" height="41">
<path d="M37.7111 -0.00390625H0.737122V39.9961H37.7111V-0.00390625Z" fill="white"/>
</mask>
<g mask="url(#mask14_897_924)">
<path d="M14.4526 20.6827H16.4445C16.3686 19.8636 16.103 19.1017 15.7046 18.416C15.2683 18.5874 14.7561 18.7589 14.1301 18.9113C14.3008 19.4446 14.4146 20.0541 14.4526 20.6827Z" fill="#002D72"/>
</g>
<mask id="mask15_897_924" style="mask-type:luminance" maskUnits="userSpaceOnUse" x="0" y="-1" width="38" height="41">
<path d="M37.7111 -0.00390625H0.737122V39.9961H37.7111V-0.00390625Z" fill="white"/>
</mask>
<g mask="url(#mask15_897_924)">
<path d="M11.5886 25.9399C11.968 25.5209 12.4043 24.9494 12.7647 24.2066C12.4043 24.1494 12.0059 24.1304 11.5886 24.1113V25.9399Z" fill="#002D72"/>
</g>
<mask id="mask16_897_924" style="mask-type:luminance" maskUnits="userSpaceOnUse" x="0" y="-1" width="38" height="41">
<path d="M37.7111 -0.00390625H0.737122V39.9961H37.7111V-0.00390625Z" fill="white"/>
</mask>
<g mask="url(#mask16_897_924)">
<path d="M10.6019 21.6738H8.72382C8.76176 22.2453 8.87558 22.7786 9.02735 23.2548C9.50162 23.1786 10.0328 23.1405 10.5829 23.1024V21.6738H10.6019Z" fill="#002D72"/>
</g>
<mask id="mask17_897_924" style="mask-type:luminance" maskUnits="userSpaceOnUse" x="0" y="-1" width="38" height="41">
<path d="M37.7111 -0.00390625H0.737122V39.9961H37.7111V-0.00390625Z" fill="white"/>
</mask>
<g mask="url(#mask17_897_924)">
<path d="M11.5887 23.1214C12.1579 23.1405 12.6701 23.1976 13.1443 23.2548C13.2961 22.7786 13.4099 22.2453 13.4479 21.6738H11.5698V23.1214H11.5887Z" fill="#002D72"/>
</g>
<mask id="mask18_897_924" style="mask-type:luminance" maskUnits="userSpaceOnUse" x="0" y="-1" width="38" height="41">
<path d="M37.7111 -0.00390625H0.737122V39.9961H37.7111V-0.00390625Z" fill="white"/>
</mask>
<g mask="url(#mask18_897_924)">
<path d="M12.7647 18.1494C12.4043 17.4065 11.949 16.8351 11.5886 16.416V18.2446C12.0059 18.2446 12.4043 18.2065 12.7647 18.1494Z" fill="#002D72"/>
</g>
<mask id="mask19_897_924" style="mask-type:luminance" maskUnits="userSpaceOnUse" x="0" y="-1" width="38" height="41">
<path d="M37.7111 -0.00390625H0.737122V39.9961H37.7111V-0.00390625Z" fill="white"/>
</mask>
<g mask="url(#mask19_897_924)">
<path d="M13.4669 20.6825C13.4289 20.1111 13.3151 19.5778 13.1633 19.1016C12.6891 19.1778 12.1579 19.2158 11.6077 19.2539V20.7016H13.4669V20.6825Z" fill="#002D72"/>
</g>
<mask id="mask20_897_924" style="mask-type:luminance" maskUnits="userSpaceOnUse" x="0" y="-1" width="38" height="41">
<path d="M37.7111 -0.00390625H0.737122V39.9961H37.7111V-0.00390625Z" fill="white"/>
</mask>
<g mask="url(#mask20_897_924)">
<path d="M9.42548 24.2066C9.78592 24.9304 10.2222 25.5209 10.6017 25.9209V24.1113C10.1843 24.1304 9.78592 24.1685 9.42548 24.2066Z" fill="#002D72"/>
</g>
<mask id="mask21_897_924" style="mask-type:luminance" maskUnits="userSpaceOnUse" x="0" y="-1" width="38" height="41">
<path d="M37.7111 -0.00390625H0.737122V39.9961H37.7111V-0.00390625Z" fill="white"/>
</mask>
<g mask="url(#mask21_897_924)">
<path d="M8.05973 18.9113C7.4337 18.7589 6.92148 18.5874 6.48516 18.416C6.08677 19.0827 5.82118 19.8636 5.7453 20.6827H7.73723C7.77517 20.0541 7.88899 19.4446 8.05973 18.9113Z" fill="#002D72"/>
</g>
<mask id="mask22_897_924" style="mask-type:luminance" maskUnits="userSpaceOnUse" x="0" y="-1" width="38" height="41">
<path d="M37.7111 -0.00390625H0.737122V39.9961H37.7111V-0.00390625Z" fill="white"/>
</mask>
<g mask="url(#mask22_897_924)">
<path d="M10.602 19.2539C10.0518 19.2349 9.52066 19.1778 9.04639 19.1016C8.89462 19.5778 8.7808 20.1111 8.74286 20.6825H10.602V19.2539Z" fill="#002D72"/>
</g>
<mask id="mask23_897_924" style="mask-type:luminance" maskUnits="userSpaceOnUse" x="0" y="-1" width="38" height="41">
<path d="M37.7111 -0.00390625H0.737122V39.9961H37.7111V-0.00390625Z" fill="white"/>
</mask>
<g mask="url(#mask23_897_924)">
<path d="M7.73723 21.6738H5.7453C5.82118 22.4929 6.08677 23.2548 6.48516 23.9405C6.92148 23.7691 7.4337 23.5976 8.05973 23.4453C7.88899 22.9119 7.77517 22.3214 7.73723 21.6738Z" fill="#002D72"/>
</g>
<mask id="mask24_897_924" style="mask-type:luminance" maskUnits="userSpaceOnUse" x="0" y="-1" width="38" height="41">
<path d="M37.7111 -0.00390625H0.737122V39.9961H37.7111V-0.00390625Z" fill="white"/>
</mask>
<g mask="url(#mask24_897_924)">
<path d="M1.34406 13.7885C3.84819 29.3695 13.5802 36.9885 18.4177 39.6743V11.9219C12.6886 11.979 6.99733 12.5885 1.45788 13.7695L1.34406 13.7885ZM11.095 14.7981C14.6046 14.7981 17.4502 17.6552 17.4502 21.179C17.4502 24.7028 14.5856 27.56 11.095 27.56C7.58543 27.56 4.73982 24.6838 4.73982 21.179C4.73982 17.6552 7.58543 14.7981 11.095 14.7981Z" fill="#002D72"/>
</g>
<mask id="mask25_897_924" style="mask-type:luminance" maskUnits="userSpaceOnUse" x="0" y="-1" width="38" height="41">
<path d="M37.7111 -0.00390625H0.737122V39.9961H37.7111V-0.00390625Z" fill="white"/>
</mask>
<g mask="url(#mask25_897_924)">
<path d="M36.9713 1.86423C31.2422 0.626135 25.3043 -0.0214844 19.2147 -0.0214844C13.1251 -0.0214844 7.18729 0.626135 1.45813 1.86423H1.43916C1.04077 1.95947 0.737244 2.34042 0.737244 2.77852V5.99756C0.737244 8.11185 0.870039 10.1119 1.09769 11.9976C7.03553 10.7404 13.1441 10.1118 19.2337 10.1118C25.3233 10.1118 31.4129 10.7404 37.3508 11.9976C37.5784 10.1119 37.7112 8.11185 37.7112 5.99756V2.77852C37.7112 2.34042 37.3887 1.95947 36.9713 1.86423ZM32.9685 9.84518C28.5104 8.98804 23.4073 8.74042 19.2147 8.74042C15.0222 8.74042 9.91908 9.00709 5.46096 9.84518C5.29022 9.88328 5.13845 9.7309 5.23331 9.54042L8.1548 3.04518C8.19274 2.98804 10.0708 2.05471 10.0708 2.05471C12.4801 1.54042 16.426 1.76899 19.1958 2.79756H19.2147C21.9845 1.76899 25.9304 1.55947 28.3397 2.05471C28.3397 2.05471 30.2367 2.98804 30.2557 3.04518L33.1772 9.54042C33.291 9.7309 33.1393 9.88328 32.9685 9.84518Z" fill="#002D72"/>
</g>
<mask id="mask26_897_924" style="mask-type:luminance" maskUnits="userSpaceOnUse" x="0" y="-1" width="38" height="41">
<path d="M37.7111 -0.00390625H0.737122V39.9961H37.7111V-0.00390625Z" fill="white"/>
</mask>
<g mask="url(#mask26_897_924)">
<path d="M27.5807 3.17773L28.8138 6.49202C25.9492 6.09202 23.5779 6.2825 20.0683 7.42535V7.73011C23.3882 7.59678 27.5807 7.42535 30.9575 8.14916L29.1173 3.8825L27.5807 3.17773Z" fill="#002D72"/>
</g>
<mask id="mask27_897_924" style="mask-type:luminance" maskUnits="userSpaceOnUse" x="0" y="-1" width="38" height="41">
<path d="M37.7111 -0.00390625H0.737122V39.9961H37.7111V-0.00390625Z" fill="white"/>
</mask>
<g mask="url(#mask27_897_924)">
<path d="M9.57771 6.47444L10.8108 3.16016L9.27418 3.86492L7.43402 8.13159C10.8298 7.40778 15.0223 7.5792 18.3232 7.71254V7.40777C14.8326 6.26492 12.4613 6.09349 9.57771 6.47444Z" fill="#002D72"/>
</g>
<mask id="mask28_897_924" style="mask-type:luminance" maskUnits="userSpaceOnUse" x="43" y="4" width="167" height="24">
<path d="M209.262 4.51172H43.9129V27.1784H209.262V4.51172Z" fill="white"/>
</mask>
<g mask="url(#mask28_897_924)">
<path d="M48.6371 8.59035C48.6371 5.67606 48.3715 5.3713 46.8348 5.23797L46.1898 5.18082C46.0381 5.06654 46.076 4.60939 46.2467 4.5332C47.7644 4.59035 48.656 4.60939 49.7563 4.60939C50.7997 4.60939 51.6913 4.59035 52.7347 4.5332C52.8865 4.60939 52.9434 5.08558 52.7916 5.18082L52.3933 5.23797C50.8566 5.44749 50.7997 5.80939 50.7997 8.59035V18.3237C50.7997 20.3999 50.6859 22.2094 50.1927 23.4094C49.32 25.5046 47.4798 27.1808 45.0516 27.1808C44.7481 27.1808 43.9323 27.1618 43.9323 26.6284C43.9323 26.1904 44.3307 25.4284 44.8808 25.4284C45.2034 25.4284 45.5069 25.4856 45.8484 25.5808C46.2088 25.6761 46.5882 25.7713 46.9487 25.7713C47.4988 25.7713 47.8213 25.4475 47.992 25.0856C48.5991 23.8475 48.675 19.9237 48.675 18.4951V8.59035H48.6371Z" fill="#002D72"/>
</g>
<mask id="mask29_897_924" style="mask-type:luminance" maskUnits="userSpaceOnUse" x="43" y="4" width="167" height="24">
<path d="M209.262 4.51172H43.9129V27.1784H209.262V4.51172Z" fill="white"/>
</mask>
<g mask="url(#mask29_897_924)">
<path d="M52.7158 14.7607C52.7158 10.3416 56.0167 6.95117 60.5696 6.95117C65.6538 6.95117 68.2149 10.6464 68.2149 14.5512C68.2149 19.0274 64.8191 22.2845 60.5696 22.2845C55.6752 22.2655 52.7158 18.7607 52.7158 14.7607ZM66.0142 15.2369C66.0142 11.5797 64.4017 7.63688 60.1902 7.63688C57.8948 7.63688 54.9164 9.21784 54.9164 14.0559C54.9164 17.3321 56.5099 21.5797 60.8542 21.5797C63.4911 21.5797 66.0142 19.5988 66.0142 15.2369Z" fill="#002D72"/>
</g>
<mask id="mask30_897_924" style="mask-type:luminance" maskUnits="userSpaceOnUse" x="43" y="4" width="167" height="24">
<path d="M209.262 4.51172H43.9129V27.1784H209.262V4.51172Z" fill="white"/>
</mask>
<g mask="url(#mask30_897_924)">
<path d="M73.2231 14.7606C72.1607 14.7606 72.1228 14.7987 72.1228 15.4654V18.5892C72.1228 20.913 72.2366 21.2178 73.4697 21.3511L74.1147 21.4273C74.2475 21.5225 74.2095 21.9225 74.0767 21.9797C72.8816 21.9416 72.1417 21.9225 71.2691 21.9225C70.3205 21.9225 69.5807 21.9606 68.708 21.9797C68.5752 21.9225 68.5373 21.5606 68.6701 21.4273L69.0495 21.3511C70.2826 21.1225 70.3205 20.913 70.3205 18.5892V10.6273C70.3205 8.30348 70.1688 7.92253 69.0116 7.84634L68.4424 7.80824C68.3096 7.713 68.3476 7.313 68.4804 7.25586C69.5617 7.27491 70.3205 7.313 71.2501 7.313C72.1038 7.313 72.8626 7.29395 73.8112 7.25586C73.9439 7.313 73.9819 7.713 73.8491 7.80824L73.4317 7.84634C72.1607 7.97967 72.1038 8.30348 72.1038 10.6273V13.1797C72.1038 13.8654 72.1417 13.8844 73.2041 13.8844H79.5024C80.5647 13.8844 80.6027 13.8654 80.6027 13.1797V10.6273C80.6027 8.30348 80.5647 7.97967 79.2558 7.84634L78.8384 7.80824C78.7056 7.713 78.7435 7.313 78.8763 7.25586C79.8818 7.29395 80.6406 7.313 81.5512 7.313C82.4049 7.313 83.1637 7.29395 84.1502 7.25586C84.283 7.313 84.3209 7.713 84.1881 7.80824L83.7329 7.84634C82.4618 7.97967 82.4049 8.30348 82.4049 10.6273V18.5892C82.4049 20.913 82.4428 21.1987 83.7329 21.3511L84.264 21.4273C84.3968 21.5225 84.3589 21.9225 84.2261 21.9797C83.1637 21.9416 82.4239 21.9225 81.5512 21.9225C80.6406 21.9225 79.8628 21.9416 78.8763 21.9797C78.7435 21.9225 78.7056 21.5606 78.8384 21.4273L79.2558 21.3511C80.6027 21.1225 80.6027 20.913 80.6027 18.5892V15.4654C80.6027 14.7987 80.5647 14.7606 79.5024 14.7606H73.2231Z" fill="#002D72"/>
</g>
<mask id="mask31_897_924" style="mask-type:luminance" maskUnits="userSpaceOnUse" x="43" y="4" width="167" height="24">
<path d="M209.262 4.51172H43.9129V27.1784H209.262V4.51172Z" fill="white"/>
</mask>
<g mask="url(#mask31_897_924)">
<path d="M99.346 18.1521C99.346 18.8188 99.346 21.4473 99.4029 22.0187C99.365 22.1521 99.2322 22.2664 98.9856 22.2664C98.72 21.8854 98.075 21.1235 96.1589 18.933L91.0369 13.0854C90.4488 12.3997 88.9501 10.5902 88.4758 10.0949H88.4379C88.343 10.3616 88.324 10.8759 88.324 11.5235V16.3426C88.324 17.3902 88.343 20.2664 88.7224 20.914C88.8552 21.1616 89.2915 21.2949 89.8417 21.333L90.5246 21.4092C90.6574 21.5807 90.6385 21.8473 90.4867 21.9616C89.5002 21.9235 88.7224 21.9045 87.9067 21.9045C86.9771 21.9045 86.389 21.9235 85.6112 21.9616C85.4594 21.8473 85.4405 21.5426 85.5733 21.4092L86.1614 21.333C86.6736 21.2759 87.015 21.1426 87.1289 20.8949C87.4324 20.0949 87.4134 17.3902 87.4134 16.3426V9.94256C87.4134 9.31399 87.3945 8.85685 86.9202 8.34256C86.6167 8.0378 86.0855 7.88542 85.5543 7.80923L85.1749 7.77113C85.0421 7.6378 85.0421 7.31399 85.2128 7.21875C86.1424 7.27589 87.2996 7.27589 87.698 7.27589C88.0584 7.27589 88.4189 7.25685 88.7034 7.21875C89.1398 8.34256 91.7388 11.2759 92.4786 12.0949L94.6223 14.514C96.14 16.2092 97.2213 17.4664 98.2647 18.514H98.3026C98.3975 18.3997 98.3975 18.0568 98.3975 17.5807V12.8378C98.3975 11.7902 98.3785 8.91399 97.9612 8.24732C97.8284 8.05685 97.4679 7.92351 96.5953 7.80923L96.2159 7.77113C96.0641 7.6378 96.0831 7.27589 96.2538 7.21875C97.2782 7.25685 98.0181 7.27589 98.8528 7.27589C99.8013 7.27589 100.37 7.25685 101.129 7.21875C101.3 7.33304 101.3 7.6378 101.167 7.77113L100.921 7.84732C100.219 7.96161 99.7824 8.13304 99.6875 8.30446C99.3081 9.10446 99.365 11.8473 99.365 12.8568V18.1521H99.346Z" fill="#002D72"/>
</g>
<mask id="mask32_897_924" style="mask-type:luminance" maskUnits="userSpaceOnUse" x="43" y="4" width="167" height="24">
<path d="M209.262 4.51172H43.9129V27.1784H209.262V4.51172Z" fill="white"/>
</mask>
<g mask="url(#mask32_897_924)">
<path d="M105.17 22.265C103.311 22.265 102.154 21.6935 101.736 21.4459C101.471 20.9507 101.186 19.3888 101.148 18.3412C101.262 18.1888 101.584 18.1316 101.679 18.284C102.002 19.4078 102.912 21.5793 105.473 21.5793C107.333 21.5793 108.224 20.3602 108.224 19.0269C108.224 18.0555 108.035 16.9697 106.422 15.9221L104.335 14.5507C103.235 13.8269 101.964 12.5507 101.964 10.7412C101.964 8.64593 103.595 6.93164 106.46 6.93164C107.143 6.93164 107.94 7.06497 108.509 7.21735C108.793 7.31259 109.097 7.35069 109.287 7.35069C109.476 7.88402 109.685 9.12212 109.685 10.0555C109.59 10.1888 109.249 10.2459 109.135 10.1316C108.85 9.06497 108.262 7.6364 106.137 7.6364C103.975 7.6364 103.519 9.08402 103.519 10.0935C103.519 11.3697 104.582 12.3031 105.398 12.8174L107.162 13.9221C108.547 14.7793 109.913 16.0745 109.913 18.1697C109.875 20.6078 108.035 22.265 105.17 22.265Z" fill="#002D72"/>
</g>
<mask id="mask33_897_924" style="mask-type:luminance" maskUnits="userSpaceOnUse" x="43" y="4" width="167" height="24">
<path d="M209.262 4.51172H43.9129V27.1784H209.262V4.51172Z" fill="white"/>
</mask>
<g mask="url(#mask33_897_924)">
<path d="M122.965 13.4451C121.713 13.4451 121.656 13.5022 121.656 14.2831V17.9784C121.656 20.7403 121.789 21.1022 123.249 21.2546L124.008 21.3308C124.16 21.426 124.122 21.9022 123.951 21.9784C122.547 21.9212 121.656 21.9022 120.631 21.9022C119.512 21.9022 118.62 21.9593 117.596 21.9784C117.444 21.9022 117.387 21.4832 117.539 21.3308L117.975 21.2546C119.436 20.9879 119.493 20.7212 119.493 17.9784V8.53077C119.493 5.76886 119.303 5.33077 117.956 5.21648L117.273 5.15934C117.122 5.0641 117.16 4.58791 117.33 4.51172C118.601 4.53077 119.493 4.58791 120.631 4.58791C121.656 4.58791 122.547 4.56886 123.667 4.51172C123.818 4.58791 123.875 5.0641 123.724 5.15934L123.23 5.21648C121.713 5.36886 121.656 5.76886 121.656 8.53077V11.5403C121.656 12.3593 121.713 12.3784 122.965 12.3784H130.439C131.691 12.3784 131.748 12.3593 131.748 11.5403V8.53077C131.748 5.76886 131.691 5.38791 130.155 5.21648L129.661 5.15934C129.51 5.0641 129.567 4.58791 129.718 4.51172C130.913 4.56886 131.805 4.58791 132.886 4.58791C133.911 4.58791 134.802 4.56886 135.979 4.51172C136.13 4.58791 136.187 5.0641 136.036 5.15934L135.485 5.21648C133.968 5.36886 133.911 5.76886 133.911 8.53077V17.9784C133.911 20.7403 133.968 21.0831 135.485 21.2546L136.111 21.3308C136.263 21.426 136.225 21.9022 136.055 21.9784C134.802 21.9212 133.911 21.9022 132.886 21.9022C131.824 21.9022 130.875 21.9212 129.718 21.9784C129.567 21.9022 129.51 21.4832 129.661 21.3308L130.155 21.2546C131.748 20.9879 131.748 20.7212 131.748 17.9784V14.2831C131.748 13.5022 131.691 13.4451 130.439 13.4451H122.965Z" fill="#002D72"/>
</g>
<mask id="mask34_897_924" style="mask-type:luminance" maskUnits="userSpaceOnUse" x="43" y="4" width="167" height="24">
<path d="M209.262 4.51172H43.9129V27.1784H209.262V4.51172Z" fill="white"/>
</mask>
<g mask="url(#mask34_897_924)">
<path d="M135.903 14.7607C135.903 10.3416 139.203 6.95117 143.756 6.95117C148.86 6.95117 151.402 10.6464 151.402 14.5512C151.402 19.0274 148.006 22.2845 143.756 22.2845C138.862 22.2655 135.903 18.7607 135.903 14.7607ZM149.201 15.2369C149.201 11.5797 147.588 7.63688 143.377 7.63688C141.082 7.63688 138.103 9.21784 138.103 14.0559C138.103 17.3321 139.697 21.5797 144.041 21.5797C146.697 21.5797 149.201 19.5988 149.201 15.2369Z" fill="#002D72"/>
</g>
<mask id="mask35_897_924" style="mask-type:luminance" maskUnits="userSpaceOnUse" x="43" y="4" width="167" height="24">
<path d="M209.262 4.51172H43.9129V27.1784H209.262V4.51172Z" fill="white"/>
</mask>
<g mask="url(#mask35_897_924)">
<path d="M155.405 18.6082C155.405 20.9321 155.443 21.2178 156.865 21.3701L157.453 21.4273C157.586 21.5416 157.548 21.9225 157.416 21.9797C156.163 21.9416 155.424 21.9225 154.551 21.9225C153.621 21.9225 152.825 21.9416 151.857 21.9797C151.724 21.9225 151.686 21.5606 151.819 21.4273L152.274 21.3701C153.546 21.1987 153.602 20.9321 153.602 18.6082V10.4368C153.602 8.5511 153.564 8.17015 152.559 8.07491L151.762 7.97967C151.611 7.84634 151.629 7.52253 151.8 7.42729C152.976 7.27491 154.342 7.25586 156.163 7.25586C157.985 7.25586 159.37 7.50348 160.394 8.1511C161.399 8.79872 162.158 9.94158 162.158 11.4654C162.158 13.5035 160.906 14.513 159.958 14.9892C158.99 15.4463 157.814 15.6559 156.922 15.6559C156.771 15.5987 156.771 15.2559 156.903 15.2178C159.294 14.7797 160.147 13.4273 160.147 11.5035C160.147 9.3511 158.895 7.96062 156.6 7.96062C155.424 7.96062 155.405 8.05586 155.405 8.76062V18.6082Z" fill="#002D72"/>
</g>
<mask id="mask36_897_924" style="mask-type:luminance" maskUnits="userSpaceOnUse" x="43" y="4" width="167" height="24">
<path d="M209.262 4.51172H43.9129V27.1784H209.262V4.51172Z" fill="white"/>
</mask>
<g mask="url(#mask36_897_924)">
<path d="M164.567 10.6268C164.567 8.303 164.529 7.94109 163.239 7.84585L162.689 7.80776C162.556 7.71252 162.594 7.31252 162.727 7.25537C163.809 7.29347 164.51 7.31252 165.497 7.31252C166.351 7.31252 167.109 7.29347 168.058 7.25537C168.191 7.31252 168.229 7.71252 168.096 7.80776L167.698 7.84585C166.426 7.97918 166.37 8.303 166.37 10.6268V13.1792C166.37 13.5982 166.408 14.0173 166.654 14.0173C166.844 14.0173 167.109 13.8839 167.261 13.7697C167.565 13.503 168.134 12.9316 168.38 12.703L170.752 10.3411C171.169 9.94109 172.251 8.81728 172.478 8.51252C172.592 8.36014 172.63 8.24585 172.63 8.15061C172.63 8.05538 172.535 7.99823 172.251 7.92204L171.662 7.78871C171.511 7.63633 171.53 7.35061 171.7 7.23633C172.478 7.27442 173.351 7.29347 174.129 7.29347C174.906 7.29347 175.646 7.27442 176.31 7.23633C176.462 7.35061 176.481 7.65537 176.348 7.78871C175.779 7.8268 174.925 8.05538 174.299 8.41728C173.673 8.77918 172.44 9.80776 171.207 10.9887L169.215 12.8744C168.912 13.1792 168.703 13.3887 168.703 13.5601C168.703 13.7125 168.836 13.8839 169.12 14.2459C171.207 16.6649 172.914 18.6459 174.641 20.4744C175.172 21.0078 175.57 21.2935 176.329 21.3887L176.747 21.4459C176.898 21.5601 176.86 21.9411 176.709 21.9982C176.14 21.9601 175.532 21.922 174.489 21.922C173.578 21.922 172.82 21.9411 171.795 21.9982C171.643 21.9601 171.568 21.5792 171.7 21.4459L172.213 21.3506C172.516 21.3125 172.744 21.2363 172.744 21.122C172.744 20.9887 172.592 20.8173 172.44 20.6078C172.023 20.0744 171.454 19.4839 170.619 18.5316L168.855 16.5316C167.603 15.122 167.242 14.6649 166.711 14.6649C166.389 14.6649 166.332 14.9506 166.332 15.7316V18.5887C166.332 20.9125 166.37 21.2173 167.603 21.3506L168.191 21.4078C168.324 21.503 168.286 21.903 168.153 21.9601C167.072 21.922 166.332 21.8839 165.459 21.8839C164.548 21.8839 163.809 21.903 162.898 21.9601C162.765 21.8839 162.727 21.5601 162.86 21.4078L163.296 21.3506C164.473 21.1792 164.51 20.9125 164.51 18.5887V10.6268H164.567Z" fill="#002D72"/>
</g>
<mask id="mask37_897_924" style="mask-type:luminance" maskUnits="userSpaceOnUse" x="43" y="4" width="167" height="24">
<path d="M209.262 4.51172H43.9129V27.1784H209.262V4.51172Z" fill="white"/>
</mask>
<g mask="url(#mask37_897_924)">
<path d="M179.706 10.6649C179.706 8.32204 179.668 7.94109 178.359 7.8268L177.809 7.78871C177.676 7.69347 177.714 7.29347 177.847 7.23633C178.947 7.27442 179.706 7.31252 180.617 7.31252C181.489 7.31252 182.248 7.29347 183.348 7.23633C183.481 7.31252 183.519 7.69347 183.386 7.78871L182.836 7.8268C181.527 7.94109 181.489 8.32204 181.489 10.6649V18.5506C181.489 20.8935 181.527 21.2173 182.836 21.3697L183.386 21.4268C183.519 21.522 183.481 21.922 183.348 21.9792C182.248 21.9411 181.489 21.903 180.617 21.903C179.687 21.903 179.023 21.922 177.923 21.9792C177.79 21.903 177.752 21.5601 177.885 21.4268L178.359 21.3697C179.668 21.2173 179.706 20.9125 179.706 18.5506V10.6649Z" fill="#002D72"/>
</g>
<mask id="mask38_897_924" style="mask-type:luminance" maskUnits="userSpaceOnUse" x="43" y="4" width="167" height="24">
<path d="M209.262 4.51172H43.9129V27.1784H209.262V4.51172Z" fill="white"/>
</mask>
<g mask="url(#mask38_897_924)">
<path d="M198.772 18.1521C198.772 18.8188 198.772 21.4473 198.848 22.0187C198.81 22.1521 198.677 22.2664 198.43 22.2664C198.165 21.8854 197.52 21.1235 195.604 18.933L190.482 13.0854C189.894 12.3997 188.395 10.5902 187.921 10.0949H187.883C187.788 10.3616 187.769 10.8759 187.769 11.5235V16.3426C187.769 17.3902 187.788 20.2664 188.167 20.914C188.3 21.1616 188.736 21.2949 189.286 21.333L189.969 21.4092C190.102 21.5807 190.083 21.8473 189.931 21.9616C188.945 21.9235 188.167 21.9045 187.351 21.9045C186.422 21.9045 185.834 21.9235 185.056 21.9616C184.904 21.8473 184.885 21.5426 185.018 21.4092L185.606 21.333C186.118 21.2759 186.46 21.1426 186.574 20.8949C186.877 20.0949 186.858 17.3902 186.858 16.3426V9.94256C186.858 9.31399 186.839 8.85685 186.365 8.34256C186.061 8.0378 185.53 7.88542 184.999 7.80923L184.62 7.77113C184.487 7.6378 184.487 7.31399 184.658 7.21875C185.587 7.27589 186.744 7.27589 187.143 7.27589C187.503 7.27589 187.864 7.25685 188.148 7.21875C188.585 8.34256 191.184 11.2759 191.923 12.0949L194.067 14.514C195.585 16.2092 196.666 17.4664 197.709 18.514H197.747C197.842 18.3997 197.842 18.0568 197.842 17.5807V12.8378C197.842 11.7902 197.823 8.91399 197.406 8.24732C197.273 8.05685 196.913 7.92351 196.04 7.80923L195.661 7.77113C195.509 7.6378 195.528 7.27589 195.699 7.21875C196.723 7.25685 197.463 7.27589 198.298 7.27589C199.246 7.27589 199.815 7.25685 200.574 7.21875C200.745 7.33304 200.745 7.6378 200.612 7.77113L200.308 7.80923C199.607 7.92351 199.17 8.09494 199.075 8.26637C198.696 9.06637 198.753 11.8092 198.753 12.8188V18.1521H198.772Z" fill="#002D72"/>
</g>
<mask id="mask39_897_924" style="mask-type:luminance" maskUnits="userSpaceOnUse" x="43" y="4" width="167" height="24">
<path d="M209.262 4.51172H43.9129V27.1784H209.262V4.51172Z" fill="white"/>
</mask>
<g mask="url(#mask39_897_924)">
<path d="M204.577 22.265C202.718 22.265 201.561 21.6935 201.143 21.4459C200.878 20.9507 200.593 19.3888 200.555 18.3412C200.669 18.1888 200.992 18.1316 201.086 18.284C201.409 19.4078 202.319 21.5793 204.881 21.5793C206.74 21.5793 207.631 20.3602 207.631 19.0269C207.631 18.0555 207.423 16.9697 205.829 15.9221L203.742 14.5507C202.642 13.8269 201.352 12.5507 201.352 10.7412C201.352 8.64593 202.983 6.93164 205.848 6.93164C206.531 6.93164 207.328 7.06497 207.897 7.21735C208.181 7.31259 208.485 7.35069 208.675 7.35069C208.883 7.88402 209.073 9.12212 209.073 10.0555C208.978 10.1888 208.637 10.2459 208.523 10.1316C208.238 9.06497 207.65 7.6364 205.526 7.6364C203.363 7.6364 202.908 9.08402 202.908 10.0935C202.908 11.3697 203.97 12.3031 204.786 12.8174L206.55 13.9221C207.935 14.7793 209.301 16.0745 209.301 18.1697C209.263 20.6078 207.442 22.265 204.577 22.265Z" fill="#002D72"/>
</g>
</g>
<defs>
<clipPath id="clip0_897_924">
<rect width="208.525" height="40" fill="white" transform="translate(0.737732)"/>
</clipPath>
</defs>
</svg>
