<svg width="41" height="40" viewBox="0 0 41 40" fill="none" xmlns="http://www.w3.org/2000/svg">
<g clip-path="url(#clip0_897_1125)">
<path d="M26.4761 20.0001V3.90088C26.4761 3.14268 25.8592 2.52588 25.101 2.52588H4.74011C3.98199 2.52588 3.36511 3.14275 3.36511 3.90088V6.95322C3.36511 7.27682 3.62738 7.53916 3.95105 7.53916C4.27472 7.53916 4.53699 7.27682 4.53699 6.95322V3.90088C4.53699 3.78885 4.62808 3.69775 4.74011 3.69775H25.101C25.2131 3.69775 25.3043 3.78893 25.3043 3.90088V20.0001C25.3043 20.1121 25.2131 20.2032 25.101 20.2032H4.74011C4.62808 20.2032 4.53699 20.1121 4.53699 20.0001V9.6876C4.53699 9.364 4.27472 9.10166 3.95105 9.10166C3.62738 9.10166 3.36511 9.364 3.36511 9.6876V20.0001C3.36511 20.7583 3.98199 21.3751 4.74011 21.3751H25.101C25.8593 21.3751 26.4761 20.7583 26.4761 20.0001Z" fill="#F8F8F8"/>
<path d="M3.95068 22.7285C3.62701 22.7285 3.36475 22.9909 3.36475 23.3145C3.36475 23.638 3.62701 23.9004 3.95068 23.9004H4.7399C5.06357 23.9004 5.32584 23.638 5.32584 23.3145C5.32584 22.9909 5.06357 22.7285 4.7399 22.7285H3.95068Z" fill="#F8F8F8"/>
<path d="M8.0545 22.7285C7.73083 22.7285 7.46857 22.9909 7.46857 23.3145C7.46857 23.638 7.73083 23.9004 8.0545 23.9004H8.84372C9.1674 23.9004 9.42966 23.638 9.42966 23.3145C9.42966 22.9909 9.1674 22.7285 8.84372 22.7285H8.0545Z" fill="#F8F8F8"/>
<path d="M12.1583 22.7285C11.8346 22.7285 11.5723 22.9909 11.5723 23.3145C11.5723 23.638 11.8346 23.9004 12.1583 23.9004H12.9475C13.2712 23.9004 13.5334 23.638 13.5334 23.3145C13.5334 22.9909 13.2712 22.7285 12.9475 22.7285H12.1583Z" fill="#F8F8F8"/>
<path d="M39.6633 8.47781L39.3437 7.45492C39.0597 6.54656 38.2296 5.93617 37.278 5.93617H33.7587C32.807 5.93617 31.9769 6.54648 31.693 7.45492L31.3734 8.47773C30.7094 8.57461 30.1973 9.14617 30.1973 9.83664V13.3093C30.1973 14.0675 30.8142 14.6843 31.5723 14.6843H31.6633L32.3505 23.2056C32.4064 23.8975 32.9812 24.4415 33.6698 24.4677V25.7783C33.6698 26.4495 34.2158 26.9955 34.8871 26.9955H34.9326V29.1155C34.9326 29.8766 34.3133 30.4958 33.5522 30.4958H13.2582C11.7222 30.4958 10.4725 31.7455 10.4725 33.2816C10.4725 34.8177 11.7222 36.0673 13.2582 36.0673H33.552C34.3132 36.0673 34.9324 36.6866 34.9324 37.4477C34.9324 38.2089 34.3132 38.8281 33.552 38.8281H8.52803C7.63264 38.8281 6.9042 38.0997 6.9042 37.2043V26.4258H26.837C28.0308 26.4258 29.0019 25.455 29.0019 24.2617V20.3586C29.0019 20.035 28.7397 19.7727 28.416 19.7727C28.0923 19.7727 27.8301 20.035 27.8301 20.3586V24.2617C27.8301 24.8088 27.3846 25.2539 26.837 25.2539H3.00342C2.45631 25.2539 2.01123 24.8088 2.01123 24.2617V2.16406C2.01123 1.61695 2.45631 1.17188 3.00342 1.17188H26.837C27.3846 1.17188 27.8301 1.61695 27.8301 2.16406V17.6242C27.8301 17.9478 28.0923 18.2102 28.416 18.2102C28.7397 18.2102 29.0019 17.9478 29.0019 17.6242V2.16406C29.0019 0.970781 28.0308 0 26.837 0H3.00342C1.81014 0 0.839355 0.970781 0.839355 2.16406V24.2617C0.839355 25.455 1.81014 26.4258 3.00342 26.4258H5.73232V37.2043C5.73232 38.7459 6.98646 40 8.52803 40H33.552C34.9594 40 36.1043 38.8551 36.1043 37.4477C36.1043 36.0404 34.9594 34.8955 33.552 34.8955H13.2582C12.3683 34.8955 11.6444 34.1716 11.6444 33.2816C11.6444 32.3917 12.3683 31.6677 13.2582 31.6677H33.552C34.9594 31.6677 36.1043 30.5228 36.1043 29.1155V26.9956H36.1497C36.8209 26.9956 37.3669 26.4495 37.3669 25.7784V24.4677C38.0555 24.4416 38.6304 23.8976 38.6863 23.2056L39.3735 14.6844H39.4644C40.2226 14.6844 40.8394 14.0675 40.8394 13.3094V9.83672C40.8394 9.14625 40.3272 8.57469 39.6633 8.47781ZM33.7587 7.10805H37.2779C37.7143 7.10805 38.0949 7.38797 38.2251 7.80453L38.4305 8.4618H32.606L32.8114 7.80453C32.9416 7.38789 33.3222 7.10805 33.7587 7.10805ZM36.1497 25.8237H34.8869C34.8619 25.8237 34.8415 25.8034 34.8415 25.7784V24.4702H36.1951V25.7784C36.1951 25.8034 36.1747 25.8237 36.1497 25.8237ZM39.6675 13.3094C39.6675 13.4214 39.5764 13.5125 39.4644 13.5125H36.8855C36.5618 13.5125 36.2995 13.7748 36.2995 14.0984C36.2995 14.422 36.5618 14.6844 36.8855 14.6844H38.1979L37.5183 23.1113C37.5098 23.2162 37.4208 23.2984 37.3156 23.2984H33.721C33.6158 23.2984 33.5269 23.2162 33.5183 23.1114L32.8388 14.6844H34.1511C34.4747 14.6844 34.737 14.422 34.737 14.0984C34.737 13.7748 34.4747 13.5125 34.1511 13.5125H31.5722C31.4601 13.5125 31.369 13.4213 31.369 13.3094V9.83672C31.369 9.72469 31.4601 9.63359 31.5722 9.63359H39.4644C39.5764 9.63359 39.6675 9.72477 39.6675 9.83672V13.3094Z" fill="#F8F8F8"/>
<path d="M32.3612 2.47735C34.1018 0.736572 36.9344 0.736494 38.6755 2.47735C38.7899 2.59181 38.9399 2.64899 39.0898 2.64899C39.2397 2.64899 39.3897 2.59181 39.5042 2.47735C39.733 2.24853 39.733 1.87751 39.5041 1.64876C37.3063 -0.548975 33.7303 -0.548896 31.5325 1.64876C31.3037 1.87759 31.3037 2.2486 31.5325 2.47735C31.7614 2.70618 32.1324 2.70618 32.3612 2.47735Z" fill="#F8F8F8"/>
<path d="M33.3182 3.43428C33.0894 3.66311 33.0894 4.03412 33.3183 4.26295C33.4327 4.37732 33.5827 4.43451 33.7326 4.43451C33.8825 4.43451 34.0325 4.37732 34.147 4.26287C34.5132 3.89654 35.0002 3.69482 35.5184 3.69482C36.0364 3.69482 36.5235 3.89654 36.8898 4.26287C37.1187 4.4917 37.4896 4.4917 37.7185 4.26287C37.9473 4.03404 37.9473 3.66303 37.7185 3.43428C37.1308 2.84662 36.3495 2.52295 35.5184 2.52295C34.6872 2.52303 33.9059 2.8467 33.3182 3.43428Z" fill="#F8F8F8"/>
</g>
<defs>
<clipPath id="clip0_897_1125">
<rect width="40" height="40" fill="white" transform="translate(0.839355)"/>
</clipPath>
</defs>
</svg>
