<svg width="24" height="24" viewBox="0 0 24 24" fill="none" xmlns="http://www.w3.org/2000/svg">
<path d="M10.965 19.5002H3.49997C3.10214 19.5002 2.72061 19.3422 2.43931 19.0609C2.158 18.7796 1.99997 18.3981 1.99997 18.0002V7.50024H18.5V10.6602C18.5 10.7929 18.5527 10.92 18.6464 11.0138C18.7402 11.1076 18.8674 11.1602 19 11.1602C19.1326 11.1602 19.2598 11.1076 19.3535 11.0138C19.4473 10.92 19.5 10.7929 19.5 10.6602V5.00024C19.4992 4.33745 19.2355 3.70202 18.7669 3.23335C18.2982 2.76469 17.6628 2.50104 17 2.50024H16C16 2.10242 15.8419 1.72089 15.5606 1.43958C15.2793 1.15828 14.8978 1.00024 14.5 1.00024C14.1021 1.00024 13.7206 1.15828 13.4393 1.43958C13.158 1.72089 13 2.10242 13 2.50024H7.49997C7.49997 2.10242 7.34194 1.72089 7.06063 1.43958C6.77933 1.15828 6.39779 1.00024 5.99997 1.00024C5.60215 1.00024 5.22061 1.15828 4.93931 1.43958C4.658 1.72089 4.49997 2.10242 4.49997 2.50024H3.49997C2.83717 2.50104 2.20175 2.76469 1.73308 3.23335C1.26441 3.70202 1.00076 4.33745 0.999969 5.00024V18.0002C1.00076 18.663 1.26441 19.2985 1.73308 19.7671C2.20175 20.2358 2.83717 20.4995 3.49997 20.5002H10.965C11.0976 20.5002 11.2248 20.4476 11.3185 20.3538C11.4123 20.26 11.465 20.1329 11.465 20.0002C11.465 19.8676 11.4123 19.7405 11.3185 19.6467C11.2248 19.5529 11.0976 19.5002 10.965 19.5002ZM14 2.50024C14 2.36764 14.0526 2.24046 14.1464 2.14669C14.2402 2.05292 14.3674 2.00024 14.5 2.00024C14.6326 2.00024 14.7598 2.05292 14.8535 2.14669C14.9473 2.24046 15 2.36764 15 2.50024V3.50024C15 3.63285 14.9473 3.76003 14.8535 3.8538C14.7598 3.94757 14.6326 4.00024 14.5 4.00024C14.3674 4.00024 14.2402 3.94757 14.1464 3.8538C14.0526 3.76003 14 3.63285 14 3.50024V2.50024ZM5.49997 2.50024C5.49997 2.36764 5.55265 2.24046 5.64642 2.14669C5.74018 2.05292 5.86736 2.00024 5.99997 2.00024C6.13258 2.00024 6.25976 2.05292 6.35352 2.14669C6.44729 2.24046 6.49997 2.36764 6.49997 2.50024V3.50024C6.49997 3.63285 6.44729 3.76003 6.35352 3.8538C6.25976 3.94757 6.13258 4.00024 5.99997 4.00024C5.86736 4.00024 5.74018 3.94757 5.64642 3.8538C5.55265 3.76003 5.49997 3.63285 5.49997 3.50024V2.50024ZM1.99997 5.00024C1.99997 4.60242 2.158 4.22089 2.43931 3.93958C2.72061 3.65828 3.10214 3.50024 3.49997 3.50024H4.49997C4.49997 3.89807 4.658 4.2796 4.93931 4.5609C5.22061 4.84221 5.60215 5.00024 5.99997 5.00024C6.39779 5.00024 6.77933 4.84221 7.06063 4.5609C7.34194 4.2796 7.49997 3.89807 7.49997 3.50024H13C13 3.89807 13.158 4.2796 13.4393 4.5609C13.7206 4.84221 14.1021 5.00024 14.5 5.00024C14.8978 5.00024 15.2793 4.84221 15.5606 4.5609C15.8419 4.2796 16 3.89807 16 3.50024H17C17.3978 3.50024 17.7793 3.65828 18.0606 3.93958C18.3419 4.22089 18.5 4.60242 18.5 5.00024V6.50024H1.99997V5.00024Z" fill="white"/>
<path d="M6.99997 10.0002C6.99997 9.73503 6.89461 9.48067 6.70708 9.29314C6.51954 9.1056 6.26519 9.00024 5.99997 9.00024H4.49997C4.23475 9.00024 3.9804 9.1056 3.79286 9.29314C3.60533 9.48067 3.49997 9.73503 3.49997 10.0002V11.5002C3.49997 11.7655 3.60533 12.0198 3.79286 12.2074C3.9804 12.3949 4.23475 12.5002 4.49997 12.5002H5.99997C6.26519 12.5002 6.51954 12.3949 6.70708 12.2074C6.89461 12.0198 6.99997 11.7655 6.99997 11.5002V10.0002ZM4.49997 11.5002V10.0002H5.99997V11.5002H4.49997Z" fill="white"/>
<path d="M12 10.0002C12 9.73503 11.8946 9.48067 11.7071 9.29314C11.5195 9.1056 11.2652 9.00024 11 9.00024H9.49997C9.23475 9.00024 8.9804 9.1056 8.79286 9.29314C8.60533 9.48067 8.49997 9.73503 8.49997 10.0002V11.5002C8.49997 11.7655 8.60533 12.0198 8.79286 12.2074C8.9804 12.3949 9.23475 12.5002 9.49997 12.5002H11C11.2652 12.5002 11.5195 12.3949 11.7071 12.2074C11.8946 12.0198 12 11.7655 12 11.5002V10.0002ZM9.49997 11.5002V10.0002H11V11.5002H9.49997Z" fill="white"/>
<path d="M16.5 11.0702C16.6326 11.0702 16.7598 11.0176 16.8535 10.9238C16.9473 10.83 17 10.7029 17 10.5702V10.0002C17 9.73503 16.8946 9.48067 16.7071 9.29314C16.5195 9.1056 16.2652 9.00024 16 9.00024H14.5C14.2348 9.00024 13.9804 9.1056 13.7929 9.29314C13.6053 9.48067 13.5 9.73503 13.5 10.0002V11.4402C13.5 11.5729 13.5526 11.7 13.6464 11.7938C13.7402 11.8876 13.8674 11.9402 14 11.9402C14.1326 11.9402 14.2598 11.8876 14.3535 11.7938C14.4473 11.7 14.5 11.5729 14.5 11.4402V10.0002H16V10.5702C16 10.7029 16.0526 10.83 16.1464 10.9238C16.2402 11.0176 16.3674 11.0702 16.5 11.0702Z" fill="white"/>
<path d="M5.99997 14.0002H4.49997C4.23475 14.0002 3.9804 14.1056 3.79286 14.2931C3.60533 14.4807 3.49997 14.735 3.49997 15.0002V16.5002C3.49997 16.7655 3.60533 17.0198 3.79286 17.2074C3.9804 17.3949 4.23475 17.5002 4.49997 17.5002H5.99997C6.26519 17.5002 6.51954 17.3949 6.70708 17.2074C6.89461 17.0198 6.99997 16.7655 6.99997 16.5002V15.0002C6.99997 14.735 6.89461 14.4807 6.70708 14.2931C6.51954 14.1056 6.26519 14.0002 5.99997 14.0002ZM4.49997 16.5002V15.0002H5.99997V16.5002H4.49997Z" fill="white"/>
<path d="M11.345 14.0657C11.2352 14.0222 11.1181 13.9999 11 14.0002H9.49997C9.23475 14.0002 8.9804 14.1056 8.79286 14.2931C8.60533 14.4807 8.49997 14.735 8.49997 15.0002V16.5002C8.49997 16.7655 8.60533 17.0198 8.79286 17.2074C8.9804 17.3949 9.23475 17.5002 9.49997 17.5002H10.52C10.6526 17.5002 10.7798 17.4476 10.8735 17.3538C10.9673 17.26 11.02 17.1329 11.02 17.0002C11.02 16.8676 10.9673 16.7405 10.8735 16.6467C10.7798 16.5529 10.6526 16.5002 10.52 16.5002H9.49997V15.0002L10.975 14.9947C11.0979 15.0426 11.2348 15.04 11.3558 14.9873C11.4768 14.9347 11.5721 14.8364 11.6209 14.7138C11.6697 14.5913 11.6681 14.4543 11.6164 14.3329C11.5647 14.2116 11.4672 14.1155 11.345 14.0657Z" fill="white"/>
<path d="M17.5 12.0002C16.4122 12.0002 15.3488 12.3228 14.4443 12.9272C13.5399 13.5315 12.8349 14.3905 12.4186 15.3955C12.0024 16.4005 11.8934 17.5063 12.1057 18.5732C12.3179 19.6401 12.8417 20.6201 13.6109 21.3893C14.3801 22.1585 15.3601 22.6823 16.427 22.8946C17.4939 23.1068 18.5997 22.9979 19.6047 22.5816C20.6097 22.1653 21.4687 21.4604 22.0731 20.5559C22.6774 19.6514 23 18.588 23 17.5002C22.9983 16.0421 22.4182 14.6441 21.3872 13.6131C20.3561 12.582 18.9581 12.002 17.5 12.0002ZM17.5 22.0002C16.61 22.0002 15.7399 21.7363 14.9999 21.2419C14.2599 20.7474 13.6831 20.0446 13.3425 19.2223C13.0019 18.4001 12.9128 17.4953 13.0864 16.6223C13.2601 15.7494 13.6887 14.9476 14.318 14.3183C14.9473 13.6889 15.7492 13.2603 16.6221 13.0867C17.495 12.9131 18.3998 13.0022 19.222 13.3428C20.0443 13.6834 20.7471 14.2602 21.2416 15.0002C21.7361 15.7402 22 16.6102 22 17.5002C21.9986 18.6933 21.5241 19.8371 20.6805 20.6808C19.8369 21.5244 18.693 21.9989 17.5 22.0002Z" fill="white"/>
<path d="M18 17.2932V15.0002C18 14.8676 17.9473 14.7405 17.8535 14.6467C17.7598 14.5529 17.6326 14.5002 17.5 14.5002C17.3674 14.5002 17.2402 14.5529 17.1464 14.6467C17.0526 14.7405 17 14.8676 17 15.0002V17.5002C17 17.6328 17.0527 17.76 17.1465 17.8537L18.1465 18.8537C18.2408 18.9448 18.3671 18.9952 18.4982 18.9941C18.6293 18.9929 18.7547 18.9404 18.8474 18.8477C18.9401 18.755 18.9927 18.6295 18.9938 18.4984C18.9949 18.3673 18.9445 18.241 18.8535 18.1467L18 17.2932Z" fill="white"/>
</svg>
