<svg width="300" height="344" viewBox="0 0 300 344" fill="none" xmlns="http://www.w3.org/2000/svg">
<g filter="url(#filter0_d_897_675)">
<rect x="110" y="116" width="80" height="80" rx="40" fill="url(#paint0_linear_897_675)"/>
<g clip-path="url(#clip0_897_675)">
<path d="M160.787 171.921C158.334 171.921 155.763 171.498 153.241 170.638C152.873 170.512 152.677 170.113 152.802 169.745C152.928 169.378 153.327 169.181 153.695 169.307C156.548 170.28 159.543 170.673 162.357 170.444C165.177 170.215 167.69 169.368 169.624 167.995C171.538 166.637 172.084 163.985 170.868 161.959L167.421 156.214C167.221 155.881 167.329 155.449 167.662 155.249C167.995 155.049 168.427 155.157 168.627 155.49L169.775 157.404L170.439 157.732C170.847 157.935 171.221 157.877 171.462 157.793C171.771 157.686 172.031 157.474 172.141 157.241C172.447 156.592 172.596 155.675 172.596 154.439C172.596 152.556 171.681 151.875 170.825 151.865C170.819 151.865 170.812 151.865 170.806 151.865C170.22 151.865 169.613 152.19 169.415 152.759L170.193 153.138C170.543 153.308 170.688 153.729 170.518 154.078C170.347 154.427 169.927 154.572 169.578 154.402L166.401 152.854C165.375 152.355 164.442 152.738 163.91 153.264C163.377 153.79 162.983 154.719 163.47 155.75L166.581 162.338C166.747 162.689 166.596 163.108 166.245 163.274C165.894 163.44 165.475 163.29 165.309 162.938L163.515 159.14C161.876 158.265 159.899 158.052 158.468 158.035L151.709 162.061C151.375 162.26 150.944 162.15 150.745 161.817C150.546 161.483 150.656 161.052 150.989 160.853L157.916 156.727C158.879 156.154 159.243 154.958 158.762 153.946C158.372 153.125 157.503 152.634 156.598 152.723L155.486 152.834C155.169 152.865 154.871 152.68 154.759 152.383C154.613 151.998 154.236 151.494 153.618 151.233C153.19 151.053 152.728 151.024 152.241 151.146C152.507 152.342 152.419 153.707 151.825 155.162L154.39 153.975C154.742 153.812 155.16 153.966 155.323 154.318C155.486 154.671 155.333 155.089 154.98 155.252L149.254 157.9C148.613 158.197 148.067 158.664 147.674 159.252C147.332 159.765 146.93 160.756 146.804 161.095C146.669 161.459 146.264 161.644 145.9 161.509C145.537 161.374 145.351 160.969 145.486 160.605C145.507 160.549 146.001 159.227 146.505 158.472C147.04 157.668 147.787 157.029 148.664 156.624L149.706 156.142C151.059 154.13 151.203 152.368 150.745 151.008C149.994 151.521 148.952 151.871 148.006 151.89C147.62 151.895 147.297 151.589 147.289 151.201C147.282 150.813 147.59 150.492 147.979 150.484C148.813 150.468 149.633 150.096 150.081 149.75C149.822 149.405 149.521 149.107 149.201 148.862C149.002 148.71 148.899 148.464 148.93 148.216C149.001 147.645 148.89 147.198 148.617 146.96C148.336 146.714 147.852 146.658 147.289 146.807C146.987 146.887 146.668 146.757 146.507 146.489C146.197 145.972 145.838 145.478 145.44 145.022C145.185 144.729 145.216 144.285 145.509 144.03C145.801 143.775 146.245 143.806 146.501 144.098C146.843 144.492 147.161 144.91 147.449 145.345C148.274 145.24 149.004 145.431 149.542 145.901C150.095 146.384 150.378 147.116 150.356 147.99C150.931 148.492 151.418 149.109 151.77 149.817C152.793 149.525 153.621 149.708 154.165 149.938C154.861 150.232 155.456 150.754 155.832 151.386L156.459 151.324C157.953 151.176 159.389 151.987 160.033 153.343C160.563 154.46 160.47 155.713 159.876 156.703C160.743 156.786 161.691 156.95 162.622 157.248L162.198 156.351C161.538 154.954 161.822 153.35 162.921 152.264C164.02 151.178 165.628 150.914 167.017 151.59L168.145 152.14C168.305 151.759 168.555 151.419 168.886 151.143C169.424 150.693 170.116 150.45 170.841 150.459C172.415 150.477 174.003 151.715 174.003 154.439C174.003 155.887 173.81 157 173.413 157.841C173.144 158.412 172.587 158.891 171.925 159.121C171.588 159.238 171.241 159.289 170.897 159.273L172.074 161.235C173.666 163.888 172.947 167.361 170.438 169.142C167.85 170.979 164.449 171.921 160.787 171.921ZM150.89 169.622C150.788 169.622 150.684 169.6 150.586 169.553C147.531 168.087 144.842 165.984 142.79 163.458H137.688C131.245 163.458 126.003 158.216 126.003 151.772C126.003 145.329 131.245 140.087 137.688 140.087C140.12 140.087 142.452 140.827 144.43 142.227C144.747 142.451 144.823 142.89 144.598 143.207C144.374 143.524 143.935 143.599 143.618 143.375C141.878 142.144 139.828 141.493 137.688 141.493C132.02 141.493 127.409 146.104 127.409 151.772C127.409 157.44 132.02 162.051 137.688 162.051H143.128C143.344 162.051 143.548 162.151 143.681 162.32C145.626 164.798 148.224 166.86 151.194 168.285C151.544 168.453 151.692 168.873 151.524 169.223C151.403 169.475 151.152 169.622 150.89 169.622ZM139.453 159.52C137.503 159.52 135.917 157.933 135.917 155.983C135.917 154.372 137.227 153.061 138.838 153.061C139.227 153.061 139.542 153.376 139.542 153.765C139.542 154.153 139.227 154.468 138.838 154.468C138.003 154.468 137.323 155.148 137.323 155.983C137.323 157.158 138.279 158.113 139.453 158.113C140.289 158.113 140.969 157.434 140.969 156.598C140.969 156.21 141.283 155.895 141.672 155.895C142.06 155.895 142.375 156.21 142.375 156.598C142.375 158.209 141.064 159.52 139.453 159.52ZM143.418 150.709C143.277 150.709 143.135 150.696 142.994 150.669C142.613 150.597 142.362 150.228 142.435 149.847C142.507 149.466 142.876 149.215 143.257 149.288C143.476 149.329 143.697 149.283 143.881 149.158C144.066 149.033 144.19 148.843 144.231 148.625C144.304 148.243 144.672 147.993 145.054 148.066C145.435 148.138 145.685 148.506 145.613 148.888C145.501 149.475 145.167 149.984 144.673 150.321C144.297 150.576 143.862 150.709 143.418 150.709Z" fill="white"/>
</g>
</g>
<defs>
<filter id="filter0_d_897_675" x="-36.6667" y="-29.7778" width="373.333" height="373.333" filterUnits="userSpaceOnUse" color-interpolation-filters="sRGB">
<feFlood flood-opacity="0" result="BackgroundImageFix"/>
<feColorMatrix in="SourceAlpha" type="matrix" values="0 0 0 0 0 0 0 0 0 0 0 0 0 0 0 0 0 0 127 0" result="hardAlpha"/>
<feOffset dy="0.888889"/>
<feGaussianBlur stdDeviation="73.3333"/>
<feComposite in2="hardAlpha" operator="out"/>
<feColorMatrix type="matrix" values="0 0 0 0 1 0 0 0 0 0.914377 0 0 0 0 0.220833 0 0 0 0.1 0"/>
<feBlend mode="normal" in2="BackgroundImageFix" result="effect1_dropShadow_897_675"/>
<feBlend mode="normal" in="SourceGraphic" in2="effect1_dropShadow_897_675" result="shape"/>
</filter>
<linearGradient id="paint0_linear_897_675" x1="130.964" y1="-0.595743" x2="106.97" y2="156.404" gradientUnits="userSpaceOnUse">
<stop stop-color="#F5ED9B"/>
<stop offset="1" stop-color="#94652A"/>
</linearGradient>
<clipPath id="clip0_897_675">
<rect width="48" height="48" fill="white" transform="translate(126 132)"/>
</clipPath>
</defs>
</svg>
