<svg width="300" height="344" viewBox="0 0 300 344" fill="none" xmlns="http://www.w3.org/2000/svg">
<g filter="url(#filter0_d_897_686)">
<rect x="110" y="116" width="80" height="80" rx="40" fill="url(#paint0_linear_897_686)"/>
<path d="M163.915 142.493C162.979 141.48 161.84 140.675 160.572 140.132C159.304 139.588 157.935 139.318 156.556 139.339C155.313 139.388 154.093 139.685 152.967 140.214C151.84 140.742 150.832 141.49 149.999 142.415C149.167 141.49 148.158 140.742 147.032 140.214C145.906 139.685 144.686 139.388 143.443 139.339C142.063 139.318 140.695 139.588 139.427 140.131C138.159 140.674 137.02 141.479 136.084 142.493C132.165 146.621 132.457 154.61 136.724 159.938C141.802 166.276 149.617 172.495 149.695 172.557C149.782 172.626 149.89 172.663 150.001 172.663C150.112 172.663 150.22 172.626 150.307 172.557C150.385 172.495 158.199 166.276 163.277 159.938C167.542 154.61 167.834 146.621 163.915 142.493ZM162.509 159.323C158.067 164.864 151.487 170.329 149.999 171.539C148.512 170.329 141.931 164.864 137.491 159.323C133.585 154.444 133.261 146.896 136.798 143.171C137.613 142.288 138.599 141.58 139.696 141.09C140.793 140.6 141.979 140.338 143.18 140.32C143.258 140.32 143.336 140.321 143.414 140.323C145.764 140.392 147.97 141.511 149.623 143.473C149.671 143.525 149.729 143.567 149.794 143.596C149.858 143.625 149.929 143.639 149.999 143.639C150.07 143.639 150.14 143.625 150.205 143.596C150.27 143.567 150.328 143.525 150.376 143.473C152.03 141.511 154.235 140.393 156.585 140.323C157.826 140.306 159.056 140.551 160.196 141.042C161.336 141.533 162.36 142.258 163.201 143.171C166.738 146.896 166.413 154.444 162.508 159.323H162.509Z" fill="white"/>
<path d="M136.561 145.518C136.442 145.465 136.307 145.46 136.185 145.506C136.062 145.552 135.964 145.645 135.91 145.764C135.669 146.299 135.479 146.856 135.34 147.427C135.323 147.49 135.318 147.557 135.326 147.622C135.335 147.688 135.356 147.751 135.39 147.808C135.423 147.865 135.467 147.915 135.52 147.954C135.573 147.994 135.634 148.022 135.698 148.038C135.762 148.053 135.829 148.056 135.894 148.046C135.959 148.035 136.021 148.011 136.077 147.976C136.133 147.941 136.181 147.895 136.219 147.841C136.257 147.786 136.283 147.725 136.297 147.66C136.42 147.149 136.591 146.65 136.806 146.17C136.833 146.111 136.848 146.047 136.85 145.983C136.852 145.918 136.841 145.854 136.819 145.793C136.796 145.733 136.761 145.677 136.717 145.63C136.673 145.583 136.62 145.545 136.561 145.518Z" fill="white"/>
<path d="M160.758 154.006H154.266C154.157 154.006 154.051 154.042 153.965 154.108C153.879 154.175 153.817 154.268 153.79 154.374L153.411 155.83L152.027 149.656C152.004 149.55 151.946 149.456 151.863 149.386C151.781 149.317 151.678 149.277 151.57 149.272C151.463 149.268 151.357 149.299 151.269 149.36C151.18 149.421 151.114 149.509 151.079 149.611L148.541 157.405L147.106 150.999C147.082 150.892 147.023 150.795 146.937 150.726C146.852 150.656 146.745 150.617 146.635 150.615C146.524 150.611 146.415 150.646 146.327 150.713C146.239 150.78 146.176 150.875 146.15 150.983L145.354 154.037H139.242C139.112 154.037 138.986 154.089 138.894 154.181C138.802 154.274 138.75 154.399 138.75 154.529C138.75 154.66 138.802 154.785 138.894 154.877C138.986 154.97 139.112 155.022 139.242 155.022H145.734C145.843 155.022 145.949 154.986 146.035 154.919C146.122 154.852 146.183 154.759 146.211 154.653L146.589 153.199L147.973 159.371C147.996 159.477 148.054 159.571 148.136 159.641C148.219 159.71 148.322 159.75 148.43 159.755H148.453C148.557 159.755 148.658 159.723 148.742 159.662C148.826 159.601 148.889 159.514 148.921 159.416L151.459 151.622L152.893 158.027C152.918 158.134 152.977 158.231 153.063 158.301C153.149 158.37 153.255 158.409 153.365 158.411H153.375C153.484 158.411 153.59 158.375 153.676 158.308C153.762 158.242 153.824 158.149 153.851 158.043L154.646 154.99H160.758C160.888 154.99 161.014 154.938 161.106 154.845C161.198 154.753 161.25 154.628 161.25 154.497C161.25 154.367 161.198 154.242 161.106 154.149C161.014 154.057 160.888 154.005 160.758 154.005V154.006Z" fill="white"/>
</g>
<defs>
<filter id="filter0_d_897_686" x="-36.6667" y="-29.7778" width="373.333" height="373.333" filterUnits="userSpaceOnUse" color-interpolation-filters="sRGB">
<feFlood flood-opacity="0" result="BackgroundImageFix"/>
<feColorMatrix in="SourceAlpha" type="matrix" values="0 0 0 0 0 0 0 0 0 0 0 0 0 0 0 0 0 0 127 0" result="hardAlpha"/>
<feOffset dy="0.888889"/>
<feGaussianBlur stdDeviation="73.3333"/>
<feComposite in2="hardAlpha" operator="out"/>
<feColorMatrix type="matrix" values="0 0 0 0 1 0 0 0 0 0.914377 0 0 0 0 0.220833 0 0 0 0.1 0"/>
<feBlend mode="normal" in2="BackgroundImageFix" result="effect1_dropShadow_897_686"/>
<feBlend mode="normal" in="SourceGraphic" in2="effect1_dropShadow_897_686" result="shape"/>
</filter>
<linearGradient id="paint0_linear_897_686" x1="130.964" y1="-0.595743" x2="106.97" y2="156.404" gradientUnits="userSpaceOnUse">
<stop stop-color="#F5ED9B"/>
<stop offset="1" stop-color="#94652A"/>
</linearGradient>
</defs>
</svg>
