<svg width="24" height="24" viewBox="0 0 24 24" fill="none" xmlns="http://www.w3.org/2000/svg">
<g clip-path="url(#clip0_897_738)">
<path d="M12 0.000244141C5.37259 0.000244141 -3.05176e-05 5.37287 -3.05176e-05 12.0002C-3.05176e-05 18.6276 5.37259 24.0002 12 24.0002C18.6273 24.0002 24 18.6276 24 12.0002C23.9932 5.37549 18.6247 0.00699414 12 0.000244141ZM12 22.9566C5.94897 22.9566 1.04359 18.0512 1.04359 12.0002C1.04359 5.94924 5.94897 1.04387 12 1.04387C18.051 1.04387 22.9563 5.94924 22.9563 12.0002C22.9492 18.0482 18.048 22.9495 12 22.9566ZM17.7375 12.0002C17.7367 12.2882 17.5038 12.5211 17.2158 12.5219H12C11.712 12.5211 11.4791 12.2882 11.4783 12.0002V4.69599C11.4783 4.40799 11.7116 4.17437 11.9996 4.17399C12.2876 4.17362 12.5212 4.40724 12.5216 4.69524V4.69599V11.4786H17.2173C17.5046 11.4801 17.7367 11.713 17.7375 12.0002Z" fill="white"/>
</g>
<defs>
<clipPath id="clip0_897_738">
<rect width="24" height="24" fill="white"/>
</clipPath>
</defs>
</svg>
