<svg width="20" height="21" viewBox="0 0 20 21" fill="none" xmlns="http://www.w3.org/2000/svg">
<g clip-path="url(#clip0_897_1824)">
<path d="M10.0001 0.87207C5.92621 0.87207 2.612 4.18628 2.612 8.26016C2.612 9.60132 3.21348 11.0437 3.23868 11.1046C3.43295 11.5657 3.81626 12.2819 4.09266 12.7017L9.15828 20.3771C9.36558 20.6917 9.67241 20.8721 10.0001 20.8721C10.3278 20.8721 10.6346 20.6917 10.8419 20.3775L15.908 12.7017C16.1848 12.2819 16.5677 11.5657 16.7619 11.1046C16.7871 11.0442 17.3882 9.60175 17.3882 8.26016C17.3882 4.18628 14.074 0.87207 10.0001 0.87207ZM15.9605 10.7673C15.7871 11.1806 15.4303 11.8469 15.1822 12.2232L10.1161 19.899C10.0162 20.0507 9.98445 20.0507 9.88449 19.899L4.81843 12.2232C4.57028 11.8469 4.21348 11.1802 4.04007 10.7669C4.03269 10.7491 3.48119 9.4214 3.48119 8.26016C3.48119 4.66564 6.40557 1.74126 10.0001 1.74126C13.5946 1.74126 16.519 4.66564 16.519 8.26016C16.519 9.42313 15.9662 10.7543 15.9605 10.7673Z" fill="#F8F8F8"/>
<path d="M10.0001 4.34961C7.8432 4.34961 6.08875 6.1045 6.08875 8.26095C6.08875 10.4174 7.8432 12.1723 10.0001 12.1723C12.157 12.1723 13.9114 10.4174 13.9114 8.26095C13.9114 6.1045 12.157 4.34961 10.0001 4.34961ZM10.0001 11.3031C8.32299 11.3031 6.95793 9.93848 6.95793 8.26095C6.95793 6.58342 8.32299 5.2188 10.0001 5.2188C11.6772 5.2188 13.0422 6.58342 13.0422 8.26095C13.0422 9.93848 11.6772 11.3031 10.0001 11.3031Z" fill="#F8F8F8"/>
</g>
<defs>
<clipPath id="clip0_897_1824">
<rect width="20" height="20" fill="white" transform="translate(0 0.87207)"/>
</clipPath>
</defs>
</svg>
