<svg width="41" height="40" viewBox="0 0 41 40" fill="none" xmlns="http://www.w3.org/2000/svg">
<g clip-path="url(#clip0_897_1188)">
<path d="M40.7909 22.2966C40.4954 20.2488 38.8866 18.6401 36.8388 18.3445V17.1325C36.8388 13.7886 34.2969 11.066 31.1722 11.066C28.1376 11.066 25.597 13.7059 25.5057 16.9512H25.5443L25.5057 16.9579V30.0957C25.5057 34.2956 22.3657 37.7062 18.5058 37.7062C14.6458 37.7062 11.5059 34.2909 11.5059 30.0957V28.9577C12.4725 28.9577 13.5058 28.257 13.5058 26.2911V24.6144C17.7844 23.5204 20.8391 19.8465 20.8391 15.6812V14.2912H19.5058L19.4778 5.6147C19.4681 4.00864 18.3156 2.63732 16.7351 2.35141C16.3942 1.30701 15.2711 0.736685 14.2267 1.07768C13.1823 1.41859 12.6119 2.54166 12.9529 3.58614C13.2938 4.63055 14.4169 5.20087 15.4614 4.85988C16.0206 4.67729 16.4704 4.25655 16.6898 3.71073C17.5439 3.95372 18.1355 4.73071 18.1424 5.6187L18.1724 14.2912H16.8391V15.7006C16.786 18.0194 15.2313 20.0346 13.0018 20.6745C11.8089 21.053 10.5281 21.053 9.33523 20.6745C7.10835 20.0324 5.5572 18.0176 5.50595 15.7006V14.2912H3.50598V5.6247C3.50982 4.72363 4.11581 3.93631 4.98596 3.70206C5.39171 4.73496 6.55794 5.24329 7.59084 4.83754C8.62374 4.4318 9.13207 3.26548 8.72632 2.23266C8.32058 1.19985 7.15426 0.691436 6.12145 1.09718C5.56179 1.31709 5.12996 1.776 4.94463 2.34808C3.3469 2.62107 2.17709 4.0038 2.17267 5.6247V14.2912H0.839355V15.6779C0.839355 19.8478 3.89598 23.5231 8.17258 24.6144V26.2911C8.17258 28.257 9.2059 28.9577 10.1726 28.9577V30.0957C10.1726 35.0289 13.9105 39.0395 18.5058 39.0395C23.101 39.0395 26.839 35.0243 26.839 30.0957V16.9899C26.9056 14.4599 28.8509 12.4013 31.1722 12.4013C33.5615 12.4013 35.5055 14.5239 35.5055 17.1345V18.3445C32.9546 18.7127 31.1852 21.0791 31.5534 23.6299C31.9216 26.1808 34.288 27.9502 36.8388 27.582C39.3897 27.2139 41.1591 24.8474 40.7909 22.2966ZM14.8392 3.62473C14.471 3.62473 14.1725 3.32623 14.1725 2.95807C14.1725 2.58991 14.471 2.29141 14.8392 2.29141C15.2073 2.29141 15.5058 2.58991 15.5058 2.95807C15.5058 3.32623 15.2073 3.62473 14.8392 3.62473ZM6.83927 2.29141C7.20743 2.29141 7.50593 2.58991 7.50593 2.95807C7.50593 3.32623 7.20743 3.62473 6.83927 3.62473C6.47111 3.62473 6.17261 3.32623 6.17261 2.95807C6.17261 2.58991 6.47111 2.29141 6.83927 2.29141ZM2.17267 15.6779V15.6246H4.17264V15.7006C4.22264 18.5981 6.15036 21.1268 8.93124 21.9425C10.3885 22.4039 11.9526 22.4039 13.4098 21.9425C16.192 21.1279 18.1215 18.5991 18.1724 15.7006V15.6246H19.5058V15.6779C19.5058 19.3865 16.6471 22.6498 12.7058 23.4391C11.7804 23.6244 10.8324 23.6709 9.89322 23.5771C9.58406 23.5471 9.27673 23.5006 8.97257 23.4378C5.03129 22.6498 2.17267 19.3865 2.17267 15.6779ZM10.1726 27.6244C9.57256 27.6244 9.5059 26.6911 9.5059 26.2911V24.8764C9.55923 24.8831 9.61389 24.8857 9.66789 24.8911C9.73456 24.8984 9.80123 24.9037 9.86789 24.9097C10.1832 24.9377 10.5012 24.9564 10.8219 24.9571H10.8552C11.1752 24.9571 11.4925 24.9377 11.8059 24.9097C11.8725 24.9037 11.9432 24.8984 12.0119 24.8911C12.0645 24.8851 12.1192 24.8831 12.1719 24.8764V26.2911C12.1719 26.6911 12.1052 27.6244 11.5052 27.6244H10.1726ZM36.1722 26.2911C34.3313 26.2911 32.8389 24.7987 32.8389 22.9578C32.8389 21.1169 34.3313 19.6245 36.1722 19.6245C38.0131 19.6245 39.5055 21.1169 39.5055 22.9578C39.5033 24.7978 38.0121 26.2889 36.1722 26.2911Z" fill="#F8F8F8"/>
<path d="M36.1721 20.959C35.0675 20.959 34.1721 21.8544 34.1721 22.959C34.1721 24.0635 35.0675 24.9589 36.1721 24.9589C37.2767 24.9589 38.1721 24.0635 38.1721 22.959C38.1721 21.8544 37.2767 20.959 36.1721 20.959ZM36.1721 23.6256C35.8039 23.6256 35.5054 23.3271 35.5054 22.959C35.5054 22.5908 35.8039 22.2923 36.1721 22.2923C36.5403 22.2923 36.8387 22.5908 36.8387 22.959C36.8387 23.3271 36.5403 23.6256 36.1721 23.6256Z" fill="#F8F8F8"/>
</g>
<defs>
<clipPath id="clip0_897_1188">
<rect width="40" height="40" fill="white" transform="translate(0.839355)"/>
</clipPath>
</defs>
</svg>
