<svg width="24" height="25" viewBox="0 0 24 25" fill="none" xmlns="http://www.w3.org/2000/svg">
<path d="M21.8906 4.13477H2.10938C0.943922 4.13477 0 5.08455 0 6.24414V18.9004C0 20.0669 0.950859 21.0098 2.10938 21.0098H21.8906C23.0463 21.0098 24 20.0709 24 18.9004V6.24414C24 5.08661 23.0598 4.13477 21.8906 4.13477ZM21.5952 5.54102C21.1642 5.96969 13.7476 13.3473 13.4916 13.602C13.0931 14.0004 12.5634 14.2198 12 14.2198C11.4366 14.2198 10.9069 14.0004 10.5071 13.6007C10.3349 13.4293 3.00014 6.13323 2.40478 5.54102H21.5952ZM1.40625 18.6142V6.53125L7.48303 12.576L1.40625 18.6142ZM2.40567 19.6035L8.48006 13.5677L9.51408 14.5963C10.1781 15.2604 11.061 15.626 12 15.626C12.939 15.626 13.8219 15.2604 14.4846 14.5976L15.5199 13.5677L21.5943 19.6035H2.40567ZM22.5938 18.6142L16.517 12.576L22.5938 6.53125V18.6142Z" fill="#F8F8F8"/>
</svg>
