<svg width="36" height="37" viewBox="0 0 36 37" fill="none" xmlns="http://www.w3.org/2000/svg">
<g clip-path="url(#clip0_897_1960)">
<path d="M11.0923 9.5459C9.86874 9.5459 8.98047 10.3899 8.98047 11.5519C8.98047 12.7136 9.85111 13.5568 11.05 13.5568C11.6719 13.5568 12.2077 13.3551 12.5997 12.9736C12.9757 12.6075 13.1829 12.1026 13.1825 11.5429C13.1551 10.3672 12.2954 9.5459 11.0923 9.5459ZM12.0538 12.4124C11.8109 12.6486 11.4636 12.7735 11.05 12.7735C10.2929 12.7735 9.76378 12.2714 9.76378 11.5519C9.76378 10.8207 10.2976 10.3292 11.0923 10.3292C11.8689 10.3292 12.382 10.8129 12.3996 11.5523C12.3992 11.8899 12.2766 12.195 12.0538 12.4124Z" fill="url(#paint0_linear_897_1960)"/>
<path d="M9.35608 27.1609H12.8763V14.2188H9.35608V27.1609ZM10.1394 15.0021H12.093V26.3772H10.1394V15.0021Z" fill="url(#paint1_linear_897_1960)"/>
<path d="M22.1588 14.2188C20.5264 14.2188 19.5269 14.7823 18.948 15.3122L18.8379 14.2188H14.8552V27.1605H18.7557V20.3587C18.7557 20.0657 18.8744 19.4575 18.9488 19.2969C19.4199 18.2822 20.0556 18.2822 21.0183 18.2822C22.1271 18.2822 23.0639 19.322 23.0639 20.5526V27.1613H26.9804V19.8492C26.9804 15.9804 24.4809 14.2188 22.1588 14.2188ZM26.1971 26.3776H23.8472V20.5522C23.8472 18.8967 22.5516 17.4985 21.0183 17.4985C20.0344 17.4985 18.9198 17.4985 18.2379 18.9672C18.0973 19.2707 17.972 19.998 17.972 20.3587V26.3776H15.6385V15.0021H18.1294L18.2892 16.5859H18.9312L19.0459 16.4007C19.3071 15.98 20.1331 15.0017 22.1588 15.0017C24.1037 15.0017 26.1971 16.5181 26.1971 19.848V26.3776Z" fill="url(#paint2_linear_897_1960)"/>
</g>
<defs>
<linearGradient id="paint0_linear_897_1960" x1="10.0816" y1="3.70019" x2="8.93101" y2="11.5876" gradientUnits="userSpaceOnUse">
<stop stop-color="#94652A"/>
<stop offset="1" stop-color="#F5ED9B"/>
</linearGradient>
<linearGradient id="paint1_linear_897_1960" x1="10.2785" y1="-4.6438" x2="-0.821633" y2="15.1115" gradientUnits="userSpaceOnUse">
<stop stop-color="#94652A"/>
<stop offset="1" stop-color="#F5ED9B"/>
</linearGradient>
<linearGradient id="paint2_linear_897_1960" x1="18.0326" y1="-4.64437" x2="13.9023" y2="20.6749" gradientUnits="userSpaceOnUse">
<stop stop-color="#94652A"/>
<stop offset="1" stop-color="#F5ED9B"/>
</linearGradient>
<clipPath id="clip0_897_1960">
<rect width="18" height="18" fill="white" transform="translate(8.98047 9.35254)"/>
</clipPath>
</defs>
</svg>
