<svg width="160" height="40" viewBox="0 0 160 40" fill="none" xmlns="http://www.w3.org/2000/svg">
<g clip-path="url(#clip0_897_1568)">
<path fill-rule="evenodd" clip-rule="evenodd" d="M151.219 4.60352C149.58 4.60352 147.472 4.75961 146.692 4.75961C146.263 4.75961 144.546 4.68156 144.038 4.68156V5.11083C144.936 5.26693 145.404 5.61815 145.404 6.43766V18.3401C145.404 19.1986 144.897 19.5499 143.999 19.706V20.1352C144.507 20.1352 146.068 20.0572 146.536 20.0572C147.277 20.0572 149.268 20.1742 150.907 20.1742C156.565 20.1742 159.999 16.8181 159.999 12.2913C160.038 7.64742 156.721 4.60352 151.219 4.60352ZM84.37 4.64254C83.5505 4.64254 81.4041 4.75961 80.6236 4.75961C80.1553 4.75961 78.5553 4.68156 78.009 4.68156V5.11083C78.9846 5.26693 79.3748 5.73522 79.3748 6.47668V18.3011C79.3748 19.1206 78.8675 19.5499 78.009 19.706V20.1352C78.5163 20.1352 80.1553 20.0572 80.5846 20.0572C81.0529 20.0572 82.7309 20.1352 83.2383 20.1352V19.706C82.3017 19.5108 81.8334 19.0816 81.8334 18.3011V12.9938C82.1066 13.0328 82.3017 13.0718 82.5358 13.1108C83.7066 13.306 84.37 13.8523 84.8773 14.5157C85.7358 15.5694 87.2578 17.7547 88.0773 18.7694C89.0529 19.9401 90.0285 20.4084 91.3163 20.4084C91.9017 20.4084 92.6431 20.3303 93.1505 20.2133V19.9011C92.1749 19.8621 91.1992 18.8474 90.4968 17.9889C89.7553 17.1303 87.9212 14.5547 87.2578 13.7742C86.7114 13.1499 86.2041 12.8377 86.2041 12.8377C88.5456 12.2523 90.0675 10.8864 90.0675 8.81815C90.1066 6.16449 88.0383 4.64254 84.37 4.64254ZM132.955 4.64254C132.097 4.64254 129.989 4.75961 129.209 4.75961C128.741 4.75961 127.141 4.68156 126.633 4.68156V5.11083C127.609 5.26693 127.999 5.73522 127.999 6.47668V18.3011C127.999 19.1206 127.492 19.5499 126.633 19.706V20.1352C127.141 20.1352 128.78 20.0572 129.209 20.0572C129.677 20.0572 131.355 20.1352 131.902 20.1352V19.706C130.965 19.5108 130.458 19.0816 130.458 18.3011V12.9938C130.731 13.0328 130.926 13.0718 131.16 13.1108C132.331 13.306 132.994 13.8523 133.502 14.5157C134.36 15.5694 135.804 17.7547 136.663 18.7694C137.638 19.9401 138.614 20.4084 139.902 20.4084C140.487 20.4084 141.268 20.3303 141.736 20.2133V19.9011C140.76 19.8621 139.824 18.8474 139.082 17.9889C138.341 17.1303 136.546 14.5547 135.921 13.7742C135.375 13.1499 134.868 12.8377 134.868 12.8377C137.209 12.2523 138.731 10.8864 138.731 8.81815C138.692 6.16449 136.624 4.64254 132.955 4.64254ZM66.848 4.64254C66.848 4.64254 66.5748 5.65717 66.3797 6.12546L61.4627 17.9889C61.1114 18.8474 60.5651 19.4718 59.5895 19.706V20.0962L61.8139 20.0572C62.1261 20.0572 63.4919 20.0962 63.9992 20.0962V19.706C63.1407 19.4718 62.9066 19.1206 62.9066 18.7303C62.9066 18.4572 63.0627 18.0279 63.1407 17.7547L64.1553 15.2181H69.9309L71.0236 17.7547C71.1797 18.145 71.2968 18.4962 71.2968 18.8084C71.2968 19.1596 71.0627 19.5499 70.3212 19.745V20.1352C70.9066 20.1352 72.5456 20.0962 72.9748 20.0962C73.3651 20.0962 75.1212 20.1352 75.6675 20.1352V19.745C74.6529 19.4718 74.2236 18.8864 73.8724 18.0669L68.6822 6.20351C68.487 5.6962 68.2529 4.72058 68.2529 4.72058L66.848 4.64254ZM115.668 4.64254C115.668 4.64254 115.433 5.65717 115.199 6.12546L110.282 17.9889C109.931 18.8474 109.385 19.4718 108.448 19.706V20.0962L110.711 20.0572C111.024 20.0572 112.311 20.0962 112.819 20.0962V19.706C111.96 19.4718 111.726 19.1206 111.726 18.7303C111.726 18.4572 111.843 18.0279 111.96 17.7547L112.975 15.2181H118.75L119.843 17.7547C119.999 18.145 120.116 18.4962 120.116 18.8084C120.116 19.1596 119.882 19.5499 119.141 19.745V20.1352C119.687 20.1352 121.365 20.0962 121.794 20.0962C122.185 20.0962 123.941 20.1352 124.526 20.1352V19.745C123.472 19.4718 123.082 18.8864 122.731 18.0669L117.502 6.16449C117.307 5.65717 117.033 4.68156 117.033 4.68156L115.668 4.64254ZM40.7797 4.72058V5.14985C41.5212 5.34498 42.0285 5.69619 42.0285 6.47668V18.4181C42.0285 19.2377 41.5212 19.5499 40.7797 19.745V20.1352L43.1992 20.0962C43.6675 20.0962 45.3846 20.1352 45.7748 20.1352V19.745C45.0334 19.5499 44.5261 19.2377 44.5261 18.4181V12.7596H53.4627V18.4181C53.4627 19.2377 52.9553 19.5499 52.2529 19.745V20.1352C52.6431 20.1352 54.3212 20.0962 54.7895 20.0962L57.248 20.1352V19.745C56.5066 19.5499 55.9602 19.2377 55.9602 18.4181V6.47668C55.9602 5.65717 56.5066 5.34498 57.248 5.14985V4.72058L54.7895 4.79864C54.3212 4.79864 52.6431 4.72058 52.2529 4.72058V5.14985C52.9944 5.30595 53.4627 5.65717 53.4627 6.47668V11.4718H44.5261V6.47668C44.5261 5.65717 45.0724 5.34498 45.7748 5.14985V4.72058C45.3846 4.72058 43.6675 4.79864 43.1992 4.79864C42.77 4.75961 41.1309 4.72058 40.7797 4.72058ZM92.7212 4.72058V5.14985C93.5797 5.34498 94.1261 5.89132 94.4383 6.63278L100.526 20.1742H101.697L107.238 7.1401C107.746 5.93034 108.331 5.384 109.268 5.14985V4.72058C108.721 4.72058 107.277 4.79864 106.926 4.79864C106.536 4.79864 105.326 4.72058 104.858 4.72058V5.14985C105.482 5.26693 105.911 5.61814 105.911 6.08644C105.911 6.51571 105.716 7.10108 105.404 7.80351L101.658 16.8572L97.6773 7.80351C97.248 6.86693 97.0139 6.35961 97.0139 6.00839C97.0139 5.50107 97.5992 5.2279 98.0675 5.14985V4.72058C97.5212 4.72058 95.8822 4.79864 95.4919 4.79864C95.1017 4.79864 93.2675 4.72058 92.7212 4.72058ZM83.6285 5.61815C86.1651 5.61815 87.57 6.90595 87.57 8.97425C87.57 10.4181 86.6724 12.0962 83.7846 12.0962C83.0822 12.0962 82.3407 12.0572 81.8724 12.0181V5.77425C82.4578 5.6962 83.0431 5.61815 83.6285 5.61815ZM132.214 5.61815C134.75 5.61815 136.116 6.90595 136.116 8.97425C136.116 10.4181 135.219 12.0962 132.331 12.0962C131.629 12.0962 130.887 12.0572 130.419 12.0181V5.77425C131.043 5.6962 131.629 5.61815 132.214 5.61815ZM150.516 5.61815C154.809 5.61815 157.346 8.4279 157.346 12.4474C157.346 16.3108 154.926 19.0816 150.321 19.0816C149.502 19.0816 148.487 19.0035 147.941 18.9255V5.77425C148.526 5.6962 149.619 5.61815 150.516 5.61815ZM66.9651 8.23278L69.4236 13.9303H64.7017L66.9651 8.23278ZM115.785 8.23278L118.243 13.9303H113.521L115.785 8.23278Z" fill="#231F20"/>
<path fill-rule="evenodd" clip-rule="evenodd" d="M16.6248 0H0.0394205L0.000396729 13.2683C0.000396729 29.5024 16.3126 39.8439 16.4687 39.961L16.5077 40C16.5467 40 16.6638 39.922 16.6638 39.922C19.4345 38.1268 33.2492 28.3317 33.2492 13.3463V0.0390208C33.2492 -3.57337e-06 16.6248 0 16.6248 0Z" fill="#C5112E"/>
<path d="M0.232849 13.2322V0.0419922H33.2865C33.2865 0.0419922 33.2865 1.99321 33.2865 13.3493C33.2865 30.0908 16.6231 39.8859 16.6231 39.8859C16.6231 39.8859 0.232849 29.5835 0.232849 13.2322Z" stroke="black" stroke-width="0.591102"/>
<path fill-rule="evenodd" clip-rule="evenodd" d="M108.838 27.1226C107.199 27.1226 106.146 27.9811 106.146 29.3079C106.146 30.8299 107.668 31.4152 108.409 31.7665C109.424 32.2738 110.282 32.664 110.282 33.5226C110.282 34.3421 109.619 34.8494 108.565 34.8494C108.097 34.8494 107.511 34.7323 107.121 34.4591C106.77 34.225 106.497 33.7957 106.38 33.3665H106.146V35.0445C106.731 35.1226 107.394 35.4348 108.526 35.4348C110.399 35.4348 111.414 34.4982 111.414 33.2104C111.414 31.8445 110.204 31.2591 109.111 30.7908C108.214 30.4006 107.238 29.8933 107.238 28.9957C107.238 28.3713 107.668 27.7469 108.76 27.7469C109.697 27.7469 110.555 28.0982 110.868 29.0348H111.102V27.3957C110.438 27.3957 109.892 27.1226 108.838 27.1226ZM80.6627 27.1226C78.1651 27.1226 76.448 28.8787 76.448 31.2982C76.448 33.6006 77.7749 35.3957 80.7017 35.3957C82.1066 35.3957 82.9261 34.9274 83.5114 35.0055L83.5895 33.2494H83.3553C82.9651 34.3811 82.0285 34.8104 80.7797 34.8104C78.5553 34.8104 77.7749 32.8591 77.7749 31.2591C77.7749 29.3079 78.7505 27.7079 80.6236 27.7079C81.7163 27.7079 82.77 28.2543 83.1992 29.3079H83.4334L83.3553 27.5518C82.6139 27.5908 81.8724 27.1226 80.6627 27.1226ZM117.775 27.1226C115.277 27.1226 113.56 28.8787 113.56 31.2982C113.56 33.6006 114.926 35.3957 117.853 35.3957C119.258 35.3957 120.077 34.9274 120.663 35.0055L120.741 33.2494H120.507C120.116 34.3811 119.219 34.8104 117.931 34.8104C115.707 34.8104 114.926 32.8591 114.926 31.2591C114.926 29.3079 115.902 27.7079 117.775 27.7079C118.868 27.7079 119.921 28.2543 120.35 29.3079H120.585L120.507 27.5518C119.765 27.5908 119.024 27.1226 117.775 27.1226ZM137.521 27.1226C135.024 27.1226 133.424 28.9957 133.424 31.2982C133.424 33.6006 135.024 35.3957 137.521 35.3957C140.019 35.3957 141.619 33.5616 141.619 31.2982C141.619 28.9957 140.019 27.1226 137.521 27.1226ZM147.55 27.1226C145.053 27.1226 143.453 28.9957 143.453 31.2982C143.453 33.6006 145.053 35.3957 147.55 35.3957C150.048 35.3957 151.648 33.5616 151.648 31.2982C151.609 28.9957 150.048 27.1226 147.55 27.1226ZM58.809 27.2006C58.6529 27.2787 58.3797 27.2787 58.2236 27.2787H53.2285V27.5128C53.7358 27.5909 53.9309 27.825 53.9309 28.2152V34.303C53.9309 34.7323 53.6578 34.9665 53.2285 35.0445V35.2787L54.5944 35.2396H57.1309C57.9895 35.2396 58.4578 35.2396 59.1992 35.3177L59.4334 33.6787L59.1992 33.6396C58.9651 34.225 58.6529 34.6543 57.6383 34.6543H55.2187V31.4152H56.9358C57.17 31.4152 57.4822 31.4543 57.5992 31.4933C57.9505 31.5713 58.1066 31.8445 58.2236 32.1567H58.4578C58.4578 31.8835 58.4188 31.2982 58.4188 31.1421C58.4188 30.986 58.4188 30.4396 58.4578 30.2055H58.2236C58.1456 30.5177 57.9895 30.7518 57.5992 30.8299C57.4822 30.8689 57.17 30.8689 56.9358 30.8689H55.2187V27.9811H57.3261C58.3017 27.9811 58.5749 28.3713 58.77 28.8787H59.0041L59.0431 27.2787H58.809V27.2006ZM65.209 27.2396C64.3505 27.2396 63.3358 27.3177 62.9456 27.3177C62.7114 27.3177 61.8139 27.2787 61.5797 27.2787V27.5128C62.048 27.5909 62.2822 27.7469 62.2822 28.1762V34.303C62.2822 34.7323 62.009 34.9274 61.5407 35.0055V35.2396L62.8675 35.2006C63.2578 35.2006 64.2334 35.2787 65.0529 35.2787C67.9407 35.2787 69.7358 33.5616 69.7358 31.2201C69.7358 28.8006 68.0578 27.2396 65.209 27.2396ZM88.3895 27.2396C88.3895 27.2396 88.2724 27.747 88.1553 28.0201L85.6187 34.1469C85.4236 34.5762 85.1505 34.9274 84.6431 35.0445V35.2396L85.8139 35.2006C85.97 35.2006 86.6334 35.2396 86.9066 35.2396V35.0445C86.4773 34.9274 86.3602 34.7323 86.3602 34.5372C86.3602 34.3811 86.4383 34.186 86.4773 34.0299L86.9846 32.703H89.9505L90.5358 33.9908C90.6139 34.186 90.6919 34.3811 90.6919 34.5372C90.6919 34.7323 90.5749 34.9274 90.1846 35.0445V35.2396C90.4968 35.2396 91.3553 35.2006 91.5505 35.2006C91.7456 35.2006 92.6822 35.2396 92.9553 35.2396V35.0445C92.409 34.9274 92.2139 34.6152 92.0188 34.186L89.3261 28.0591C89.209 27.786 89.0919 27.2787 89.0919 27.2787L88.3895 27.2396ZM123.004 27.2787V27.5128C123.394 27.6299 123.629 27.786 123.629 28.1762V34.3421C123.629 34.7713 123.355 34.9274 123.004 35.0055V35.2006L124.253 35.1616C124.487 35.1616 125.385 35.2006 125.58 35.2006V35.0055C125.189 34.8884 124.916 34.7323 124.916 34.3421V31.4152H129.482V34.3421C129.482 34.7713 129.209 34.9274 128.858 35.0055V35.2006C129.053 35.2006 129.911 35.1616 130.185 35.1616L131.472 35.2006V35.0055C131.082 34.8884 130.809 34.7323 130.809 34.3421V28.1762C130.809 27.7469 131.082 27.5909 131.472 27.5128V27.2787L130.185 27.3177C129.95 27.3177 129.053 27.2787 128.858 27.2787V27.5128C129.248 27.5909 129.482 27.786 129.482 28.1762V30.7518H124.916V28.1762C124.916 27.7469 125.189 27.5909 125.58 27.5128V27.2787C125.385 27.2787 124.487 27.3177 124.253 27.3177L123.004 27.2787ZM71.609 27.2787V27.5128C72.0773 27.6299 72.3114 27.825 72.3114 28.2543V34.303C72.3114 34.7323 72.0773 34.9274 71.609 35.0445V35.2787C71.8822 35.2787 72.7797 35.2396 73.0139 35.2396L74.3797 35.2787V35.0445C73.9114 34.9274 73.6383 34.7323 73.6383 34.303V28.2543C73.6383 27.825 73.8724 27.6299 74.3797 27.5128V27.2787C74.1066 27.2787 73.209 27.3177 73.0139 27.3177L71.609 27.2787ZM94.4773 27.2787V27.5128C94.9456 27.6299 95.1797 27.825 95.1797 28.2543V34.303C95.1797 34.7323 94.9456 34.9274 94.4773 35.0445V35.2787C94.7505 35.2787 95.648 35.2396 95.8431 35.2396H98.3797C99.2383 35.2396 99.7066 35.2396 100.448 35.3177L100.682 33.6787L100.448 33.6396C100.175 34.225 99.9017 34.6543 98.848 34.6543H96.4285V28.2933C96.4285 27.864 96.6627 27.6689 97.17 27.5518V27.3177L95.8041 27.3567L94.4773 27.2787ZM153.482 27.2787V27.5128C153.95 27.6299 154.224 27.825 154.224 28.2543V34.303C154.224 34.7323 153.989 34.9274 153.482 35.0445V35.2787C153.755 35.2787 154.692 35.2396 154.887 35.2396H157.424C158.282 35.2396 158.75 35.2396 159.492 35.3177L159.726 33.6787L159.492 33.6396C159.219 34.225 158.946 34.6543 157.931 34.6543H155.511V28.2933C155.511 27.864 155.746 27.6689 156.214 27.5518V27.3177C155.941 27.3177 155.082 27.3567 154.848 27.3567L153.482 27.2787ZM41.4041 27.3177V27.5518C41.8724 27.6299 42.1066 27.864 42.0675 28.2543L41.5992 34.186C41.5602 34.6543 41.287 35.0055 40.7797 35.1226V35.3177H41.9114C42.0675 35.3177 42.77 35.3177 43.0041 35.3177V35.1226C42.4578 34.9665 42.3407 34.6543 42.3407 34.303L42.6919 29.0348L45.3846 35.3177H45.8529L48.5846 29.0348L48.9358 34.303C48.9358 34.6543 48.8188 34.9665 48.2724 35.1226V35.3177C48.5456 35.3177 49.4822 35.3177 49.6383 35.3177H51.0041V35.1226C50.4968 35.0055 50.2627 34.7323 50.1846 34.186L49.7553 28.2543C49.7163 27.864 49.9114 27.6689 50.3797 27.5518V27.3177C50.0675 27.3177 49.5212 27.3567 49.3261 27.3567C49.1309 27.3567 48.7407 27.3177 48.5066 27.3177L45.8919 33.4445L43.2773 27.3177C43.0431 27.3177 42.6139 27.3567 42.4188 27.3567C42.3017 27.3177 41.7163 27.3177 41.4041 27.3177ZM137.521 27.7079C139.394 27.7079 140.214 29.464 140.214 31.2982C140.214 33.1323 139.394 34.8494 137.521 34.8494C135.648 34.8494 134.829 33.1713 134.829 31.2982C134.829 29.464 135.648 27.7079 137.521 27.7079ZM147.511 27.7079C149.385 27.7079 150.204 29.464 150.204 31.2982C150.204 33.1323 149.385 34.8494 147.511 34.8494C145.638 34.8494 144.819 33.1713 144.819 31.2982C144.819 29.464 145.677 27.7079 147.511 27.7079ZM64.8188 27.7469C67.0431 27.7469 68.37 29.1908 68.37 31.2591C68.37 33.3665 67.1212 34.6933 64.7407 34.6933C64.3114 34.6933 63.8431 34.6543 63.5309 34.6152V27.825C63.8822 27.786 64.3895 27.7469 64.8188 27.7469ZM88.4675 29.0738L89.7163 32.0396H87.2578L88.4675 29.0738Z" fill="#C5112E"/>
<path fill-rule="evenodd" clip-rule="evenodd" d="M23.2977 32.5097C23.2197 32.3926 23.0636 32.2365 22.9855 32.1585C22.8685 31.5731 23.766 31.1829 23.2977 30.5585C23.1807 30.2072 23.2587 29.6999 22.9075 29.4268C22.6343 29.2316 22.2831 29.1926 22.0099 28.9585C22.0099 28.8024 22.205 28.8414 22.3221 28.8024C22.7904 28.6853 23.2197 29.2707 23.5709 28.8414C23.6099 28.5292 23.2977 28.217 23.1026 28.0219C22.4002 27.5146 21.3075 27.7097 20.7611 26.9682L20.8392 26.8902C21.5416 27.0463 22.2831 26.9292 22.7904 26.4609C23.1026 26.0707 23.4148 25.6804 23.8831 25.5633C24.3514 25.2121 24.4294 24.5877 24.4294 23.9633C24.4685 23.7292 24.5465 23.495 24.7416 23.339C25.0148 23.1048 25.6782 23.1828 25.5221 22.6755C25.1709 22.4804 24.7807 22.3243 24.3514 22.3633C24.1563 22.2463 24.3904 22.0902 24.4685 22.0121C25.1709 21.5438 26.2636 21.2707 26.1855 20.256C26.1075 20.1389 26.1465 19.9828 25.9514 19.9438C25.6392 19.9828 25.4831 20.256 25.2099 20.4121C24.5465 20.7633 23.727 20.7243 23.1026 21.1146C22.9855 21.1146 23.0246 20.9585 23.0636 20.8804C23.2977 20.5682 23.766 20.5292 23.9611 20.1389C24.0782 19.8268 24.1563 19.3975 24.5075 19.2414C24.7416 19.0853 25.0928 19.0853 25.2099 18.8121C25.1709 18.656 25.0148 18.578 24.8977 18.5389C24.2733 18.3438 23.6489 18.695 23.2197 19.1243C22.7514 19.3194 22.2441 19.4755 21.8928 19.8658C21.8148 19.8658 21.7368 19.8268 21.7368 19.7487C21.6587 18.8902 22.4392 18.2658 22.9855 17.7585C23.4148 17.6414 23.727 17.1341 24.2343 17.3682C24.5465 17.5243 24.8977 17.7194 25.288 17.6024C25.7563 17.4463 25.8733 16.8999 26.3026 16.6268C26.6148 16.5097 27.0831 16.978 27.2782 16.5487C27.3953 16.0804 27.005 15.8072 26.7709 15.456C27.0441 14.7926 26.8489 14.0121 26.3026 13.5438C26.0294 13.3877 25.7172 13.2707 25.405 13.3877C25.1709 13.6999 25.6392 13.895 25.6392 14.1682C25.7563 15.417 24.3904 15.6902 23.6099 16.1975C22.088 16.9389 20.2538 18.1097 20.1368 20.0609C20.1758 21.1536 20.605 22.0902 21.3465 22.8707C21.7368 23.5341 22.3611 24.1585 22.127 25.017C21.9709 25.3682 21.5807 25.4072 21.2294 25.4072C19.9416 25.3292 19.2002 23.8853 18.6929 22.8707C18.5368 22.4804 18.3026 22.1292 18.2636 21.6609C18.3416 21.5829 18.3807 21.6219 18.4587 21.6609C18.6928 21.895 18.6538 22.4024 19.0831 22.3243C19.3953 21.856 19.1611 21.3097 19.005 20.8804C18.7709 20.4511 18.2636 20.256 18.0685 19.8268C18.0294 19.5146 18.5368 19.7097 18.5368 19.3585C18.3807 18.8121 18.3416 18.2268 18.4197 17.6804C18.4977 17.4463 18.8489 17.4463 18.8489 17.1731C18.6928 16.6268 18.6929 16.0804 18.7319 15.495C18.8099 15.1438 19.0831 14.7926 18.888 14.4024C18.4977 14.2853 18.8099 13.817 18.4587 13.6999C17.7172 13.6999 17.1709 13.3097 16.5465 13.0755C16.2343 12.9975 16.0002 13.1926 15.727 13.2316C15.2977 13.3097 14.8685 13.3097 14.5953 13.6219C14.4002 13.856 14.4392 14.1292 14.4392 14.4414C14.3611 14.6365 14.205 14.4804 14.127 14.4414C13.8148 14.2853 13.6977 13.9341 13.8148 13.6219C13.8538 13.4658 13.7758 13.3097 13.6587 13.1926C13.4636 13.0755 13.1904 12.9975 12.9563 13.0755C12.6441 13.1926 12.566 13.5438 12.4489 13.778C12.4099 13.9731 12.488 14.2463 12.566 14.4414C12.9953 14.9097 13.6197 15.0658 14.088 15.456C14.166 15.7292 14.0099 15.9633 13.8148 16.1975C13.7758 16.4316 14.127 16.4316 14.088 16.6658C13.7368 16.7438 13.3855 16.7048 13.1514 16.4707C12.9953 16.3146 12.9172 16.0024 12.6441 15.9633C12.3709 15.9633 12.3319 16.3146 12.2148 16.4707C12.1368 16.6658 12.1758 16.978 12.0197 17.1341L11.8246 17.095C10.927 16.7829 10.1465 16.3146 9.36602 15.7292C8.89773 15.378 8.58553 14.8707 8.23431 14.4024C8.07822 13.856 7.96114 13.1146 7.29773 12.9194C7.14163 12.9194 6.94651 12.9585 6.94651 13.1146L6.90748 13.3487C6.55626 13.3487 6.20505 13.1146 5.85383 13.2316C5.69773 13.3487 5.5026 13.4658 5.38553 13.6609C5.34651 14.0511 5.85383 13.895 5.89285 14.2072C5.89285 14.4804 6.127 14.7146 6.24407 14.9097L5.89285 15.2999L5.69773 15.8463C5.77578 16.0024 5.89285 16.2365 6.127 16.2755C6.43919 16.1585 6.67334 16.3536 7.02456 16.3146C7.21968 16.3146 7.53188 16.1585 7.5709 16.4707C7.68797 16.7438 7.5709 16.978 7.53187 17.2121C7.2587 17.6024 6.90748 17.9146 6.47822 18.1097C6.36114 18.1877 6.36114 18.3829 6.40017 18.5389C6.55627 18.7731 6.90748 18.656 7.14163 18.656C7.60992 18.617 7.92212 18.3829 8.39041 18.3438C8.50748 18.578 8.66358 18.8121 8.89773 18.9292C9.24895 19.0072 9.32699 18.539 9.67821 18.656C9.95139 18.8902 9.87334 19.2804 10.1465 19.5536C10.1465 19.7097 10.0294 19.7097 9.91236 19.7487C9.56114 19.8658 9.0148 19.7487 8.74163 20.0609C8.70261 20.217 8.8587 20.3731 8.97578 20.4511C9.28797 20.6072 9.71724 20.6853 10.1075 20.7243C10.4587 20.7633 10.8099 20.6463 11.1611 20.7243L11.0441 20.8804L9.99041 21.5829C9.52212 21.778 9.0148 21.895 8.54651 22.1292C7.88309 22.2853 7.60992 21.4658 6.98553 21.5048C6.71236 21.5048 6.55626 21.5829 6.36114 21.7389C6.20504 21.895 6.20505 22.1292 6.24407 22.3243C6.32212 22.5194 6.63431 22.4414 6.63431 22.6365C6.59529 23.2609 6.08797 23.6902 6.04895 24.3146C6.00992 24.4707 6.08797 24.6658 6.24407 24.7438C6.36114 24.8219 6.51724 24.7829 6.59529 24.6658C6.71236 24.5487 6.71236 24.3536 6.94651 24.3146C7.29773 24.3536 7.68797 24.3536 7.96114 24.0804C8.07822 24.0804 8.23431 24.1975 8.23431 24.3146C8.23431 24.4707 8.23431 24.6268 8.39041 24.7048C8.93675 24.7438 9.1709 24.1585 9.44407 23.7682C9.67822 23.7292 9.95139 23.5341 10.1855 23.6902C10.2636 24.0804 9.99041 24.3146 9.91236 24.6658C9.91236 24.7438 10.0294 24.8219 10.1465 24.8609C10.8099 24.7829 11.1611 24.1585 11.5514 23.6902C11.6294 23.5731 11.6685 23.378 11.8636 23.378C12.3709 23.5341 12.488 22.9097 12.8002 22.7146H12.9172C12.9563 22.8707 12.8392 22.9877 12.9172 23.1438C13.1514 23.378 13.3855 23.1048 13.5807 23.0658L14.0489 22.7926C14.5953 22.9487 15.1416 23.1048 15.727 23.2219C16.1953 23.378 15.727 23.8853 16.0002 24.1585C15.9221 24.3146 15.727 24.3536 15.5319 24.3536C14.5953 24.4707 13.4636 24.2365 12.7221 24.9389L12.1368 25.4463C11.4343 25.4853 11.0441 26.0707 10.4197 26.1877C9.99041 26.4999 9.327 26.0707 9.05382 26.5389C9.24895 27.0072 9.79529 27.1633 10.3026 27.2804C10.4977 27.3585 10.8099 27.2414 10.927 27.4755C10.966 27.7097 11.005 27.9438 11.2392 28.0219C11.4343 28.0999 11.5514 27.7877 11.7075 27.9438C11.9416 28.256 12.2929 28.4121 12.488 28.7243C12.3319 28.9975 11.9807 28.8414 11.7075 28.8414L11.6685 28.8024C11.2782 28.8414 10.7709 29.0365 10.4977 28.6853C10.0685 28.3731 9.75626 27.9048 9.1709 27.9048C8.8587 27.9829 8.50748 28.0999 8.42944 28.4902C8.39041 28.7243 8.58553 28.8024 8.7026 28.9194C8.31236 29.1926 7.92212 29.5828 8.03919 30.1292C8.07822 30.2463 8.11724 30.3633 8.27334 30.3633C8.46846 30.3633 8.62456 30.2072 8.81968 30.2853C8.8587 30.5975 8.78066 31.1048 9.1709 31.2609C9.48309 31.2219 9.67822 30.8707 10.0294 31.1438C10.3416 31.2999 10.6148 30.9877 10.888 30.9097C11.3563 30.9097 11.5124 31.3389 11.6685 31.6511C11.9416 31.8463 12.3319 32.1975 12.7221 32.0024C12.9953 31.6121 12.488 31.1438 12.9953 30.9097C13.3075 30.8316 13.5416 30.9487 13.8538 30.8707C14.3221 30.9097 14.9075 30.9487 15.1807 30.4414L15.6099 29.6999L15.688 29.2316C15.9611 29.1536 16.3904 29.5828 16.5075 29.1536C16.3514 28.7243 16.3124 28.256 16.3904 27.8268C16.4685 27.5146 16.6246 27.2024 16.8587 26.9682L16.9758 27.0072C17.0928 27.5536 17.1319 28.0999 17.366 28.5682C17.327 29.0755 17.0538 29.5048 17.0148 29.9731C16.8977 30.4804 16.5075 30.9097 16.0392 31.1438C15.9221 31.2219 15.8441 31.378 15.9221 31.5341C16.0392 31.7682 16.3904 31.6511 16.6246 31.6902C17.288 31.6121 17.9124 31.2999 18.3807 30.7926C18.8489 30.9097 19.0831 30.3243 19.5124 30.5975C19.9807 30.9487 20.8002 30.3243 20.9563 31.0658C20.8782 31.417 21.2294 32.0414 20.6441 32.1975C20.0977 32.1194 19.4343 31.378 18.888 32.0414C18.7709 32.1585 18.6538 32.3536 18.7709 32.5097C18.8489 32.6658 18.966 32.8609 18.8099 32.978C18.6538 33.2511 18.4587 33.5633 18.5758 33.8755C18.6928 34.0707 18.888 34.0707 19.0831 34.0316C19.3953 33.9146 19.7075 34.1877 20.0197 34.1877C20.2928 34.4219 20.566 34.656 20.9563 34.656C21.1124 34.578 21.0733 34.3829 21.1904 34.2268C21.4246 34.0316 21.9319 34.0707 21.9319 33.6414C22.0099 33.3292 22.2831 33.017 22.5563 32.8609C22.5172 32.978 23.1416 32.8219 23.2977 32.5097Z" fill="black" stroke="black" stroke-width="0.12"/>
<path fill-rule="evenodd" clip-rule="evenodd" d="M13.1906 13.4245C12.9955 13.4635 12.9175 13.6977 12.8784 13.8928C12.8394 14.166 12.9955 14.4001 13.1906 14.5562C13.737 14.8294 14.2443 15.2586 14.7906 15.6099H14.9858C14.7126 15.0245 14.0102 14.8684 13.5419 14.4001C13.3858 14.166 13.3858 13.8928 13.4248 13.6196C13.4248 13.4635 13.3077 13.3855 13.1906 13.4245ZM16.3126 13.4245C15.9223 13.6977 15.337 13.5416 14.9858 13.8147C14.7516 14.0099 15.1419 14.244 14.8297 14.4391C14.7906 14.5952 14.8687 14.6733 14.9467 14.7903C15.298 15.1025 15.7663 15.4928 15.6492 16.0001C15.376 16.6635 15.0248 15.883 14.6345 15.844C14.5175 15.883 14.4004 15.9611 14.4004 16.1172C14.4394 16.1952 14.5175 16.1952 14.6345 16.1952C14.7126 16.2343 14.8297 16.3123 14.8297 16.4294C14.7906 16.7025 14.5955 16.9757 14.2833 17.0538C13.9321 17.2099 13.5028 17.1318 13.1516 16.9367C12.9565 16.8586 12.8785 16.5855 12.6443 16.6245C12.3321 16.9367 12.6053 17.3269 12.6833 17.6391C11.9419 18.3806 11.3565 19.3562 10.4589 19.9025C10.2248 20.0196 9.95162 20.0586 9.7565 20.2538C9.83455 20.3318 9.95162 20.3708 10.1077 20.3708C10.8882 20.3318 11.6687 20.2147 12.3321 19.8245C12.6053 19.7074 12.7614 19.4343 13.0345 19.3562C13.3858 19.5123 13.0736 19.8635 13.2297 20.0977C13.4248 20.1757 13.5028 19.9806 13.6199 19.8635C13.737 19.7855 13.8931 19.7464 13.9321 19.9025C14.2053 20.683 14.0102 21.5806 13.698 22.283C13.8541 22.3221 13.8931 22.1269 14.0102 22.0879C14.5565 21.3074 15.1809 20.566 15.337 19.6294C15.8053 19.4343 15.7663 20.0977 16.0394 20.2928C16.2736 20.1367 16.2736 19.7074 16.3126 19.4733C16.3906 19.3952 16.4687 19.3952 16.5467 19.4733C16.7809 19.8635 17.0541 20.2928 17.4833 20.5269C17.7565 20.605 17.9906 20.8001 18.2638 20.7611C18.2248 20.4099 17.8345 20.3318 17.6394 20.0586C17.5224 19.7855 17.4053 19.5513 17.4053 19.2391C17.4833 19.044 17.7175 19.044 17.8345 19.005C17.8736 18.7318 17.7565 18.4586 17.8345 18.1855C17.8736 17.8343 17.6004 17.1318 18.1467 16.9757L18.1858 16.1172C18.1467 16.0001 17.9516 15.9221 17.9516 15.805C17.9516 15.5708 18.1858 15.4928 18.2248 15.3367C18.3028 15.1025 18.3419 14.9074 18.3809 14.6733C18.3809 14.5952 18.3028 14.5172 18.2248 14.5172C17.9516 14.4782 18.0297 14.205 17.9516 14.0879C17.4053 13.9318 16.976 13.4245 16.3126 13.4245ZM7.41504 13.5416C7.37601 13.5806 7.33699 13.6586 7.33699 13.7757C7.29796 13.8928 7.33699 14.0489 7.49308 14.166C7.57113 14.205 7.64918 14.283 7.72723 14.205C7.76625 14.1269 7.76625 14.0489 7.72723 13.9318C7.72723 13.7757 7.53211 13.5025 7.41504 13.5416ZM6.28333 13.7367C6.16625 13.8538 6.32235 14.166 6.28333 14.3611C6.32235 14.6733 6.7126 14.5562 6.90772 14.7903C7.18089 15.2196 6.5565 15.2586 6.4004 15.4928C6.20528 15.805 6.63455 15.6879 6.75162 15.9221C7.02479 16.0391 7.18089 15.766 7.45406 15.766C7.72723 15.883 7.88333 16.1562 7.96138 16.4684C8.23455 17.0928 7.68821 17.6001 7.41504 18.1074C7.8443 18.1855 8.1565 17.7562 8.54674 17.6001C8.85894 17.6782 8.58577 18.0684 8.78089 18.2635C9.01504 18.4196 9.17113 18.1464 9.40528 18.1464C10.0687 18.1855 10.0297 18.9269 10.4199 19.3172C10.498 19.3562 10.576 19.3562 10.6541 19.3562C11.0443 19.005 11.3175 18.5757 11.7077 18.1855C11.8248 18.0684 11.9809 17.8733 11.9419 17.7172C10.8102 17.405 9.83455 16.7416 8.93699 15.9611C8.50772 15.4538 8.07845 14.8684 7.49308 14.5952C7.14186 14.205 6.82967 13.6977 6.28333 13.7367ZM16.1565 13.8538C16.2345 13.8538 16.2736 13.8928 16.3516 13.9318C16.5858 14.0489 16.7809 14.283 16.976 14.4782C17.015 14.6343 16.898 14.7513 16.7419 14.7513C16.4687 14.7904 16.1955 14.7513 16.0394 14.5172C15.8443 14.3611 15.9614 14.1269 16.0004 13.9318C16.0394 13.8928 16.0785 13.8538 16.1565 13.8538ZM26.1077 14.0489C26.0687 14.166 26.0297 14.244 26.0687 14.3221C25.9906 15.3757 24.937 15.9221 24.1175 16.3904C22.6345 17.0928 20.7614 18.1074 20.6053 19.9416C20.4102 21.8928 22.9077 22.8684 22.6345 24.8196C22.5565 25.2489 22.2053 25.483 21.9321 25.7172C20.8785 26.0294 19.9028 25.366 19.2394 24.5464C18.3809 23.5318 17.9516 22.3611 17.6394 21.1123C17.4053 20.8391 17.0541 20.7611 16.8589 20.4489C16.3906 20.2147 16.3906 20.9562 15.9614 20.9562C15.7272 20.9952 15.8053 20.644 15.5711 20.7221L14.9858 21.5416C14.8297 21.8538 14.4394 22.0489 14.4004 22.4001C14.5565 22.7123 15.0638 22.5952 15.415 22.6733C15.9224 22.7513 16.2345 23.1806 16.6248 23.4147C17.3663 24.0782 17.6004 25.0147 17.4443 25.9903C17.2102 26.8489 17.5614 27.6294 17.7955 28.3708C17.9126 28.683 17.7175 28.9952 17.5614 29.2294C17.4833 29.6977 17.3272 30.1269 17.1321 30.5562C17.0541 30.7123 16.898 30.9074 16.976 31.0635C17.6004 30.9464 17.9906 30.3611 18.2248 29.8538C18.3419 29.6977 18.498 29.8538 18.615 29.9708C18.7321 30.0489 18.8102 29.8928 18.8882 29.8538C19.0053 29.7757 19.1224 29.8928 19.2394 29.9708C19.5126 30.244 19.9809 30.1269 20.3711 30.205C20.8004 30.244 21.1906 30.5172 21.3077 30.9074C21.2297 31.2196 21.4248 31.5318 21.3858 31.9221C21.1126 32.7025 20.176 32.8196 19.4736 32.8977C19.3565 32.9757 19.1224 33.0538 19.1614 33.2489C19.2394 33.405 19.3565 33.444 19.5126 33.5221C19.8248 33.7172 19.9809 33.2489 20.2541 33.2879C20.4882 33.366 20.2931 33.6001 20.4492 33.7562C20.6443 33.7952 20.7614 33.7172 20.9955 33.7172C21.2687 33.6782 21.4248 33.444 21.4248 33.1708C21.5419 32.8586 21.9711 32.7806 22.1272 32.4684C22.2443 32.3904 22.4785 32.5074 22.5955 32.3904C22.3614 31.9221 22.5565 31.4928 22.8297 31.1416C22.9077 30.8684 22.8297 30.5562 22.6736 30.3221V29.8147C22.5175 29.4245 22.0492 29.4635 21.737 29.3074C21.4248 29.0343 20.9175 28.8782 20.8394 28.4099C20.8785 28.3318 20.9175 28.2538 20.9955 28.2538C21.4248 28.4099 21.9321 28.3318 22.3614 28.2928C22.4784 28.3318 22.6736 28.3708 22.6736 28.2147C22.6345 28.1367 22.5565 28.0586 22.4394 28.0196C21.737 27.7855 20.9955 27.7855 20.4492 27.2782C20.2541 26.9269 19.8638 26.6538 19.8248 26.2245C20.215 25.7952 20.5272 26.4196 20.9565 26.3806C21.5809 26.4586 22.1663 26.3025 22.5565 25.8343C22.7516 25.6391 22.7516 25.2879 23.0638 25.1708C24.1955 24.9757 23.4931 23.6879 24.1955 23.1025C24.2736 22.9074 24.6638 22.9074 24.5858 22.6733C24.1955 22.6343 23.9224 22.8294 23.5711 22.8684C23.4931 22.8294 23.415 22.7513 23.376 22.6343C23.6102 21.9318 24.2736 21.3074 25.015 21.0733C25.0931 21.0343 25.2492 20.9172 25.2102 20.8391C24.3516 20.8782 23.4931 20.9952 22.9467 21.6586C22.8297 21.7367 22.6345 21.9318 22.4784 21.8147C22.3224 21.6586 22.3614 21.3855 22.3614 21.1904C22.4004 20.8001 22.7126 20.4879 23.0248 20.2147C23.4541 20.0977 23.6102 19.6294 23.7272 19.2782C23.6882 19.2001 23.6102 19.2391 23.5711 19.2391C23.298 19.3952 22.9858 19.5123 22.6736 19.6294C22.1663 19.7465 21.9711 20.2538 21.776 20.644C21.698 20.683 21.5809 20.683 21.5028 20.644C21.1516 20.2538 21.1126 19.7074 21.2687 19.2391C21.5419 17.9904 22.6736 17.2489 23.7663 16.7416C24.1955 16.5855 24.4687 16.9367 24.8199 16.9757C25.6394 17.0147 25.7565 15.9221 26.576 15.883C26.615 15.6879 26.3419 15.6099 26.2638 15.4538C26.1858 15.1416 26.498 14.9464 26.4589 14.5952C26.4199 14.5172 26.4199 14.166 26.1077 14.0489ZM17.8736 14.7123C17.9516 14.6343 18.1467 14.6733 18.1467 14.8294C18.1467 14.9855 18.0687 15.1806 17.9516 15.2977C17.8345 15.3757 17.7565 15.3367 17.7175 15.2196C17.6785 15.0245 17.7565 14.8294 17.8736 14.7123ZM16.5858 16.2733C16.6638 16.2343 16.7419 16.3123 16.8199 16.3904L16.7809 16.7416C16.4297 17.1708 16.3906 17.7952 15.8443 18.0294C15.6882 18.0684 15.5711 17.9513 15.5711 17.7952C15.5321 17.5611 15.4931 17.2489 15.5711 17.0147C15.8053 16.8977 15.8833 17.366 16.0784 17.1708C16.1175 16.8196 16.4297 16.5464 16.5858 16.2733ZM12.6833 20.2147C12.5663 20.2147 12.4492 20.2538 12.3321 20.2928C11.4736 21.1123 10.615 21.9318 9.52235 22.3611C8.81991 22.4782 8.3126 22.9464 7.61016 23.0635C7.25894 23.2586 6.7126 23.3367 6.67357 23.805C6.82967 23.883 7.02479 23.9611 7.25894 23.9611C7.53211 23.9611 7.57113 23.6489 7.76626 23.4928C7.88333 23.3757 8.0004 23.4538 8.07845 23.5318C8.1565 23.805 8.42967 23.844 8.62479 23.9221C8.81991 23.883 8.85894 23.7269 8.89796 23.5708C9.05406 23.2586 9.48333 23.2196 9.79552 23.2586C9.95162 23.1806 10.1077 23.1025 10.3028 23.1025C10.7321 23.1806 10.4589 23.6879 10.537 23.9611C10.615 24.0391 10.7321 23.9611 10.7711 23.9221C11.0833 23.6099 11.2394 23.2196 11.4345 22.7903C11.5126 22.7123 11.6297 22.5172 11.7858 22.5562C12.215 23.0635 12.2541 22.283 12.5663 22.205C12.8004 22.0879 13.1516 22.283 13.3467 22.0489C13.5809 21.6586 13.5809 21.1123 13.6199 20.683C13.5028 20.3708 13.1906 20.644 12.9565 20.605C12.7614 20.605 12.7614 20.3708 12.6833 20.2147ZM6.98577 22.0879C6.94674 22.0879 6.94674 22.166 6.90772 22.205C6.94674 22.4001 6.86869 22.6343 6.98577 22.7513C7.21991 22.8684 7.53211 22.7904 7.72723 22.6343C7.72723 22.3611 7.41504 22.3221 7.25894 22.166C7.18089 22.0879 7.06382 22.0489 6.98577 22.0879ZM16.4687 24.5855L15.376 24.8977C14.2833 24.9367 12.9955 24.8977 12.3711 25.9123L11.7467 25.9903C11.3175 26.1855 10.9272 26.4586 10.498 26.5757C10.3809 26.6538 10.1467 26.6147 10.1077 26.8099C10.3809 27.044 10.7711 26.8879 11.1224 26.8879C11.2785 26.966 11.3175 27.1611 11.3565 27.3172C11.5126 27.3952 11.6687 27.2001 11.8248 27.2391C11.9419 27.2782 11.9809 27.3952 12.0589 27.4733C12.137 28.0196 12.8394 28.1367 13.0736 28.644C13.1906 28.8001 13.1126 29.0733 12.9955 29.2294C12.8394 29.4635 12.4882 29.3855 12.215 29.3855C11.7077 29.3855 11.2394 29.2294 10.7711 29.4245C10.0297 29.5416 9.32723 29.0733 8.70284 29.5025C8.66381 29.5416 8.62479 29.6586 8.66382 29.7367L9.40528 30.0489C9.52235 30.166 9.36626 30.3611 9.36626 30.4782L9.7565 30.5952C10.0297 30.8294 10.3028 30.5562 10.537 30.4001C10.8102 30.205 11.0443 30.4782 11.2785 30.5562C11.4345 30.6343 11.6297 30.5172 11.7467 30.7123C11.9028 30.8684 11.8248 31.2977 12.098 31.2586C12.176 31.0635 12.3321 30.8294 12.4882 30.6733C12.9955 30.205 13.6589 30.5172 14.3224 30.4391C14.7516 30.4001 14.6345 29.8928 14.9858 29.7367C15.1809 29.3855 14.8297 29.1513 14.6345 28.8782C14.4784 28.5269 14.7126 28.1367 14.9467 27.8635C15.415 27.7855 15.337 28.3708 15.5321 28.605C15.6102 28.683 15.7272 28.8001 15.8053 28.7221C15.8443 28.3708 15.8443 28.0586 15.8443 27.6684C15.9614 27.1611 16.3516 26.6928 16.7028 26.3416C16.8589 26.0684 16.898 25.8343 16.937 25.5221C16.937 25.1318 16.8589 24.7025 16.4687 24.5855ZM9.48333 28.4489C9.40528 28.4489 9.32723 28.4489 9.24918 28.4879C9.21016 28.605 9.28821 28.8391 9.4443 28.9562C9.67845 28.9952 9.9126 29.0343 10.1077 28.9172C9.95162 28.7221 9.7565 28.4879 9.48333 28.4489ZM19.5126 32.3513C19.4736 32.3904 19.4345 32.4294 19.4345 32.4684C19.4736 32.5074 19.4736 32.5464 19.5906 32.5464C19.6297 32.5464 19.7858 32.5855 19.7858 32.4684C19.7077 32.3904 19.5906 32.3123 19.5126 32.3513Z" fill="url(#paint0_linear_897_1568)"/>
<path fill-rule="evenodd" clip-rule="evenodd" d="M0.272888 9.63818H33.2875V11.9016H0.272888V9.63818Z" fill="black" stroke="black" stroke-width="0.12"/>
<path fill-rule="evenodd" clip-rule="evenodd" d="M24.8177 10.0303H28.564V11.4742H24.8177V10.0303ZM16.6616 10.0303H20.4079V11.4742H16.6616V10.0303ZM8.42744 10.0303H12.1738V11.4742H8.42744V10.0303ZM0.661591 10.0303H4.05671V11.4742H0.661591V10.0303Z" fill="url(#paint1_linear_897_1568)"/>
<path fill-rule="evenodd" clip-rule="evenodd" d="M5.65739 1.6412C6.75007 1.1729 7.99885 1.52412 9.20861 1.44607C9.5208 1.52412 9.9891 1.28998 10.1842 1.6412C10.1842 1.99242 10.1842 2.34363 10.2232 2.69485C10.3403 2.929 10.6915 2.73388 10.8867 2.88998C11.0037 2.96802 11.1208 3.00705 11.1598 3.16314C11.2379 3.31924 11.1989 3.51437 11.0818 3.67046C10.8476 3.90461 10.5745 3.82656 10.2623 3.90461L10.1842 3.98266C10.2232 4.64607 10.0671 5.23144 10.1842 5.85583C10.1452 5.97291 10.1062 6.16803 10.2623 6.24608C10.5745 6.24608 10.8867 6.24608 11.1208 6.4412C11.1989 6.5973 11.1989 6.79241 11.1598 6.98754C11.0428 7.65095 9.9891 6.90949 10.1062 7.68998C10.1062 7.96315 10.1842 8.39242 10.0671 8.66559C8.85739 8.66559 7.60861 8.58754 6.4769 8.62656C6.28178 8.82168 6.00861 8.93876 5.73544 8.93876C5.50129 8.89973 5.30617 8.74363 5.11105 8.62656C4.01837 8.58754 2.92568 8.58754 1.87202 8.54851C1.5208 8.27534 1.79397 7.80705 1.6769 7.37778C1.48178 7.18266 1.20861 7.33876 1.01349 7.22169C0.857391 7.18266 0.818368 7.02656 0.740319 6.90949C0.740319 6.67534 0.740319 6.48022 0.935441 6.32412C1.13056 6.20705 1.36471 6.20705 1.59885 6.20705L1.71593 6.08997C1.63788 5.34851 1.833 4.64607 1.6769 3.86559C1.55983 3.70949 1.36471 3.82656 1.20861 3.74851C1.01349 3.70949 0.818368 3.63144 0.740319 3.39729C0.701294 3.20217 0.662269 3.04607 0.818366 2.88998L1.71593 2.65583L1.79398 1.56315C1.9891 1.25095 2.37934 1.40705 2.69154 1.40705C3.23788 1.28997 3.90129 1.36802 4.48666 1.40705C4.91593 1.40705 5.30617 1.4851 5.65739 1.6412Z" fill="black" stroke="black" stroke-width="0.124449"/>
<path fill-rule="evenodd" clip-rule="evenodd" d="M6.16545 7.99965C6.20447 8.19477 6.20447 8.38989 6.04838 8.50697C5.97033 8.62404 5.7752 8.62404 5.65813 8.58501C5.54106 8.54599 5.50203 8.38989 5.46301 8.31185C5.42399 8.0777 5.65813 7.99965 5.81423 7.80453C5.97033 7.80453 6.0874 7.9216 6.16545 7.99965ZM2.53618 1.79477C2.34106 1.95086 2.06789 2.22404 2.14594 2.49721L2.22398 7.80453L2.38008 7.99965C3.23862 7.99965 4.21423 7.9216 5.07277 8.0777C5.11179 8.11672 5.11179 8.15575 5.11179 8.19477C4.87764 8.27282 4.60447 8.23379 4.37033 8.23379L2.06789 8.19477C1.91179 8.0777 1.98984 7.72648 1.98984 7.57038C1.98984 7.33623 2.06789 7.06306 1.79472 6.94599C1.48252 6.86794 1.17033 6.98501 0.975205 6.71184C1.1313 6.28257 1.83374 6.63379 1.98984 6.12648C2.06789 5.30696 1.91179 4.44843 1.95081 3.66794C1.87277 3.19965 1.36545 3.35574 1.05325 3.2777C1.01423 3.23867 0.936181 3.16062 0.975205 3.08257C1.24838 2.8094 1.79472 3.1216 1.98984 2.77038C2.06789 2.41916 2.02886 2.06794 2.06789 1.75575C2.18496 1.63867 2.38008 1.63867 2.53618 1.6777V1.79477ZM9.87276 1.79477C9.95081 2.14599 9.79472 2.61428 9.98984 2.9655C10.224 3.08257 10.5362 3.04355 10.7703 3.08257C10.8484 3.16062 10.8484 3.31672 10.8094 3.39477C10.5752 3.62892 10.0289 3.31672 9.91179 3.74599C9.91179 4.60452 9.87277 5.46306 9.95081 6.36063L10.0679 6.47769C10.3411 6.51672 10.7313 6.39965 10.9264 6.6338C10.9654 6.75087 10.9264 6.90697 10.8094 6.94599C10.5362 7.02404 10.1069 6.86794 9.95081 7.18013C9.87277 7.53135 9.98984 7.88257 9.87276 8.27282L9.71667 8.35087L6.55569 8.31185C6.47764 8.27282 6.55569 8.2338 6.59472 8.19477L6.90691 8.0777L9.4435 8.11672C9.71667 8.03867 9.71667 7.72648 9.71667 7.53136L9.67764 3.98014C9.63862 3.35575 9.75569 2.8094 9.63862 2.22404C9.59959 2.10696 9.40447 1.98989 9.40447 1.83379C9.56057 1.6777 9.79471 1.67769 9.87276 1.79477ZM9.17033 7.68745C9.09228 7.80453 8.89716 7.7655 8.78008 7.80453H8.07764C7.49228 7.7655 6.90691 7.72647 6.3996 7.84355C6.32155 7.84355 6.20447 7.7655 6.20447 7.64843C6.28252 7.4533 6.51667 7.53135 6.71179 7.4533C7.41423 7.49233 8.23374 7.41428 8.89715 7.4533C9.01423 7.49233 9.1313 7.57038 9.17033 7.68745ZM9.4435 2.18501C9.40447 4.01916 9.48252 5.77526 9.40447 7.41428C9.36545 7.49233 9.2874 7.37526 9.20935 7.33624C9.09228 7.06306 9.17033 6.71184 9.17033 6.47769C9.09228 5.03379 9.17033 3.55087 9.17033 2.06794C9.24837 1.95087 9.40447 2.10696 9.4435 2.18501ZM5.50203 1.91184L5.58008 2.10696C5.61911 3.58989 5.61911 5.15087 5.61911 6.71184L5.58008 7.29721C5.18984 7.33623 4.79959 7.10209 4.40935 7.18013C3.98008 7.14111 3.51179 7.21916 3.12155 7.10209C2.8874 6.59477 3.0435 6.08745 3.00447 5.50208C3.0435 4.37038 3.0435 3.00452 3.0435 1.79477C3.0435 1.71672 3.16057 1.6777 3.23862 1.63867C4.01911 1.71672 4.87764 1.5216 5.50203 1.91184ZM8.85813 1.79477C8.85813 3.62891 8.85813 5.34599 8.81911 7.10209C7.92155 7.18014 6.90691 7.02404 6.00935 7.29721C5.81423 7.10209 5.97033 6.82891 5.9313 6.59477C5.89228 6.0094 5.9313 5.34599 5.89228 4.76062C5.9313 3.90209 5.85325 2.88745 5.9313 2.06794C6.04837 1.79477 6.36057 1.71672 6.67276 1.71672L8.78008 1.75575L8.85813 1.79477ZM5.42399 7.60941C5.46301 7.72648 5.34594 7.84355 5.22886 7.88257C4.52642 7.68745 3.74594 7.80453 2.96545 7.72648L2.92642 7.68745C2.96545 7.57038 3.08252 7.4533 3.23862 7.4533C4.01911 7.41428 4.76057 7.41428 5.42399 7.60941ZM2.77033 1.98989C2.84838 3.82404 2.7313 5.54111 2.80935 7.25818C2.77033 7.33623 2.69228 7.4533 2.5752 7.4533C2.45813 6.90696 2.45813 6.36063 2.49716 5.77526C2.45813 4.64355 2.45813 3.35575 2.45813 2.22404C2.49715 2.14599 2.65325 2.02891 2.77033 1.98989Z" fill="url(#paint2_linear_897_1568)"/>
<path fill-rule="evenodd" clip-rule="evenodd" d="M20.7983 1.40378C20.9153 1.36476 21.0714 1.48184 21.1885 1.55989L21.2666 2.73062C21.5787 2.84769 21.969 2.76964 22.1251 3.12086C22.2031 3.27696 22.2031 3.55013 22.0861 3.6672C21.8519 3.94037 21.3446 3.70623 21.1885 4.01842C21.1495 4.83793 21.1105 5.38427 21.1885 6.12574C21.4227 6.35988 21.8129 6.16476 22.008 6.47695C22.1251 6.59403 22.1641 6.75013 22.1251 6.94525C21.93 7.21842 21.5787 7.21842 21.2666 7.29647C21.1495 7.41354 21.2666 7.60866 21.1885 7.76476C21.0714 8.03793 21.3446 8.42818 20.9934 8.58428C20.0568 8.70135 19.1983 8.54525 18.2617 8.6233L17.3641 8.66232C17.13 8.81842 16.8178 9.05257 16.5056 8.89647L15.9592 8.66232C15.2958 8.70135 14.6714 8.6233 14.008 8.66232C13.5397 8.6233 12.9153 8.85744 12.6422 8.42817C12.6422 8.07695 12.7202 7.72574 12.6031 7.3355C12.2519 7.21842 11.7056 7.37452 11.5105 6.94525C11.4714 6.82818 11.5105 6.63305 11.5495 6.51598C11.7836 6.16476 12.369 6.47696 12.6031 6.16476L12.5641 5.18915C12.6422 4.72086 12.5251 4.33062 12.5251 3.90135C12.1739 3.78428 11.5885 3.94037 11.5495 3.43306C11.5105 3.15989 11.6666 2.92574 11.9007 2.88671C12.1348 2.80866 12.447 2.92574 12.5641 2.73062L12.6422 1.67696C12.9153 1.20867 13.5397 1.48184 13.969 1.44281L15.9983 1.48184C16.3105 1.52086 16.6227 1.83305 16.9348 1.63793C18.1836 1.09159 19.5495 1.52086 20.7983 1.40378Z" fill="black" stroke="black" stroke-width="0.124449"/>
<path fill-rule="evenodd" clip-rule="evenodd" d="M20.9164 1.79626C20.9164 2.1865 20.8773 2.57675 20.9944 2.96699C21.2676 3.20114 22.009 2.84992 21.8529 3.47431C21.6188 3.63041 21.2676 3.51333 20.9944 3.55236L20.9164 3.63041C20.7993 4.52797 20.9944 5.46456 20.9164 6.24504C20.9554 6.32309 20.9944 6.47919 21.1115 6.51821C21.3456 6.55724 21.7359 6.36211 21.8139 6.67431C21.7749 7.22065 21.0725 6.71334 20.9164 7.14261C20.8383 7.53285 21.0334 7.88407 20.8773 8.27431L20.7603 8.35236C19.6286 8.31333 18.4968 8.31334 17.4432 8.31334C17.4042 8.27431 17.4042 8.23529 17.4822 8.19626L17.6773 8.07919L20.4871 8.00114C20.6042 7.96212 20.7212 7.88407 20.7212 7.72797C20.7212 6.0109 20.7603 4.2548 20.7603 2.3426C20.7212 2.06943 20.4481 1.91334 20.409 1.67919C20.5651 1.71822 20.8383 1.60114 20.9164 1.79626ZM13.5017 1.71821C13.4627 1.91333 13.2676 1.99138 13.1895 2.14748C13.0725 2.4987 13.2286 2.84992 13.1505 3.24017L13.1895 7.76699C13.1895 7.88407 13.2676 8.00114 13.3846 8.04016L15.8042 8.07919C15.9212 8.11821 16.0773 8.15724 16.1944 8.23528C16.1554 8.35236 15.9603 8.31333 15.8432 8.35236C14.9456 8.31333 13.97 8.39138 13.1115 8.27431L13.0334 8.19626C12.9944 7.80602 13.0725 7.37675 12.8773 7.02553C12.6042 6.90846 12.292 7.02553 11.9798 6.94748C11.8627 6.86944 11.9017 6.71333 11.9798 6.59626C12.2529 6.44016 12.8383 6.67431 12.9944 6.28406C12.9554 5.42553 13.0334 4.56699 12.9944 3.66943C12.7603 3.31821 12.2529 3.63041 12.0188 3.31821C12.0968 2.8109 12.8383 3.24016 13.0334 2.8109L13.1115 1.75724C13.1505 1.67919 13.3456 1.71821 13.5017 1.71821ZM17.0529 8.23528C17.0529 8.43041 17.0139 8.62553 16.8188 8.62553C16.6627 8.66455 16.4286 8.62553 16.4286 8.39139C16.4676 8.23529 16.6237 8.11821 16.7798 8.00114C16.9359 7.96212 17.0139 8.11821 17.0529 8.23528ZM13.8139 2.03041C13.892 3.59138 13.7359 4.95724 13.8139 6.51821C13.6968 6.86943 13.97 7.37675 13.4627 7.49382C13.3847 5.93285 13.4237 4.29382 13.3846 2.61577C13.3456 2.3426 13.5017 2.10846 13.7359 1.95236L13.8139 2.03041ZM20.4871 2.30358C20.4481 4.02065 20.5261 5.8548 20.409 7.49382C20.331 7.53285 20.2139 7.41577 20.1749 7.2987C20.1359 6.59626 20.0968 5.89383 20.1359 5.19139C20.1749 4.21578 20.0578 3.08407 20.1749 2.10846C20.292 2.03041 20.4871 2.1865 20.4871 2.30358ZM16.3895 7.6109C16.4676 7.64992 16.5846 7.72797 16.5066 7.84504L16.3115 8.00114C15.531 7.72797 14.5554 7.92309 13.6968 7.76699C13.7749 7.64992 13.8139 7.53285 13.931 7.4548C14.7505 7.49382 15.609 7.37675 16.3895 7.6109ZM19.9407 7.49382C20.0578 7.57187 20.1749 7.68894 20.1749 7.76699L20.0578 7.80602C19.1212 7.84504 18.1456 7.68895 17.2871 7.92309C17.17 7.96212 17.0139 7.92309 16.9749 7.76699C17.0529 7.57187 17.3261 7.49382 17.5603 7.49382C18.3798 7.41577 19.1603 7.49382 19.9407 7.49382ZM19.8627 1.87431C19.8237 3.63041 19.9017 5.42553 19.8237 7.14261L19.7456 7.18163C18.77 7.25968 17.8334 7.02553 16.9749 7.33773C16.8188 7.25968 16.9359 6.98651 16.8968 6.83041V2.1865C16.8968 2.03041 17.0139 1.91333 17.131 1.83529C17.3651 1.67919 17.7164 1.71822 18.0286 1.67919L19.7846 1.71821L19.8627 1.87431ZM16.6237 5.38651C16.7017 4.48895 16.6627 3.47431 16.6627 2.61577C16.6627 2.3426 16.7017 2.03041 16.4676 1.83529C15.8042 1.56212 14.9456 1.71822 14.2042 1.67919C14.1651 1.71822 14.0871 1.64017 14.0871 1.75724L14.0481 6.90846L14.0871 7.10358C14.6334 7.18163 15.1798 7.14261 15.7261 7.14261C15.9993 7.18163 16.3115 7.25968 16.5847 7.33773C16.6237 6.71334 16.6627 6.24504 16.6237 5.65968V5.38651Z" fill="url(#paint3_linear_897_1568)"/>
<path fill-rule="evenodd" clip-rule="evenodd" d="M31.7647 1.48524C32.0378 1.83646 31.8427 2.30475 31.9208 2.69499C32.1939 2.92914 32.8183 2.65597 32.8964 3.24134C32.9354 3.47548 32.8183 3.63158 32.7013 3.74865C32.5061 3.94377 32.1549 3.74865 31.9598 3.9828C31.8817 4.64621 31.9598 5.38768 31.9598 6.16817C32.1549 6.28524 32.4281 6.28523 32.6622 6.40231C32.7793 6.51938 32.8964 6.67548 32.8964 6.8706C32.8573 7.06572 32.7793 7.1828 32.5842 7.26084C32.3891 7.33889 32.0769 7.26085 31.9988 7.49499C31.9208 7.84621 32.0378 8.23645 31.9598 8.6267C31.7256 8.74377 31.4134 8.74377 31.1403 8.74377L28.5256 8.66572C28.2915 8.7828 28.0183 9.05597 27.6671 8.89987C27.1208 8.54865 26.3403 8.66572 25.7159 8.6267L23.7647 8.58768C23.4134 8.27548 23.6866 7.72914 23.5695 7.37792C23.4525 7.14377 23.0622 7.22182 22.8671 7.14378C22.672 7.06573 22.633 6.83158 22.633 6.63646C22.672 6.40231 22.8671 6.28524 23.0622 6.24621C23.2183 6.16816 23.5305 6.32426 23.5695 6.09011C23.5695 5.38767 23.5305 4.72426 23.5305 4.06084C23.4915 3.6706 22.9452 3.90475 22.711 3.74865C22.5159 3.63158 22.4769 3.3584 22.5159 3.16328C22.711 2.77304 23.1403 2.89011 23.4915 2.77304L23.5305 2.65597L23.5695 1.48524L23.6866 1.40718L26.7695 1.48524C27.1208 1.48524 27.433 1.64133 27.7842 1.75841C28.4476 1.25109 29.3842 1.52426 30.1647 1.36816L31.7647 1.48524Z" fill="black" stroke="black" stroke-width="0.124449"/>
<path fill-rule="evenodd" clip-rule="evenodd" d="M27.3948 7.65139C27.4729 7.69042 27.4729 7.80749 27.3948 7.80749C27.1217 8.11969 26.8095 7.72944 26.4192 7.80749L24.5851 7.72944C24.7412 7.22213 25.4436 7.53432 25.8339 7.45627C26.3802 7.53432 26.9656 7.37822 27.3948 7.65139ZM30.7119 7.53432C30.829 7.61237 30.9461 7.72944 30.9461 7.80749C30.0485 7.92457 29.1509 7.69042 28.2534 7.92457C28.1363 7.88554 28.0582 7.76846 28.1363 7.65139C28.3314 7.45627 28.6046 7.49529 28.8778 7.45627L30.7119 7.53432ZM28.0583 8.15871C28.0973 8.35383 28.0973 8.66603 27.8241 8.66603C27.629 8.70505 27.4729 8.58798 27.4339 8.43188C27.3948 8.19773 27.5119 8.00261 27.668 7.92457C27.9022 7.88554 27.9802 8.04164 28.0583 8.15871ZM24.3119 1.75871C24.2729 1.91481 24.0387 2.07091 23.9607 2.26603C23.9997 4.10018 23.9607 6.09042 24.0387 8.00261L24.1948 8.08066C25.1704 8.11969 26.2241 7.88554 27.0826 8.27578C27.1217 8.31481 27.1217 8.31481 27.0826 8.31481C25.99 8.27579 24.9363 8.39286 23.8826 8.27578L23.8046 8.15871C23.7656 7.76847 23.8436 7.37822 23.6875 7.027C23.4534 6.79286 22.7119 7.10505 22.907 6.59773C23.1802 6.40261 23.6095 6.67578 23.7656 6.32456C23.7656 5.38798 23.8046 4.56847 23.7265 3.6709C23.5314 3.39773 23.1412 3.59286 22.868 3.51481C22.79 3.43676 22.7119 3.28066 22.79 3.16359C23.0631 2.92944 23.9217 3.24164 23.7656 2.5392C23.8436 2.26603 23.6485 1.68066 24.0387 1.68066C24.1168 1.71969 24.2339 1.68066 24.3119 1.75871ZM31.6095 1.79773C31.6875 2.227 31.5314 2.65627 31.7656 3.04652C32.0387 3.12457 32.468 2.96847 32.5851 3.24164C32.5461 3.78798 31.8436 3.35871 31.6485 3.78798C31.7265 4.64652 31.5704 5.34896 31.6875 6.24652C31.6095 6.32456 31.5704 6.40261 31.6485 6.48066C31.8826 6.67578 32.1948 6.36359 32.468 6.55871C32.6241 6.59774 32.5461 6.75383 32.5461 6.83188C32.3509 7.10505 31.8436 6.79286 31.7265 7.1831L31.6485 8.27578L31.4924 8.35383L28.5265 8.31481C28.4875 8.27579 28.4875 8.23676 28.5656 8.23676L28.9168 8.11969H31.1802C31.2973 8.08066 31.4534 8.00261 31.4534 7.84651C31.4143 6.01237 31.4143 4.17822 31.4143 2.30505L31.1412 1.75871C31.2192 1.68066 31.5314 1.64163 31.6095 1.79773ZM24.6241 2.50017V7.30017C24.5851 7.41725 24.429 7.4953 24.3509 7.61237L24.2729 7.53432C24.2729 7.02701 24.3119 6.44164 24.2729 5.93432V5.54408C24.2339 4.49042 24.2339 3.31969 24.2729 2.26603C24.3509 2.18798 24.468 1.99286 24.5461 1.95383C24.6241 2.18798 24.5851 2.30505 24.6241 2.50017ZM31.1802 2.26603C31.1412 3.51481 31.1412 4.72456 31.2192 5.89529C31.1802 6.44163 31.1802 6.94895 31.1802 7.45627C31.1412 7.49529 31.1412 7.53432 31.1022 7.53432C30.7119 7.37822 30.868 6.94896 30.829 6.63676C30.868 6.16847 30.79 5.62212 30.868 5.15383L30.79 4.99774L30.829 2.07091C30.907 1.87579 31.1022 2.14896 31.1802 2.26603ZM30.5948 2.34408C30.5948 2.14896 30.6339 1.87578 30.5168 1.71968L29.6973 1.68066C29.1119 1.75871 28.4485 1.60262 27.9802 1.87579C27.7461 2.14896 27.8631 2.46115 27.8241 2.77334C27.8631 2.96846 27.9412 3.16359 27.9802 3.35871L27.8631 3.59286L27.5119 3.51481L27.4339 3.31969C27.4729 3.16359 27.5119 3.04651 27.5509 2.89042C27.5119 2.50017 27.668 1.91481 27.1607 1.75871C26.4192 1.68066 25.7168 1.68066 24.9753 1.68066C24.9363 1.68066 24.8583 1.71969 24.8583 1.75871L24.8973 6.67578C24.8973 6.8709 24.8192 7.14408 25.0534 7.22213C25.7168 7.14408 26.3022 7.26115 26.9265 7.1831C27.1607 7.1831 27.3168 7.41725 27.59 7.3392C27.668 6.63676 27.668 5.81725 27.629 5.03676C27.59 4.95871 27.629 4.80262 27.5509 4.80262V4.64651L27.9412 4.68554L27.9802 4.80262L27.9412 4.84164L27.9022 7.14408C27.9412 7.22213 27.9412 7.37822 28.0583 7.37822C28.7607 6.98798 29.6192 7.26115 30.3997 7.14408L30.5948 7.06602C30.6729 6.67578 30.6339 5.30993 30.6339 5.30993C30.5948 4.41237 30.5948 3.39774 30.5948 2.34408ZM27.9022 4.49042C27.8631 4.60749 27.668 4.60749 27.5509 4.56847L27.4339 4.52944C27.5119 4.29529 27.4339 3.9831 27.629 3.82701C27.8241 3.90505 27.7851 4.21725 27.9022 4.49042Z" fill="url(#paint4_linear_897_1568)"/>
<path fill-rule="evenodd" clip-rule="evenodd" d="M16.3895 5.34596C16.1163 5.11182 16.0382 4.79962 15.8431 4.52645C15.9212 4.40938 16.0773 4.37035 16.1943 4.25328C16.3895 4.09718 16.5456 3.82401 16.4675 3.55084C16.4285 3.31669 16.3504 3.08255 16.1163 3.0045C15.648 2.8484 15.0236 2.88743 14.5553 2.92645C14.4773 2.96548 14.4382 3.04353 14.5163 3.12158C14.7114 3.19962 14.7504 3.3167 14.7895 3.47279C14.7504 4.09718 14.7504 4.68255 14.7114 5.30694L14.4773 5.58011C14.7114 5.81426 15.0626 5.61913 15.4139 5.69718C15.4919 5.54108 15.2578 5.42402 15.2187 5.26792C15.2578 5.0728 15.2187 4.83865 15.3358 4.68255C15.687 4.95572 15.8041 5.42401 16.1943 5.69718L16.7407 5.73621V5.46304C16.5846 5.46304 16.4675 5.34596 16.3895 5.34596ZM15.687 4.21426C15.5309 4.21426 15.2968 4.33133 15.2578 4.13621C15.2968 3.86304 15.1407 3.47279 15.2578 3.19962C15.4529 3.04353 15.7651 3.12158 15.9212 3.3167C15.9992 3.4728 15.9992 3.66792 15.9992 3.86304C15.9212 4.01913 15.8821 4.17524 15.687 4.21426ZM27.9797 4.83865C28.0578 4.95572 28.1358 5.11182 28.0968 5.26792L27.9017 5.50206L28.0187 5.58011C28.2919 5.54109 28.6431 5.65816 28.8773 5.54109C28.7992 5.42401 28.6431 5.34597 28.5651 5.26792C28.2529 4.44841 28.0187 3.58987 27.7846 2.73133L27.5114 2.84841C27.3553 3.58987 27.0431 4.29231 26.848 5.0728C26.809 5.22889 26.6529 5.22889 26.5358 5.34596C26.3797 5.38499 26.3017 5.22889 26.2626 5.11182C26.2236 4.4484 26.3407 3.86304 26.3017 3.1606C26.2626 3.04352 26.4187 2.92646 26.5358 3.04353C26.7309 3.12158 26.6919 3.35572 26.77 3.51182C26.809 3.58987 26.9261 3.58987 26.9261 3.47279L27.0431 2.77035C26.9651 2.53621 26.77 2.80938 26.5748 2.77035C26.2236 2.73133 25.7553 2.84841 25.4431 2.65328C25.17 2.73133 25.248 3.12157 25.209 3.35572C25.17 3.39474 25.209 3.43377 25.248 3.47279C25.4822 3.35572 25.5602 2.96548 25.9114 3.08255L25.9504 3.74596L25.8724 5.18987C25.7943 5.30694 25.5602 5.34596 25.5992 5.50206C25.9895 5.61913 26.4578 5.50206 26.848 5.54109C27.0821 5.58011 27.3163 5.61914 27.5114 5.54109C27.5504 5.50206 27.5504 5.42402 27.4724 5.38499C27.3553 5.30694 27.1602 5.18987 27.2382 5.03377C27.3163 4.9167 27.3163 4.68255 27.5504 4.7606C27.5895 4.7606 27.6285 4.79962 27.6285 4.83865L27.9407 4.87767C27.9407 4.87767 27.9407 4.83865 27.9797 4.83865ZM27.5114 4.52645L27.3943 4.48743C27.4724 4.25328 27.3943 3.94109 27.5895 3.78499C27.7846 3.90206 27.7846 4.21426 27.8626 4.48743C27.8236 4.6045 27.6285 4.6045 27.5114 4.52645ZM30.048 3.0045C30.048 3.1606 30.1651 3.47279 30.009 3.58987C29.8529 3.43377 29.8139 3.3167 29.5797 3.23865C29.4626 3.23865 29.3065 3.27767 29.2675 3.43377C29.2285 3.90207 29.6968 3.90207 29.97 4.21426C30.2431 4.44841 30.3212 4.87767 30.2431 5.18987C30.1261 5.46304 30.009 5.61913 29.7748 5.61913C29.5407 5.65816 29.3846 5.50206 29.1895 5.58011C29.1504 5.58011 29.0724 5.61914 28.9943 5.54109L29.0334 4.64352C29.0724 4.6045 29.1114 4.56548 29.1504 4.56548C29.2675 4.83865 29.1895 5.18987 29.6187 5.22889C29.7358 5.18987 29.8529 5.18987 29.8919 4.99475C29.9309 4.21426 28.8773 4.40938 28.9163 3.58987C28.9553 3.39475 28.9553 3.23865 29.0724 3.08255C29.2675 2.77035 29.6578 2.96547 29.9309 2.77035C30.009 2.80938 30.009 2.96548 30.048 3.0045ZM18.809 2.96547C18.5748 3.08255 18.3407 3.23865 18.4187 3.58987C18.3407 4.13621 18.3797 4.68255 18.3797 5.26792L18.7309 5.58011L18.6919 5.61913C18.3017 5.61913 17.9504 5.69718 17.5602 5.61913C17.4041 5.46304 17.7553 5.34596 17.8334 5.22889C17.9114 4.6045 17.9504 3.94109 17.9114 3.23865C17.8334 3.04353 17.5212 3.12158 17.5992 2.92645C17.9504 2.88743 18.3797 2.88743 18.7309 2.92645L18.809 2.96547ZM7.92117 3.39475C7.68703 3.66792 7.648 3.1606 7.41386 3.12158C7.29679 3.12158 7.06264 3.04352 6.98459 3.1606C6.94557 3.47279 6.90654 3.70694 6.98459 3.98011C7.06264 4.05816 7.25776 4.01914 7.37483 4.01914C7.49191 3.94109 7.56996 3.66792 7.76508 3.70694C7.88215 3.82402 7.72605 3.98011 7.8041 4.09719C7.76508 4.25328 7.92117 4.48743 7.72605 4.52645C7.60898 4.4484 7.53093 4.21426 7.33581 4.21426L7.02361 4.25328C6.90654 4.64352 6.94557 5.03377 7.02361 5.38499C7.17971 5.54109 7.41386 5.38499 7.60898 5.38499C7.88215 5.30694 7.84313 4.9167 8.07727 4.95572C8.15532 5.11182 8.15532 5.34596 8.1163 5.54109L7.99922 5.61913L6.39922 5.58011C6.32118 5.54109 6.16508 5.54109 6.24313 5.46304C6.75044 5.15084 6.47727 4.52645 6.5163 4.05816C6.43825 3.70694 6.71142 3.1606 6.24313 2.92645C6.2041 2.80938 6.3602 2.8484 6.43825 2.80938C6.82849 2.80938 7.37483 2.96548 7.68703 2.61426C7.92117 2.8484 7.92117 3.1606 7.92117 3.39475ZM5.50166 3.04353C5.03337 3.39475 5.03337 4.01913 4.83825 4.52645C4.64313 4.79962 4.7602 5.22889 4.44801 5.50206C4.33093 5.54108 4.25288 5.42401 4.21386 5.34596C4.05776 4.64353 3.86264 3.98011 3.58947 3.3167C3.55044 3.12158 3.08215 3.08255 3.35532 2.92645C3.70654 2.88743 3.94069 2.96548 4.25288 2.92645C4.33093 3.12158 4.01874 3.23865 4.09678 3.47279C4.29191 3.74596 4.21386 4.21426 4.48703 4.48743L4.6041 4.37036C4.6041 3.86304 5.18947 3.39475 4.72117 2.92645C4.83825 2.73133 5.18947 2.8484 5.38459 2.80938C5.46264 2.88743 5.61874 2.92646 5.50166 3.04353Z" fill="black"/>
</g>
<defs>
<linearGradient id="paint0_linear_897_1568" x1="9.37367" y1="-21.9712" x2="48.1138" y2="45.7511" gradientUnits="userSpaceOnUse">
<stop stop-color="#EAC035"/>
<stop offset="1" stop-color="#BE8936"/>
</linearGradient>
<linearGradient id="paint1_linear_897_1568" x1="4.96162" y1="7.51985" x2="5.15011" y2="13.891" gradientUnits="userSpaceOnUse">
<stop stop-color="#EAC035"/>
<stop offset="1" stop-color="#BE8936"/>
</linearGradient>
<linearGradient id="paint2_linear_897_1568" x1="2.50204" y1="-10.4791" x2="13.1045" y2="16.0665" gradientUnits="userSpaceOnUse">
<stop stop-color="#EAC035"/>
<stop offset="1" stop-color="#BE8936"/>
</linearGradient>
<linearGradient id="paint3_linear_897_1568" x1="13.4421" y1="-10.4476" x2="24.0497" y2="16.091" gradientUnits="userSpaceOnUse">
<stop stop-color="#EAC035"/>
<stop offset="1" stop-color="#BE8936"/>
</linearGradient>
<linearGradient id="paint4_linear_897_1568" x1="24.2721" y1="-10.4775" x2="35.0518" y2="16.0201" gradientUnits="userSpaceOnUse">
<stop stop-color="#EAC035"/>
<stop offset="1" stop-color="#BE8936"/>
</linearGradient>
<clipPath id="clip0_897_1568">
<rect width="159.999" height="40" fill="white" transform="translate(0.000396729)"/>
</clipPath>
</defs>
</svg>
