<svg width="41" height="40" viewBox="0 0 41 40" fill="none" xmlns="http://www.w3.org/2000/svg">
<g clip-path="url(#clip0_897_1138)">
<path d="M16.7109 20.3985C17.0346 20.3985 17.2968 20.1362 17.2968 19.8126V19.1221L17.4829 19.1719C17.7961 19.2556 18.1168 19.0698 18.2005 18.7576C18.2843 18.445 18.0988 18.1237 17.7862 18.0399L15.9062 17.5362C15.5936 17.4525 15.2724 17.638 15.1886 17.9505C15.1048 18.2631 15.2903 18.5844 15.6029 18.6681L16.1558 18.8163C16.1361 18.8749 16.125 18.9375 16.125 19.0028V19.8127C16.125 20.1362 16.3873 20.3985 16.7109 20.3985Z" fill="#F8F8F8"/>
<path d="M19.8616 20.0492C19.649 20.2931 19.6744 20.6632 19.9184 20.8759C20.1622 21.0884 20.5323 21.0632 20.7451 20.8192C21.1924 20.306 21.9874 20.3063 22.4342 20.8192C22.6468 21.0631 23.0169 21.0885 23.2608 20.876C23.5048 20.6634 23.5303 20.2933 23.3177 20.0492C22.4035 19 20.7753 19.001 19.8616 20.0492Z" fill="#F8F8F8"/>
<path d="M24.9789 18.7571C25.0489 19.0189 25.2857 19.1916 25.5444 19.1916C25.5946 19.1916 25.6456 19.1851 25.6964 19.1715L25.8824 19.1216V19.8122C25.8824 20.1358 26.1447 20.3981 26.4684 20.3981C26.7921 20.3981 27.0543 20.1358 27.0543 19.8122V19.0023C27.0543 18.9371 27.0431 18.8745 27.0235 18.8159L27.5765 18.6677C27.8891 18.584 28.0746 18.2627 27.9908 17.9501C27.9071 17.6375 27.586 17.452 27.2731 17.5357L25.3931 18.0395C25.0806 18.1233 24.8951 18.4445 24.9789 18.7571Z" fill="#F8F8F8"/>
<path d="M36.9331 16.9721H35.0328C34.8442 16.9721 34.6779 16.8486 34.619 16.6647C34.3906 15.9509 34.0998 15.2503 33.755 14.5822C33.6683 14.4144 33.6931 14.2077 33.8296 14.0711L35.5115 12.3892C37.0288 10.8721 37.0643 8.36005 35.5037 6.85802C34.0198 5.42981 31.6277 5.40598 30.1236 6.91028L28.3892 8.64481C28.2571 8.777 28.057 8.80137 27.8946 8.71723C27.25 8.38341 26.5391 8.08333 25.7926 7.84512C25.6148 7.78833 25.4953 7.62739 25.4953 7.44466V3.90637C25.4953 1.72005 23.7193 -0.0437815 21.5786 0.000827916C19.5013 0.0405154 17.8113 1.76372 17.8113 3.84208V7.29411C17.8113 7.51067 17.6983 7.71473 17.5164 7.82661C17.2408 7.99614 17.1548 8.35708 17.3244 8.6327C17.4939 8.90841 17.8548 8.99419 18.1304 8.82473C18.6564 8.50114 18.9832 7.91466 18.9832 7.29411V3.84208C18.9832 2.37934 20.1872 1.172 21.6511 1.172C23.0996 1.172 24.3233 2.42419 24.3233 3.90637V7.44481C24.3233 8.13958 24.7705 8.74911 25.4361 8.96169C26.0938 9.17153 26.7395 9.43942 27.3553 9.75794C27.3555 9.75802 27.3557 9.75817 27.3558 9.75825C27.9585 10.07 28.7132 9.97801 29.2177 9.47364L30.9522 7.73903C31.9985 6.69262 33.6607 6.71091 34.6909 7.70247C35.7716 8.74255 35.7424 10.5011 34.6828 11.5607L33.0007 13.2426C32.4922 13.7513 32.3999 14.5127 32.7135 15.1199C33.0285 15.7301 33.2941 16.37 33.5027 17.022C33.7175 17.6931 34.3322 18.144 35.0325 18.144H36.9328C38.4218 18.144 39.694 19.3836 39.6667 20.8665C39.6391 22.3099 38.4415 23.4843 36.9971 23.4843H35.1731C34.3959 23.4843 33.7105 23.9783 33.4678 24.7136C33.2768 25.2921 33.0403 25.8618 32.7652 26.407C32.6396 26.6559 32.5732 26.9347 32.5732 27.2135C32.5732 27.6936 32.7603 28.1454 33.1001 28.4851C33.9348 29.32 34.0871 30.5421 33.6257 31.5168C33.4873 31.8093 33.6121 32.1586 33.9046 32.2972C34.197 32.4357 34.5464 32.3107 34.6848 32.0183C35.3492 30.6151 35.1291 28.857 33.9288 27.6565C33.8102 27.538 33.745 27.3807 33.745 27.2135C33.745 27.1159 33.7673 27.0222 33.8113 26.935C34.1125 26.3383 34.3713 25.7146 34.5806 25.0811C34.6645 24.8269 34.9026 24.6562 35.1731 24.6562H36.9971C39.1016 24.6562 40.839 22.9244 40.839 20.8164C40.8393 18.6966 39.0869 16.9721 36.9331 16.9721Z" fill="#F8F8F8"/>
<path d="M32.2768 32.8097C31.9507 32.9443 31.6011 33.0126 31.2376 33.0126C30.4991 33.0126 29.785 32.722 29.2784 32.2154C28.7733 31.7104 27.9758 31.5533 27.3005 31.8982C26.7201 32.1948 26.1123 32.4469 25.4942 32.6476C24.7937 32.8751 24.3231 33.5269 24.3231 34.2697V36.1579C24.3231 37.6236 23.1159 38.828 21.6553 38.828C20.2067 38.828 18.9829 37.5758 18.9829 36.0936V35.0133C18.9829 33.8777 18.2684 32.8408 17.2051 32.433C16.9979 32.3536 16.7908 32.2676 16.5892 32.1776C15.5575 31.7166 14.3286 31.9144 13.5008 32.7422L12.354 33.889C11.3077 34.9353 9.6456 34.9174 8.61529 33.9257C7.5367 32.8877 7.5613 31.1296 8.62341 30.0675L10.1694 28.5215C10.5222 28.1687 10.7166 27.6994 10.7166 27.1999C10.7166 26.9117 10.6484 26.6228 10.5195 26.3643C10.5193 26.3637 10.5191 26.3632 10.5188 26.3627C10.2603 25.8456 10.0366 25.3064 9.8538 24.7601C9.59841 23.9968 8.88615 23.484 8.08146 23.484H4.68084C3.22459 23.484 2.01084 22.2879 2.01084 20.8161C2.01084 19.3676 3.26295 18.1438 4.74513 18.1438H8.13295C8.91037 18.1438 9.59537 17.6508 9.83732 16.9171C10.0283 16.3383 10.2648 15.768 10.5404 15.2219C10.8786 14.5513 10.774 13.7112 10.2056 13.1426C9.16584 12.1026 9.1717 10.4405 10.1693 9.40405C11.2244 8.30756 12.9937 8.36787 14.0374 9.42225C14.5334 9.92358 15.2746 10.0419 15.8958 9.78022C16.194 9.65467 16.334 9.311 16.2084 9.0128C16.0827 8.71452 15.7389 8.57467 15.441 8.70022C15.2515 8.78014 15.0211 8.7503 14.8703 8.59795C13.3772 7.08928 10.8495 7.00709 9.32498 8.59139C7.89091 10.0814 7.87927 12.4733 9.37693 13.9712C9.57052 14.1648 9.61513 14.4543 9.49427 14.6939C9.19255 15.2917 8.93357 15.9162 8.72451 16.5499C8.64123 16.8022 8.40349 16.9719 8.13295 16.9719H4.74521C2.59787 16.9719 0.807321 18.6957 0.839665 20.8885C0.87943 22.9658 2.60248 24.6558 4.68091 24.6558H8.08146C8.38154 24.6558 8.64716 24.8472 8.74248 25.1319C8.94271 25.7301 9.18755 26.3205 9.47045 26.8865C9.47045 26.8866 9.47052 26.8867 9.4706 26.8868C9.51974 26.9852 9.54466 27.0905 9.54466 27.1998C9.54466 27.3862 9.47224 27.5612 9.34068 27.6927L7.79466 29.2388C6.27771 30.7558 6.24177 33.2679 7.80255 34.77C9.28873 36.2003 11.6801 36.2201 13.1826 34.7176L14.3295 33.5708C14.8124 33.0878 15.5234 32.9849 16.1111 33.2475C16.3318 33.3461 16.5586 33.4401 16.7854 33.5273C17.3989 33.7625 17.8111 34.3597 17.8111 35.0134V36.0937C17.8111 38.2815 19.589 40.0441 21.7278 39.9993C23.8051 39.9596 25.4951 38.2364 25.4951 36.158V34.2698C25.4951 34.0365 25.6401 33.8325 25.8561 33.7624C26.533 33.5426 27.1984 33.2665 27.8338 32.9419C28.0321 32.8405 28.2901 32.8845 28.4499 33.0443C29.1746 33.769 30.1907 34.1846 31.2377 34.1846C31.7553 34.1846 32.2553 34.0865 32.7239 33.8933C33.023 33.7698 33.1654 33.4272 33.042 33.1282C32.9186 32.8288 32.5758 32.6862 32.2768 32.8097Z" fill="#F8F8F8"/>
<path d="M4.93555 15.7295C6.22789 15.7295 7.2793 14.6781 7.2793 13.3857C7.2793 12.0934 6.22789 11.042 4.93555 11.042C3.6432 11.042 2.5918 12.0934 2.5918 13.3857C2.5918 14.6781 3.6432 15.7295 4.93555 15.7295ZM4.93555 12.2139C5.58172 12.2139 6.10742 12.7396 6.10742 13.3857C6.10742 14.0319 5.58172 14.5576 4.93555 14.5576C4.28937 14.5576 3.76367 14.0319 3.76367 13.3857C3.76367 12.7396 4.2893 12.2139 4.93555 12.2139Z" fill="#F8F8F8"/>
<path d="M28.9199 35.0264C27.6276 35.0264 26.5762 36.0778 26.5762 37.3701C26.5762 38.6625 27.6276 39.7139 28.9199 39.7139C30.2123 39.7139 31.2637 38.6625 31.2637 37.3701C31.2637 36.0778 30.2123 35.0264 28.9199 35.0264ZM28.9199 38.542C28.2738 38.542 27.748 38.0163 27.748 37.3701C27.748 36.7239 28.2738 36.1982 28.9199 36.1982C29.5661 36.1982 30.0918 36.7239 30.0918 37.3701C30.0918 38.0163 29.5661 38.542 28.9199 38.542Z" fill="#F8F8F8"/>
<path d="M28.4121 6.23975C29.3813 6.23975 30.1699 5.45123 30.1699 4.48193C30.1699 3.51264 29.3813 2.72412 28.4121 2.72412C27.4429 2.72412 26.6543 3.51264 26.6543 4.48193C26.6543 5.45123 27.4428 6.23975 28.4121 6.23975ZM28.4121 3.896C28.7352 3.896 28.998 4.15881 28.998 4.48193C28.998 4.80506 28.7352 5.06787 28.4121 5.06787C28.089 5.06787 27.8262 4.80506 27.8262 4.48193C27.8262 4.15881 28.089 3.896 28.4121 3.896Z" fill="#F8F8F8"/>
<path d="M38.0215 15.8491C38.9907 15.8491 39.7793 15.0606 39.7793 14.0913C39.7793 13.122 38.9907 12.3335 38.0215 12.3335C37.0523 12.3335 36.2637 13.122 36.2637 14.0913C36.2637 15.0606 37.0522 15.8491 38.0215 15.8491ZM38.0215 13.5054C38.3446 13.5054 38.6074 13.7682 38.6074 14.0913C38.6074 14.4144 38.3446 14.6772 38.0215 14.6772C37.6984 14.6772 37.4355 14.4144 37.4355 14.0913C37.4355 13.7682 37.6984 13.5054 38.0215 13.5054Z" fill="#F8F8F8"/>
<path d="M29.0134 23.0989C28.7846 22.87 28.4136 22.8701 28.1848 23.0989C27.956 23.3277 27.956 23.6987 28.1849 23.9275C28.8703 24.613 29.9856 24.6127 30.6708 23.9275C31.356 23.2422 31.356 22.127 30.6708 21.4416C30.442 21.2129 30.071 21.2128 29.8422 21.4416C29.6133 21.6704 29.6133 22.0415 29.8421 22.2703C30.0707 22.4987 30.0707 22.8705 29.8422 23.0989C29.6135 23.3274 29.2418 23.3273 29.0134 23.0989Z" fill="#F8F8F8"/>
<path d="M26.6224 12.0672C26.3935 12.296 26.3935 12.667 26.6223 12.8958C26.8511 13.1246 27.2221 13.1247 27.4509 12.8958C27.6794 12.6674 28.0511 12.6673 28.2796 12.8958C28.5081 13.1243 28.5081 13.4961 28.2796 13.7245C28.0507 13.9533 28.0507 14.3244 28.2796 14.5532C28.5082 14.7819 28.8793 14.782 29.1082 14.5532C29.7935 13.8678 29.7935 12.7526 29.1082 12.0672C28.4228 11.3819 27.3075 11.3819 26.6224 12.0672Z" fill="#F8F8F8"/>
<path d="M5.32617 35.3389C4.35695 35.3389 3.56836 36.1274 3.56836 37.0967C3.56836 38.066 4.35695 38.8545 5.32617 38.8545C6.29539 38.8545 7.08398 38.066 7.08398 37.0967C7.08398 36.1274 6.29539 35.3389 5.32617 35.3389ZM5.32617 37.6826C5.00305 37.6826 4.74023 37.4198 4.74023 37.0967C4.74023 36.7736 5.00305 36.5107 5.32617 36.5107C5.6493 36.5107 5.91211 36.7736 5.91211 37.0967C5.91211 37.4198 5.64922 37.6826 5.32617 37.6826Z" fill="#F8F8F8"/>
<path d="M16.9332 11.6526C16.0195 12.5664 16.0195 14.0533 16.9332 14.9671C17.1619 15.1959 17.533 15.1961 17.7618 14.9671C17.9907 14.7383 17.9907 14.3674 17.7619 14.1386C17.3049 13.6817 17.3049 12.9382 17.7618 12.4813C18.2188 12.0244 18.9622 12.0244 19.4192 12.4813C19.6479 12.7102 20.019 12.7101 20.2478 12.4813C20.4766 12.2525 20.4766 11.8814 20.2477 11.6527C19.3341 10.7388 17.847 10.7389 16.9332 11.6526Z" fill="#F8F8F8"/>
<path d="M23.2306 28.9823C23.0018 28.7534 22.6308 28.7534 22.402 28.9823C22.1731 29.2111 22.1731 29.5821 22.402 29.8109C23.3156 30.7246 24.8028 30.7248 25.7166 29.8109C26.6325 28.8951 26.6327 27.4124 25.7166 26.4963C25.4877 26.2675 25.1168 26.2675 24.888 26.4963C24.6591 26.7252 24.6591 27.0962 24.888 27.3249C25.3458 27.7827 25.3461 28.5241 24.8881 28.9822C24.4309 29.4391 23.6875 29.4391 23.2306 28.9823Z" fill="#F8F8F8"/>
<path d="M12.6601 22.176C12.4312 21.9472 12.0603 21.9472 11.8314 22.176C10.6892 23.3183 10.6892 25.177 11.8314 26.3192C12.9764 27.4641 14.8296 27.4643 15.9746 26.3192C16.2035 26.0904 16.2035 25.7194 15.9746 25.4905C15.7458 25.2617 15.3748 25.2618 15.146 25.4905C14.4591 26.1775 13.3471 26.1776 12.6602 25.4905C11.9748 24.8052 11.9748 23.69 12.6602 23.0046C12.8889 22.7758 12.8889 22.4048 12.6601 22.176Z" fill="#F8F8F8"/>
</g>
<defs>
<clipPath id="clip0_897_1138">
<rect width="40" height="40" fill="white" transform="translate(0.839355)"/>
</clipPath>
</defs>
</svg>
